<svg width="158" height="156" viewBox="0 0 158 156" fill="none" xmlns="http://www.w3.org/2000/svg">
<path d="M121.265 20.7735C121.633 16.2715 120.352 15.727 115.543 15.727C102.5 4.99974 75.5 -2 57.639 9.7775C49.0032 5.65168 39.8383 16.2132 40.5095 25.5691C27.3762 25.5691 20.1546 46.4292 24.5658 51.541C10.8978 59.0888 16.9976 65.1519 16.9976 69.9492C12.3026 71.0857 8.19429 81.6128 8.49226 85.5081C5.56262 86.9491 4.83156 97.0506 3.6854 102.175C1.39069 104.699 0.932232 107.096 2.37199 112.89C5.67491 115.706 0.0173717 114.501 3.68624 118.604C-1.20558 126.278 3.45214 136.691 9.25534 137.599C8.7513 137.497 12.9649 145.307 17.9727 145.307C20.5251 145.307 26.7053 145.538 29.6369 147.077C36.7176 147.077 39.8716 148.721 43.8927 150.33C44.5444 150.394 47.2454 154.342 51.7843 152.704C63.3861 150.33 67.7441 148.598 78.7202 148.964C83.3526 147.456 87.5588 150.081 90.6917 148.964C101.143 151.943 112.197 151.578 117.775 147.343C120.766 147.419 142.505 146.054 145.145 139.27C154.058 134.163 147.079 126.491 151.492 123.025C157.936 117.963 153.631 111.647 152.665 104.588C149.286 99.1384 151.324 94.3665 148.141 85.7874C147.221 83.3094 145.871 83.2012 145.145 77.3907C144.923 75.6132 144.119 70.2719 140.098 65.891C140.878 53.4412 135.47 50.6592 133.345 48.6782C137.469 37.5221 127.286 26.9192 121.265 20.7735Z" fill="white"/>
<path fill-rule="evenodd" clip-rule="evenodd" d="M37.4754 148.753C40.2866 152.008 43.099 152.449 44.5182 152.446C47.1294 155.695 50.9411 156.185 54.3548 154.885C56.1852 155.548 57.8516 155.526 59.3092 154.818C60.5382 154.225 61.3386 153.273 61.8263 152.5C63.7769 152.783 65.4849 151.585 66.5455 150.402C73.3697 151.947 87.9266 151.412 89.7657 149.699C93.3741 152.953 97.1399 153.542 99.4952 151.852C101.315 153.409 106.42 155.382 109.326 151.852C112.803 153.958 116.891 150.137 117.852 149.313C125.714 149.785 143.85 148.041 146.722 140.934C153.043 135.531 153.743 133.211 153.043 124.491C160.516 116.271 155.85 104.643 153.043 102.838C154.404 99.1574 154.655 95.5256 151.012 91.814C151.012 88.9146 150.184 82.8669 145.313 80.0581C149.487 74.8725 144.822 67.4691 141.601 65.8966C143.518 58.2912 141.865 51.7864 135.392 48.6832C137.145 37.0653 131.281 30.4536 126.035 24.5391L126 24.4998C120.5 18.2986 113.643 12.8235 104.465 7.99981C90.6719 0.750458 67 2.99962 57 8.49981C47 14 40 20.4998 34 25.9998C28 31.4998 19.3038 41.3562 22.5751 51.4299C14.8087 54.9939 13.731 62.4843 15.6898 70.4231C8.17895 73.872 8.23362 78.682 8.27845 82.6192L8.27861 82.634C8.28511 83.2413 8.2914 83.8276 8.2697 84.3849C1.40948 86.9447 2.19457 95.9335 3.44546 100.108C-1.48594 106.164 -0.195688 111.876 1.63035 114.966C-0.260201 118.619 -1.86209 132.388 5.53064 137.857C9.81582 144.672 14.4695 147.517 20.3194 147.325C22.0667 148.009 26.6351 149.377 30.9334 149.377C33.117 149.377 38.0046 148.622 37.4754 148.753ZM24.8899 53.7199C20.057 55.5437 16.231 59.476 19.484 69.4234C19.7714 70.3015 19.3627 71.2988 18.6027 71.7182C13.1366 74.4046 11.0427 77.4166 11.0427 86.0398C6.52786 87.6876 3.955 92.887 6.52786 100.108C6.27277 100.593 5.89815 101.115 5.48415 101.692L5.48034 101.697C3.56464 104.363 0.806994 108.202 5.10748 114.966C4.8877 116.303 4.60997 117.593 4.3377 118.855L4.3374 118.856C3.1916 124.176 2.15336 128.996 6.0041 134.735C6.74545 135.179 8.02915 135.963 8.2697 136.37C9.62994 140.079 16.9461 147.243 35.3345 146.229C33.8846 144.401 32.7594 142.513 31.9776 140.594C31.2472 138.801 33.8091 137.571 34.5362 139.365C35.9883 142.942 40.5994 150.239 44.8627 149.377C45.4061 149.249 45.9463 149.483 46.271 149.973C48.9751 154.006 53.5905 151.941 53.7862 151.85C54.123 151.694 54.509 151.685 54.8479 151.831C58.4443 153.361 59.6284 150.706 59.8274 150.159C60.1041 149.35 60.9734 148.971 61.6939 149.313C64.1422 150.472 66.3378 145.797 66.6603 143.839C66.9742 141.905 69.734 142.445 69.4147 144.374C69.2518 145.356 68.7291 146.6 68.2338 147.619C70.389 147.566 73.2054 147.721 75.9746 147.873L75.983 147.874L75.9841 147.874C80.5368 148.125 84.9591 148.368 86.0995 147.667C85.6872 146.859 84.842 145.03 84.76 144.181C84.76 143.119 85.8316 141.856 87.3307 143.119C87.9867 144.64 89.3634 147.437 91.6585 147.437C95.2297 150.584 99.3519 148.878 99.4952 148.796C99.9008 148.568 100.396 148.562 100.802 148.796C103.222 150.179 107.218 151.07 109.326 148.16C112.45 149.91 114.027 147.963 114.742 147.079L114.743 147.078C114.862 146.93 114.957 146.812 115.032 146.746L115.081 146.663C116.412 144.411 118.439 140.98 118.506 137.576C118.545 135.61 121.338 135.678 121.305 137.637C121.247 140.634 120.03 143.138 118.877 145.511L118.875 145.516L118.506 146.278C139.184 146.278 144.231 139.566 144.353 139.176C144.504 138.699 144.866 138.328 145.313 138.197C150.348 133.211 150.348 132.769 150.165 124.956C149.894 124.399 149.966 123.715 150.348 123.241C157.026 115.197 152.676 106.672 150.165 103.376C151.041 96.0605 149.956 93.9736 148.191 91.814C147.94 88.5538 147.318 82.515 142.245 82.515C141.684 82.515 141.227 81.5382 141.601 80.9664C146.609 73.3012 142.016 68.8148 138.934 66.5848L138.938 66.5744C141.185 55.2652 136.751 52.3558 131.459 50.5739C129.734 49.992 130.565 47.0876 132.29 47.6694L132.835 47.8549C134.964 37.3316 129.323 31.6997 125 27.4998C117.942 20.6409 111.447 14.7546 102.233 10.1654C89.2421 3.69542 67.6194 4.49981 58.0597 10.4998C48.5 16.4998 40.7979 22.8031 35 28.4998C29.2021 34.1965 22.1859 43.4689 25.6597 51.5576C26.0643 52.3665 25.6903 53.4176 24.8899 53.7199Z" fill="black"/>
<path d="M37.8041 1.25191C30.8142 4.07324 33.3818 22.2875 35.5373 31.0397C40.8452 31.0397 53.4967 18.1131 59.161 11.6514C54.9531 7.00985 44.7941 -1.56941 37.8013 1.25191H37.8041Z" fill="#FCF4F0"/>
<path d="M35.1497 31.732C34.5314 31.732 33.9661 31.28 33.8018 30.5944C33.2978 28.4829 29.0592 9.74991 34.9687 2.64805C36.7872 0.463794 39.2852 -0.376537 42.3958 0.154358L42.4265 0.160425C45.526 0.770197 52.9197 3.3913 58.7122 8.95205C59.2886 9.50722 59.3443 10.4659 58.8375 11.0938C58.3279 11.7218 57.4479 11.7825 56.8714 11.2273C51.5496 6.11859 44.7936 3.70984 41.9502 3.14557C39.8031 2.78153 38.1963 3.28512 37.035 4.68062C33.5512 8.86711 34.3142 20.653 36.5003 29.8299C36.6925 30.6399 36.2469 31.4681 35.5033 31.6804C35.3864 31.7138 35.2694 31.729 35.1525 31.729L35.1497 31.732Z" fill="#0C1A23"/>
<path d="M38.3331 12.5827C39.5779 7.40422 46.7739 10.4258 50.216 12.5827C50.6393 13.508 46.1139 17.4366 43.6382 17.5913C41.6582 17.7157 39.5584 23.7042 38.7591 26.6833C38.0991 24.1411 37.091 17.7612 38.3358 12.5827H38.3331Z" fill="#DFCAD3"/>
<path d="M38.4027 26.6686C37.7511 26.6686 37.169 26.1681 37.0381 25.443C36.7597 23.9019 34.4844 10.2928 40.0959 7.54124C44.638 5.31451 49.0853 9.05201 50.8008 11.3394C51.2881 11.9886 51.199 12.9442 50.6059 13.4751C50.0099 14.006 49.1327 13.9089 48.6453 13.2628C47.64 11.9249 44.3511 8.78505 41.2377 10.311C38.8845 11.4638 38.6422 18.6172 39.7673 24.8636C39.9149 25.6857 39.4247 26.4836 38.67 26.6444C38.5809 26.6626 38.489 26.6717 38.3999 26.6717L38.4027 26.6686Z" fill="#0C1A23"/>
<path d="M121.733 1.94674C128.723 4.76807 126.155 22.9823 124 31.7345C118.692 31.7345 106.04 18.808 100.376 12.3462C104.584 7.70468 114.743 -0.874591 121.736 1.94674H121.733Z" fill="#FCF4F0"/>
<path d="M124.387 32.4268C125.006 32.4268 125.571 31.9748 125.735 31.2892C126.239 29.1778 130.478 10.4447 124.568 3.34287C122.75 1.15862 120.252 0.318287 117.141 0.849182L117.111 0.85525C114.011 1.46502 106.617 4.08613 100.825 9.64688C100.248 10.202 100.193 11.1607 100.7 11.7887C101.209 12.4166 102.089 12.4773 102.666 11.9221C107.988 6.81341 114.744 4.40466 117.587 3.8404C119.734 3.47636 121.341 3.97995 122.502 5.37544C125.986 9.56193 125.223 21.3478 123.037 30.5247C122.845 31.3347 123.29 32.1629 124.034 32.3753C124.151 32.4086 124.268 32.4238 124.385 32.4238L124.387 32.4268Z" fill="#0C1A23"/>
<path d="M121.204 13.2771C119.959 8.09856 112.763 11.1201 109.321 13.2771C108.898 14.2023 113.423 18.131 115.899 18.2857C117.879 18.4101 119.979 24.3986 120.778 27.3776C121.438 24.8354 122.446 18.4556 121.202 13.2771H121.204Z" fill="#DFCAD3"/>
<path d="M121.134 27.3635C121.786 27.3635 122.368 26.8629 122.499 26.1378C122.777 24.5967 125.053 10.9876 119.441 8.23606C114.899 6.00934 110.452 9.74684 108.736 12.0342C108.249 12.6834 108.338 13.6391 108.931 14.17C109.527 14.7008 110.404 14.6038 110.892 13.9576C111.897 12.6197 115.186 9.47987 118.299 11.0058C120.653 12.1586 120.895 19.3121 119.77 25.5584C119.622 26.3805 120.112 27.1784 120.867 27.3392C120.956 27.3574 121.048 27.3665 121.137 27.3665L121.134 27.3635Z" fill="#0C1A23"/>
<path d="M50.6554 67.7549C53.4876 67.7549 55.7879 66.0591 55.7879 63.9658C55.7879 61.8726 53.4932 60.1768 50.6554 60.1768C47.8177 60.1768 45.5229 61.8726 45.5229 63.9658C45.5229 66.0591 47.8177 67.7549 50.6554 67.7549Z" fill="#EFBDA0"/>
<path d="M51.5297 59.0664C51.0563 59.1544 50.5884 59.4639 50.2181 59.7733C49.8365 60.0767 49.2239 60.6349 49.2239 61.2082C49.2239 61.3781 49.3353 61.5237 49.4801 61.5692C49.9869 61.7209 50.7026 61.1506 51.0786 60.8381C51.474 60.5074 51.8082 60.2769 52.0366 59.7703C52.2037 59.3941 51.8918 58.9876 51.5297 59.0634V59.0664Z" fill="#342838"/>
<path d="M81.6759 64.7604C70.8178 65.534 63.0342 59.0085 62.0094 47.7202C60.6838 32.937 79.3422 23.5296 89.635 31.8783C96.1181 37.1569 99.6604 46.6705 95.9426 54.9282C95.9426 54.8311 92.534 63.9868 81.6759 64.7604Z" fill="#342838"/>
<path d="M80.9152 64.62C87.3064 64.4471 92.3135 61.2132 95.9421 54.9213C96.0842 56.6535 95.9421 58.0915 95.051 59.7934C88.2755 67.6749 76.025 68.5911 67.1998 61.7865C66.9743 61.6075 66.7292 61.5651 66.5927 61.6743C66.434 61.7956 66.4563 61.9928 66.6596 62.2598C73.7052 71.3639 89.3978 67.8478 94.0317 61.7046C89.7347 74.1822 69.5976 71.1606 64.2089 62.1839C64.0669 62.005 63.9861 61.735 63.9861 61.4255C63.9806 60.7733 63.7828 60.1392 63.3818 59.5264C60.3491 54.8121 57.7592 46.0296 62.6188 41.6064C61.0091 55.3005 68.7148 64.9446 80.9152 64.623V64.62Z" fill="#B2CFD6"/>
<path d="M67.053 42.6864C66.6102 42.7652 65.5548 42.1706 65.371 41.2545C64.7667 38.2572 68.827 33.7461 70.8293 33.7461C71.9293 33.7461 71.2136 34.905 70.005 36.1093C68.7657 37.344 67.6323 40.3262 67.5877 41.3849C67.5515 42.2586 67.4958 42.6014 67.053 42.6833V42.6864Z" fill="white"/>
<path d="M79.1197 41.2651C78.649 44.7023 76.4824 46.2039 74.0652 46.2039C71.648 46.2039 70.3196 44.3655 70.3196 41.1043C70.3196 38.6925 72.8315 35.7681 75.0538 35.7681C77.2761 35.7681 79.6237 37.5852 79.1169 41.2651H79.1197Z" fill="white"/>
<path d="M81.1272 77.0012C80.1812 75.7771 79.2768 76.56 79.127 77.2062C77.7178 80.2603 73.5289 81.4316 73.2737 77.7002C73.1794 76.3394 71.723 76.9701 71.8118 78.6727C72.1058 84.2713 79.238 82.2767 80.012 79.4183C82.2729 82.5625 88.3648 83.0534 88.6339 77.868C88.7393 75.8516 86.692 75.5751 86.4701 77.0757C85.9707 80.4747 83.0718 79.5178 81.1244 77.0043L81.1272 77.0012Z" fill="#342838"/>
</svg>
