<svg width="36" height="36" viewBox="0 0 36 36" fill="none" xmlns="http://www.w3.org/2000/svg">
<path fill-rule="evenodd" clip-rule="evenodd" d="M10.9593 11.6373L11.4739 16.2686L10.4325 16.3518C8.9804 16.4677 7.79465 17.5593 7.55925 18.9969C7.01671 22.3103 7.01671 25.6898 7.55925 29.0031C7.79465 30.4408 8.9804 31.5324 10.4325 31.6483L12.6767 31.8274C16.2199 32.1103 19.7801 32.1103 23.3233 31.8274L25.5675 31.6483C27.0196 31.5324 28.2054 30.4408 28.4408 29.0031C28.9833 25.6898 28.9833 22.3103 28.4408 18.9969C28.2054 17.5593 27.0196 16.4677 25.5675 16.3518L24.526 16.2686L25.0406 11.6373C25.1012 11.0913 25.1012 10.5403 25.0406 9.99435L25.0064 9.68701C24.6442 6.42692 22.0813 3.84744 18.8236 3.46418C18.2764 3.3998 17.7235 3.3998 17.1762 3.46418C13.9186 3.84744 11.3557 6.42692 10.9934 9.68701L10.9593 9.99435C10.8986 10.5403 10.8986 11.0913 10.9593 11.6373ZM18.5607 5.69877C18.1881 5.65494 17.8117 5.65494 17.4391 5.69877C15.2212 5.9597 13.4763 7.7159 13.2297 9.93548L13.1955 10.2428C13.1532 10.6237 13.1532 11.008 13.1955 11.3888L13.7187 16.0976C16.5699 15.9148 19.4299 15.9148 22.2811 16.0976L22.8043 11.3888C22.8467 11.008 22.8467 10.6237 22.8043 10.2428L22.7702 9.93548C22.5236 7.7159 20.7787 5.9597 18.5607 5.69877ZM18 21.75C16.7573 21.75 15.75 22.7574 15.75 24C15.75 25.2427 16.7573 26.25 18 26.25C19.2426 26.25 20.25 25.2427 20.25 24C20.25 22.7574 19.2426 21.75 18 21.75Z" fill="#474747"/>
</svg>
