<svg width="36" height="36" viewBox="0 0 36 36" fill="none" xmlns="http://www.w3.org/2000/svg">
<path d="M15.4607 10.8299C16.4239 8.42889 16.9054 7.22837 17.6878 7.06199C17.8935 7.01824 18.1061 7.01824 18.3118 7.06199C19.0942 7.22837 19.5758 8.42889 20.5389 10.8299C21.0866 12.1953 21.3604 12.878 21.8728 13.3424C22.0166 13.4726 22.1726 13.5886 22.3387 13.6888C22.931 14.0457 23.6703 14.1119 25.149 14.2444C27.6521 14.4685 28.9037 14.5806 29.2859 15.2943C29.3651 15.442 29.4189 15.6021 29.4451 15.7677C29.5718 16.5672 28.6517 17.4043 26.8116 19.0785L26.3005 19.5434C25.4402 20.3261 25.0101 20.7174 24.7613 21.2059C24.612 21.4988 24.5119 21.8143 24.465 22.1398C24.3869 22.6823 24.5128 23.2501 24.7648 24.3855L24.8548 24.7912C25.3066 26.8275 25.5325 27.8457 25.2505 28.3461C24.9972 28.7957 24.5306 29.0835 24.0152 29.1081C23.4414 29.1355 22.6329 28.4767 21.016 27.1591C19.9507 26.291 19.418 25.857 18.8267 25.6874C18.2863 25.5325 17.7133 25.5325 17.1729 25.6874C16.5816 25.857 16.0489 26.291 14.9836 27.1591C13.3667 28.4767 12.5582 29.1355 11.9844 29.1081C11.469 29.0835 11.0024 28.7957 10.7491 28.3461C10.4671 27.8457 10.693 26.8275 11.1448 24.7912L11.2349 24.3855C11.4868 23.2501 11.6127 22.6823 11.5346 22.1398C11.4877 21.8143 11.3876 21.4988 11.2384 21.2059C10.9896 20.7174 10.5594 20.3261 9.69907 19.5434L9.18806 19.0785C7.34788 17.4043 6.42779 16.5672 6.5545 15.7677C6.58074 15.6021 6.63456 15.442 6.71372 15.2942C7.09592 14.5806 8.34749 14.4685 10.8506 14.2444C12.3293 14.1119 13.0686 14.0457 13.6609 13.6888C13.827 13.5886 13.983 13.4726 14.1268 13.3424C14.6392 12.878 14.913 12.1953 15.4607 10.8299Z" fill="#A430EB" stroke="#A430EB" stroke-width="2"/>
</svg>
