<svg width="375" height="647" viewBox="0 0 375 647" fill="none" xmlns="http://www.w3.org/2000/svg">
<rect y="435.444" width="379.875" height="211.556" fill="#4C7A70"/>
<circle cx="188.825" cy="251.169" r="59.298" fill="#EBA91F"/>
<circle cx="188.825" cy="251.169" r="87.4191" fill="#EBA91F" fill-opacity="0.3"/>
<circle cx="188.827" cy="251.169" r="114.018" fill="#EBA91F" fill-opacity="0.3"/>
<g clip-path="url(#clip0_1996_4571)">
<path d="M411.519 138.747C411.519 138.747 405.375 136.856 405.836 133.387C405.996 132.212 402.454 130.877 402.454 124.016C402.454 123.415 405.113 114.478 397.742 108.441C390.371 102.404 381.19 106.633 381.19 106.633C381.19 106.633 379.055 93.9584 364.235 94.2012C349.416 94.444 347.089 108.85 347.722 109.655C347.722 109.655 341.642 109.367 339.672 112.069C339.672 112.069 335.881 97.5806 316.548 99.7527C297.215 101.925 300.962 122.604 300.962 122.604C300.962 122.604 293.347 122.086 292.261 126.673C292.261 126.673 284.646 123.102 280.663 127.484C277.141 131.356 277.767 137.182 277.959 138.485C277.984 138.658 278.004 138.747 278.004 138.747C278.004 138.747 272.141 139.954 271.054 144.12C271.054 144.12 267.551 143.276 266.163 144.72C266.163 144.72 260.582 143.257 260.186 147.557C260.186 147.557 252.393 144.695 248.812 148.885C245.232 153.076 246.14 154.98 248.378 157.605C250.615 160.231 258.556 160.352 263.811 159.899C269.066 159.445 285.707 160.103 285.707 160.103L386.803 159.567C386.803 159.567 429.574 161.26 436.069 159.72C442.565 158.18 439.662 150.125 434.496 148.675C429.331 147.224 426.435 147.857 424.619 148.764C424.619 148.764 423.257 140.472 418.731 139.641C414.204 138.811 411.513 138.747 411.513 138.747H411.519Z" fill="white"/>
<path d="M411.526 138.741C409.211 137.878 405.727 136.409 405.855 133.457C405.893 132.876 405.42 132.448 405.101 132.014C404.397 131.158 403.79 130.212 403.381 129.184C401.399 124.961 403.854 120.406 402.543 116.049C402.051 113.884 401.002 111.852 399.545 110.178C395.108 104.882 387.238 103.969 381.228 106.626C379.988 100.666 375.129 95.7854 369.139 94.6163C365.213 93.8944 361.032 93.9711 357.318 95.549C352.184 97.6827 348.578 102.736 347.696 108.16C347.645 108.664 347.523 109.175 347.715 109.667L347.747 109.61C346.296 109.578 344.845 109.68 343.425 109.999C342.032 110.319 340.574 110.868 339.666 112.037L339.73 112.05C338.196 107.265 334.443 103.311 329.853 101.33C328.516 100.73 326.822 100.213 325.377 99.957C313.441 98.0852 302.547 101.829 300.866 115.123C300.597 117.487 300.482 120.451 300.987 122.546C297.752 122.457 293.264 123.012 292.235 126.654C289.889 125.434 286.187 124.763 283.38 125.676C278.33 127.567 277.243 133.994 277.978 138.747C275.402 139.175 271.815 141.104 271.029 144.094L271.099 144.049C270.262 143.87 269.405 143.775 268.542 143.813C267.698 143.851 266.784 144.043 266.151 144.669C264.028 144.017 260.352 144.362 260.154 147.537L260.237 147.486C256.823 146.426 252.603 145.761 249.56 148.093C248.224 149.352 247.029 150.885 246.511 152.667C245.98 154.558 247.176 156.328 248.384 157.669C250.193 159.439 252.885 159.694 255.276 159.995C260.186 160.499 265.089 159.682 270.006 159.809C276.15 159.771 282.287 160.173 288.425 160.161C295.01 160.122 307.496 160.065 314.215 160.027C332.423 159.912 362.381 159.79 380.538 159.669C387.877 159.522 395.306 159.982 402.639 160.129C407.549 160.25 412.465 160.352 417.375 160.391C423.507 160.346 429.689 160.627 435.781 159.803C442.194 158.704 440.186 151.025 435.43 148.975C432.041 147.786 428.007 147.135 424.638 148.745C424.101 145.876 423.046 142.478 420.636 140.504C420.029 140.005 419.274 139.718 418.507 139.584C416.206 139.175 413.878 138.843 411.538 138.741H411.526ZM411.526 138.753C414.236 138.945 416.998 139.169 419.613 139.922C422.842 141.551 423.877 145.589 424.645 148.783C428.001 147.186 432.009 147.838 435.398 149.026C438.575 150.444 441.241 154.916 438.914 158.059C437.252 160.033 434.452 159.892 432.099 160.122C417.369 160.659 402.626 160.014 387.903 159.547C360.802 159.541 326.598 159.854 299.472 159.963C297.183 159.956 290.669 160.027 288.418 160.02C282.281 160.039 276.143 159.637 269.999 159.675C263.894 159.535 257.673 160.799 251.664 159.254C249.241 158.749 247.284 156.832 246.607 154.494C246.134 152.329 247.662 150.387 248.985 148.828C251.849 145.768 256.644 146.483 260.263 147.627C260.461 144.528 263.779 144.164 266.215 144.778C267.493 143.602 269.494 143.877 271.073 144.164L271.131 144.177L271.144 144.126C272.026 141.072 275.223 139.488 278.1 138.785C277.774 136.779 277.805 134.703 278.215 132.704C279.794 125.114 285.81 123.952 292.267 126.711L292.324 126.737C292.542 125.887 292.996 125.108 293.654 124.527C295.668 122.84 298.513 122.578 301.051 122.648C299.977 115.423 301.601 106.767 308.167 102.589C311.319 100.545 315.135 99.7589 318.85 99.6439C322.545 99.4204 326.413 99.9123 329.827 101.407C334.417 103.381 338.17 107.355 339.685 112.14C340.568 110.951 342.038 110.389 343.444 110.07C344.87 109.744 346.341 109.648 347.798 109.68C347.677 109.456 347.683 109.175 347.696 108.907C348.265 103.221 352.043 97.8297 357.35 95.6001C361.051 94.0286 365.22 93.9455 369.132 94.661C375.097 95.8237 379.956 100.685 381.19 106.626C387.398 104.103 394.961 104.812 399.526 110.191C402.53 113.539 403.419 118.298 402.69 122.655C402.441 123.747 402.422 124.852 402.575 125.964C402.773 128.494 403.956 130.781 405.599 132.678C405.753 132.908 405.874 133.164 405.842 133.445C405.74 136.434 409.173 137.853 411.532 138.741L411.526 138.753Z" fill="#324C76"/>
<path d="M424.261 158.014C424.261 157.599 426.479 145.889 411.98 143.711C411.98 143.711 408.604 143.57 400.191 145.033C391.777 146.496 391.317 131.931 391.317 131.931C391.317 131.931 384.981 142.139 390.14 146.969C390.14 146.969 387.206 147.748 385.755 149.959C384.303 152.169 385.154 149.959 385.154 149.959C385.154 149.959 379.393 145.519 375.852 145.8C375.852 145.8 385.64 131.158 370.775 122.827C355.911 114.497 350.356 129.829 350.356 129.829C350.356 129.829 339.724 127.951 336.642 139.182C336.642 139.182 325.646 140.332 324.137 145.583C324.137 145.583 314.087 137.316 303.768 144.554C303.768 144.554 298.737 149.595 298.193 153.063C298.193 153.063 295.687 151.588 294.025 152.367C294.025 152.367 295.01 152.725 293.239 152.233C291.468 151.741 290.875 151.914 289.609 152.367C288.344 152.821 291.289 145.468 283.879 144.573C276.469 143.679 271.31 151.281 270.492 152.642C269.673 154.003 268.74 152.009 267.896 152.233C267.052 152.457 263.753 152.188 262.347 153.408C262.347 153.408 261.976 154.335 261.496 154.571C261.496 154.571 260.115 151.026 255.174 150.936C250.232 150.847 248.352 152.252 248.199 152.68C248.045 153.108 247.182 157.184 248.537 157.797C249.893 158.411 254.087 160.103 256.401 160.103C258.715 160.103 268.657 159.414 268.657 159.414L387.2 158.883L424.37 159.203C424.37 159.203 424.255 158.481 424.248 158.008L424.261 158.014Z" fill="#B3E1EB"/>
<path d="M312.206 100.943C312.206 100.943 303.946 108.379 310.198 114.864C310.198 114.864 319.622 112.832 321.527 121.98C321.527 121.98 333.943 124.229 326.782 136.82C326.782 136.82 324.973 138.552 323.976 135.108C322.979 131.665 322.231 129.793 318.439 130.01C314.648 130.227 319.699 123.513 311.477 123.884C303.255 124.254 305.934 125.934 305.108 126.164C303.841 125.922 302.307 125.381 301.502 123.884C298.967 117.963 300.024 104.303 312.219 100.95L312.206 100.943Z" fill="#B3E1EB"/>
<path d="M280.81 131.062C280.587 132.748 280.618 137.373 287.421 138.817C287.421 138.817 295.393 135.47 299.804 137.009C299.804 137.009 300.738 137.041 301.192 137.373C301.646 137.706 294.728 141.238 295.937 147.001C295.937 147.001 295.022 145.985 292.823 146.636C290.624 147.288 286.238 140.753 284.307 140.146C282.377 139.539 277.901 139.092 277.997 139.028C278.093 138.964 276.361 131.132 280.925 127.51V129.465C280.925 130.001 280.887 130.531 280.817 131.062H280.81Z" fill="#B3E1EB"/>
<path d="M411.385 138.69C409.179 137.814 405.778 136.332 405.919 133.521C405.919 133.4 405.932 133.138 405.855 133.01C405.126 131.675 403.956 130.589 403.483 129.12C402.754 127.114 402.435 124.872 402.921 122.77C403.732 118.285 402.837 113.373 399.769 109.885C395.185 104.352 387.174 103.356 380.749 106.039L381.74 106.563C379.758 97.5039 371.862 92.8788 362.944 93.4984C354.447 93.7987 347.447 100.494 346.648 108.926C346.641 109.405 346.609 109.731 346.916 110.217L347.626 108.843C344.551 108.869 341.002 109.073 338.873 111.622L340.337 111.897C339.628 109.616 338.458 107.712 337.007 105.892C331.924 99.8612 324.291 98.2897 316.753 99.1266C305.667 100.098 299.875 108.141 300.156 118.918C300.182 120.189 300.258 121.441 300.469 122.712L300.859 122.278C298.213 122.227 295.342 122.514 293.239 124.284C292.548 124.904 292.05 125.734 291.813 126.641L292.28 126.418C288.584 124.872 283.591 124.035 280.491 127.184C277.556 130.257 276.974 134.799 277.563 138.856L277.812 138.479C276.258 138.843 274.807 139.437 273.484 140.319C272.154 141.213 271.029 142.497 270.594 144.075L271.01 143.826C269.264 143.5 267.206 143.232 265.774 144.516L266.132 144.413C263.498 143.704 259.885 144.241 259.642 147.557L260.205 147.199C257.788 146.387 255.276 145.953 252.725 146.311C250.078 146.566 247.975 148.534 246.677 150.776C244.983 153.402 245.782 155.874 247.821 158.065C249.803 160.039 252.508 160.276 255.059 160.633C258.767 161.055 262.494 160.71 266.183 160.563C272.301 160.487 278.426 160.717 284.55 160.953C317.987 161.1 354.217 160.717 387.711 160.589C397.544 160.889 407.37 161.113 417.209 161.157C423.385 161.087 429.587 161.323 435.743 160.423C442.654 159.139 440.743 150.885 435.456 148.604C433.09 147.742 430.526 147.333 428.001 147.486C426.735 147.582 425.469 147.902 424.325 148.489L424.83 148.745C424.056 145.385 422.867 141.411 419.549 139.756C416.922 139.022 414.102 138.843 411.392 138.69H411.385ZM411.353 138.881C414.064 139.111 416.781 139.36 419.377 140.146C422.452 141.781 423.475 145.678 424.127 148.866L424.21 149.333L424.632 149.128C427.605 147.703 431.159 148.31 434.247 149.186C438.786 150.399 441.798 158.219 435.468 159.209C424.562 160.225 413.469 159.445 402.486 159.266C397.576 159.113 392.672 158.928 387.769 158.717C383.543 158.647 377.309 158.691 373.013 158.717C346.283 158.679 296.717 159.49 269.833 159.03C267.385 159.03 264.847 159.094 262.424 159.317C260.007 159.484 257.571 159.528 255.167 159.324C252.962 159.094 250.315 158.806 248.71 157.286C247.937 156.392 247.169 155.446 246.926 154.424C246.46 152.252 248.269 150.061 249.752 148.585C252.597 146.381 256.65 147.007 259.905 147.991L260.384 148.144L260.467 147.633C260.633 144.842 263.779 144.592 265.933 145.11L266.144 145.155L266.291 145.008C267.532 143.902 269.629 144.247 271.163 144.56L271.259 144.241C272.135 141.213 275.383 139.686 278.234 139.028C277.428 134.39 278.355 127.919 283.329 126.053C286.302 125.121 289.569 125.945 292.344 127.165C292.842 124.405 295.77 123.332 298.277 123.089C299.268 122.974 300.278 122.961 301.256 123.032L301.185 122.572C299.658 111.29 304.561 101.228 316.868 100.404C323.523 99.7782 330.479 101.126 335.153 106.25C337.16 108.358 338.503 111.092 339.199 113.871L340.197 112.587C340.868 111.718 342.14 111.169 343.451 110.894C344.762 110.6 346.2 110.498 347.536 110.536L348.246 109.163C348.329 109.227 348.361 109.405 348.348 109.335C348.348 109.316 348.342 109.316 348.342 109.265C348.757 103.796 352.414 98.5261 357.484 96.3732C362.733 94.2587 369.235 94.5653 374.074 97.587C377.226 99.6696 379.521 103.145 380.346 106.793L380.538 107.642L381.331 107.31C390.882 103.132 401.987 108.37 402.326 119.397C402.371 120.911 402.211 122.399 401.942 123.894C401.885 126.865 402.716 129.969 404.723 132.218C405.062 132.646 405.491 133.074 405.446 133.464C405.356 136.581 408.873 138 411.347 138.875L411.353 138.881Z" fill="#324C76"/>
<path d="M345.208 132.306C353.196 130.5 357.016 138.071 357.016 138.557C355.603 136.892 353.017 134.394 348.074 134.39C343.131 134.386 338.073 137.051 336.821 139.113C337.007 137.238 338.818 133.751 345.208 132.306Z" fill="white"/>
<path d="M346.462 109.079C346.961 111.865 348.406 114.337 350.381 116.055C348.885 113.915 348.207 111.347 348.38 108.958L346.468 109.079H346.462Z" fill="#324C76"/>
<path d="M338.745 112.197C339.89 115.244 339.206 119.173 336.725 121.831C339.628 119.646 341.303 115.659 340.6 111.705L338.745 112.197Z" fill="#324C76"/>
<path d="M323.677 145.736C322.801 144.656 321.529 143.947 320.333 143.302C319.131 142.644 317.897 142.012 316.567 141.513C313.205 140.063 309.337 140.842 306.095 142.229C304.018 142.9 301.767 144.216 300.917 146.349C299.677 148.898 298.328 151.607 298.635 154.584L299.702 153.804C297.867 153.127 297.581 152.596 295.554 152.187C294.052 151.938 290.707 151.517 289.447 152.546C289.045 152.884 288.744 153.338 288.648 153.83C289.045 152.929 290.023 152.469 290.95 152.425C293.75 152.393 296.589 154.143 299.108 155.242L300.226 155.766L300.175 154.462C300.079 152.003 301.39 149.607 302.586 147.205C303.698 144.714 306.326 144.19 308.646 143.206C312.578 141.481 316.209 142.427 320.026 143.96C321.305 144.439 322.59 144.867 323.67 145.736H323.677Z" fill="#324C76"/>
<path d="M301.249 122.981C301.249 122.981 301.473 125.197 305.367 126.175C305.367 126.175 301.671 126.188 300.655 122.872C299.638 119.557 301.249 122.987 301.249 122.987V122.981Z" fill="#324C76"/>
<path d="M292.344 126.603C292.376 126.603 294.428 127.235 294.632 130.755C294.632 130.755 294.21 127.88 292.12 127.063L292.344 126.596V126.603Z" fill="#324C76"/>
<path d="M278.08 138.711C278.08 138.711 284.064 139.012 285.477 140.737C285.477 140.737 280.082 138.788 277.396 139.107L278.08 138.718V138.711Z" fill="#324C76" stroke="#324C76" stroke-width="1.04" stroke-miterlimit="10"/>
<path d="M305.039 143.883C313.178 140.292 320.4 143.584 322.993 145.678C305.996 140.172 300.849 150.766 300.4 156.75C297.647 151.963 302.345 146.177 305.039 143.883Z" fill="white"/>
<path d="M367.937 132.747C376.969 137.753 372.846 144.723 372.649 145.509C367.937 134.523 362.277 134.379 355.089 132.375C356.659 130.477 360.712 128.742 367.937 132.747Z" fill="white"/>
<path d="M356.928 139.309C357.42 138.179 356.493 137.01 356.052 136.013C353.13 129.682 345.511 128.564 340.294 132.723C338.415 134.192 337.604 136.835 336.613 138.905C339.682 135.864 342.991 132.333 347.389 132.269C350.688 132.091 353.335 133.988 355.278 136.537C355.815 137.291 357.049 138.262 356.928 139.309Z" fill="#324C76"/>
<path d="M372.476 145.084C375.008 143.941 374.816 140.268 374.234 137.974C372.86 132.691 367.342 129.094 361.991 129.644C359.376 129.835 356.851 130.826 354.92 132.448C357.26 131.522 359.664 131.056 362.023 131.139C366.735 131.247 371.082 134.071 372.821 138.447C373.537 140.478 374.317 143.417 372.476 145.084Z" fill="#324C76"/>
</g>
<g clip-path="url(#clip1_1996_4571)">
<path d="M127.672 160.969C127.672 160.969 121.528 159.078 121.988 155.609C122.148 154.434 118.606 153.099 118.606 146.238C118.606 145.637 121.266 136.7 113.894 130.663C106.523 124.626 97.3423 128.855 97.3423 128.855C97.3423 128.855 95.207 116.181 80.3875 116.423C65.5681 116.666 63.241 131.072 63.8739 131.877C63.8739 131.877 57.794 131.589 55.8249 134.292C55.8249 134.292 52.0337 119.803 32.7006 121.975C13.3676 124.147 17.114 144.826 17.114 144.826C17.114 144.826 9.49973 144.308 8.41289 148.895C8.41289 148.895 0.798584 145.324 -3.18439 149.707C-6.70703 153.578 -6.08051 159.404 -5.88872 160.707C-5.86314 160.88 -5.84396 160.969 -5.84396 160.969C-5.84396 160.969 -11.7065 162.177 -12.7934 166.342C-12.7934 166.342 -16.2968 165.499 -17.6842 166.942C-17.6842 166.942 -23.2654 165.479 -23.6618 169.779C-23.6618 169.779 -31.4551 166.917 -35.0353 171.108C-38.6155 175.298 -37.7077 177.202 -35.47 179.828C-33.2324 182.453 -25.2921 182.575 -20.0368 182.121C-14.7816 181.667 1.85985 182.325 1.85985 182.325L102.956 181.789C102.956 181.789 145.726 183.482 152.222 181.942C158.717 180.403 155.815 172.347 150.649 170.897C145.483 169.447 142.587 170.079 140.771 170.986C140.771 170.986 139.41 162.694 134.883 161.864C130.357 161.033 127.665 160.969 127.665 160.969H127.672Z" fill="white"/>
<path d="M127.678 160.963C125.364 160.1 121.879 158.631 122.007 155.68C122.046 155.098 121.573 154.67 121.253 154.236C120.55 153.38 119.942 152.434 119.533 151.406C117.551 147.183 120.006 142.628 118.696 138.271C118.203 136.106 117.155 134.074 115.697 132.4C111.26 127.105 103.39 126.191 97.3807 128.849C96.1404 122.888 91.2816 118.008 85.2911 116.838C81.3657 116.117 77.1846 116.193 73.4701 117.771C68.3364 119.905 64.7306 124.958 63.8483 130.382C63.7972 130.886 63.6757 131.398 63.8675 131.889L63.8995 131.832C62.4482 131.8 60.997 131.902 59.5777 132.222C58.184 132.541 56.7263 133.09 55.8185 134.259L55.8824 134.272C54.348 129.487 50.5952 125.533 46.0049 123.553C44.6687 122.952 42.9745 122.435 41.5297 122.179C29.5936 120.307 18.6995 124.051 17.0181 137.345C16.7496 139.709 16.6345 142.673 17.1396 144.768C13.9046 144.679 9.41661 145.235 8.38731 148.876C6.041 147.656 2.33936 146.985 -0.46727 147.899C-5.5179 149.79 -6.60475 156.216 -5.86952 160.969C-8.44598 161.397 -12.0325 163.326 -12.8189 166.316L-12.7486 166.271C-13.5861 166.093 -14.4428 165.997 -15.3059 166.035C-16.1498 166.073 -17.064 166.265 -17.6969 166.891C-19.8195 166.24 -23.4956 166.584 -23.6938 169.759L-23.6106 169.708C-27.0246 168.648 -31.2441 167.984 -34.2873 170.315C-35.6235 171.574 -36.819 173.107 -37.3369 174.889C-37.8675 176.78 -36.672 178.55 -35.4636 179.891C-33.6544 181.661 -30.9628 181.916 -28.5718 182.217C-23.6618 182.721 -18.7582 181.904 -13.8418 182.031C-7.69797 181.993 -1.5605 182.396 4.57697 182.383C11.162 182.345 23.6479 182.287 30.3671 182.249C48.575 182.134 78.5335 182.012 96.6902 181.891C104.03 181.744 111.459 182.204 118.792 182.351C123.701 182.472 128.618 182.574 133.528 182.613C139.659 182.568 145.841 182.849 151.934 182.025C158.346 180.926 156.339 173.248 151.582 171.197C148.194 170.009 144.16 169.357 140.791 170.967C140.253 168.099 139.199 164.7 136.788 162.726C136.181 162.228 135.427 161.94 134.659 161.806C132.358 161.397 130.031 161.065 127.691 160.963H127.678ZM127.678 160.976C130.389 161.167 133.151 161.391 135.765 162.145C138.994 163.774 140.03 167.811 140.797 171.005C144.153 169.408 148.162 170.06 151.55 171.248C154.728 172.666 157.394 177.138 155.067 180.281C153.404 182.255 150.604 182.115 148.251 182.344C133.521 182.881 118.779 182.236 104.055 181.77C76.9544 181.763 42.7508 182.076 15.6244 182.185C13.3356 182.178 6.82098 182.249 4.57057 182.242C-1.56691 182.261 -7.70436 181.859 -13.8482 181.897C-19.9537 181.757 -26.1743 183.022 -32.1839 181.476C-34.6069 180.971 -36.5633 179.055 -37.241 176.716C-37.7141 174.551 -36.1861 172.609 -34.8627 171.05C-31.9985 167.99 -27.2036 168.705 -23.5851 169.849C-23.3869 166.751 -20.0688 166.386 -17.633 167C-16.3544 165.824 -14.3533 166.099 -12.7742 166.386L-12.7166 166.399L-12.7038 166.348C-11.8216 163.294 -8.625 161.71 -5.74806 161.007C-6.07411 159.002 -6.04214 156.925 -5.63298 154.926C-4.05385 147.336 1.96214 146.174 8.41928 148.933L8.47682 148.959C8.69418 148.109 9.1481 147.33 9.80661 146.749C11.8205 145.062 14.6654 144.8 17.2035 144.871C16.1295 137.645 17.7534 128.989 24.3192 124.811C27.471 122.767 31.2878 121.981 35.0022 121.866C38.6975 121.643 42.5654 122.134 45.9793 123.629C50.5697 125.603 54.3225 129.577 55.8377 134.362C56.7199 133.173 58.1904 132.611 59.5969 132.292C61.0225 131.966 62.493 131.87 63.9506 131.902C63.8292 131.679 63.8355 131.398 63.8483 131.129C64.4173 125.444 68.1957 120.052 73.5021 117.822C77.2037 116.251 81.3721 116.168 85.2847 116.883C91.2496 118.046 96.1084 122.907 97.3423 128.849C103.55 126.325 111.113 127.034 115.678 132.413C118.683 135.761 119.571 140.52 118.843 144.877C118.593 145.969 118.574 147.074 118.728 148.186C118.926 150.716 120.109 153.003 121.752 154.9C121.905 155.13 122.026 155.386 121.995 155.667C121.892 158.657 125.325 160.075 127.684 160.963L127.678 160.976Z" fill="#324C76"/>
<path d="M140.413 180.237C140.413 179.821 142.632 168.112 128.132 165.933C128.132 165.933 124.756 165.793 116.343 167.256C107.929 168.718 107.469 154.153 107.469 154.153C107.469 154.153 101.133 164.362 106.293 169.191C106.293 169.191 103.358 169.971 101.907 172.181C100.456 174.391 101.306 172.181 101.306 172.181C101.306 172.181 95.5458 167.741 92.004 168.022C92.004 168.022 101.792 153.38 86.9278 145.05C72.0636 136.719 66.5079 152.051 66.5079 152.051C66.5079 152.051 55.876 150.173 52.7945 161.404C52.7945 161.404 41.7982 162.554 40.2894 167.805C40.2894 167.805 30.2393 159.538 19.9207 166.776C19.9207 166.776 14.8892 171.817 14.3458 175.286C14.3458 175.286 11.8396 173.81 10.1774 174.589C10.1774 174.589 11.162 174.947 9.39105 174.455C7.62013 173.963 7.02771 174.136 5.76186 174.589C4.496 175.043 7.44112 167.69 0.0314026 166.796C-7.37831 165.901 -12.5376 173.503 -13.356 174.864C-14.1743 176.225 -15.1077 174.232 -15.9516 174.455C-16.7955 174.679 -20.0944 174.41 -21.5009 175.631C-21.5009 175.631 -21.8717 176.557 -22.3512 176.793C-22.3512 176.793 -23.7321 173.248 -28.6741 173.158C-33.616 173.069 -35.4956 174.474 -35.6491 174.902C-35.8025 175.33 -36.6656 179.406 -35.3102 180.019C-33.9549 180.633 -29.7609 182.326 -27.4466 182.326C-25.1322 182.326 -15.1908 181.636 -15.1908 181.636L103.352 181.105L140.522 181.425C140.522 181.425 140.407 180.703 140.401 180.23L140.413 180.237Z" fill="#B3E1EB"/>
<path d="M28.3583 123.166C28.3583 123.166 20.0983 130.602 26.3509 137.086C26.3509 137.086 35.7745 135.054 37.6796 144.202C37.6796 144.202 50.0952 146.451 42.9348 159.042C42.9348 159.042 41.1256 160.774 40.1282 157.33C39.1309 153.887 38.3829 152.015 34.5917 152.232C30.8005 152.45 35.8512 145.736 27.6295 146.106C19.4079 146.477 22.0863 148.156 21.2602 148.386C19.9938 148.144 18.4597 147.603 17.6549 146.106C15.1192 140.185 16.1764 126.525 28.3711 123.172L28.3583 123.166Z" fill="#B3E1EB"/>
<path d="M-3.03734 153.284C-3.2611 154.97 -3.22914 159.596 3.57323 161.039C3.57323 161.039 11.5455 157.692 15.9569 159.231C15.9569 159.231 16.8903 159.263 17.3442 159.596C17.7981 159.928 10.8807 163.46 12.089 169.223C12.089 169.223 11.1747 168.207 8.97548 168.859C6.77622 169.51 2.39049 162.975 0.459743 162.368C-1.471 161.761 -5.94625 161.314 -5.85035 161.25C-5.75446 161.186 -7.48701 153.354 -2.92227 149.732V151.687C-2.92227 152.223 -2.96062 152.754 -3.03095 153.284H-3.03734Z" fill="#B3E1EB"/>
<path d="M127.537 160.912C125.332 160.037 121.931 158.554 122.071 155.744C122.071 155.622 122.084 155.36 122.007 155.232C121.279 153.897 120.109 152.811 119.635 151.342C118.907 149.336 118.587 147.094 119.073 144.992C119.885 140.507 118.99 135.595 115.921 132.107C111.337 126.574 103.326 125.578 96.9013 128.261L97.8922 128.785C95.9103 119.726 88.0147 115.101 79.0962 115.721C70.5996 116.021 63.5991 122.716 62.7999 131.148C62.7935 131.628 62.7616 131.953 63.0684 132.439L63.7781 131.065C60.7029 131.091 57.1547 131.295 55.0258 133.844L56.4898 134.119C55.7802 131.838 54.6102 129.935 53.159 128.114C48.0764 122.083 40.4429 120.512 32.9053 121.349C21.8195 122.32 16.0273 130.363 16.3085 141.14C16.3341 142.411 16.4108 143.663 16.6218 144.934L17.0118 144.5C14.365 144.449 11.4945 144.736 9.39111 146.506C8.70065 147.126 8.20197 147.956 7.96542 148.863L8.43213 148.64C4.73686 147.094 -0.256226 146.257 -3.35693 149.406C-6.29141 152.479 -6.8732 157.021 -6.28502 161.078L-6.03569 160.701C-7.58923 161.065 -9.04048 161.659 -10.3639 162.541C-11.6937 163.435 -12.8189 164.719 -13.2536 166.297L-12.8381 166.048C-14.5834 165.722 -16.642 165.454 -18.0741 166.738L-17.7161 166.636C-20.3501 165.927 -23.9622 166.463 -24.2052 169.779L-23.6426 169.421C-26.0592 168.61 -28.5717 168.175 -31.1226 168.533C-33.7694 168.789 -35.8728 170.756 -37.1706 172.998C-38.8648 175.624 -38.0656 178.096 -36.0262 180.288C-34.0443 182.262 -31.34 182.498 -28.7891 182.856C-25.081 183.277 -21.3538 182.932 -17.6649 182.785C-11.5466 182.709 -5.42194 182.939 0.702744 183.175C34.1392 183.322 70.3695 182.939 103.863 182.811C113.696 183.111 123.523 183.335 133.362 183.379C139.538 183.309 145.739 183.546 151.896 182.645C158.807 181.361 156.895 173.107 151.608 170.826C149.242 169.964 146.679 169.555 144.153 169.708C142.888 169.804 141.622 170.124 140.477 170.711L140.982 170.967C140.209 167.607 139.02 163.633 135.702 161.979C133.074 161.244 130.255 161.065 127.544 160.912H127.537ZM127.506 161.103C130.216 161.333 132.933 161.582 135.529 162.368C138.604 164.004 139.627 167.901 140.279 171.088L140.362 171.555L140.784 171.35C143.757 169.926 147.312 170.533 150.4 171.408C154.939 172.622 157.95 180.441 151.621 181.431C140.714 182.447 129.622 181.667 118.638 181.489C113.728 181.335 108.825 181.15 103.921 180.939C99.6951 180.869 93.4617 180.914 89.1655 180.939C62.4355 180.901 12.869 181.712 -14.0144 181.252C-16.463 181.252 -19.0011 181.316 -21.4241 181.54C-23.8408 181.706 -26.2766 181.75 -28.6804 181.546C-30.8861 181.316 -33.5329 181.029 -35.1375 179.508C-35.9111 178.614 -36.6783 177.668 -36.9213 176.646C-37.388 174.474 -35.5787 172.283 -34.0955 170.807C-31.2505 168.603 -27.1972 169.229 -23.9431 170.213L-23.4636 170.366L-23.3804 169.855C-23.2142 167.064 -20.0688 166.815 -17.9142 167.332L-17.7033 167.377L-17.5562 167.23C-16.3159 166.125 -14.219 166.47 -12.6846 166.783L-12.5887 166.463C-11.7128 163.435 -8.4651 161.908 -5.61374 161.25C-6.41928 156.612 -5.49226 150.141 -0.518356 148.276C2.45448 147.343 5.72141 148.167 8.49605 149.387C8.99472 146.627 11.9228 145.554 14.4289 145.311C15.4199 145.196 16.43 145.184 17.4082 145.254L17.3378 144.794C15.8099 133.512 20.7135 123.45 33.0204 122.626C39.6757 122 46.6315 123.348 51.3049 128.472C53.3124 130.58 54.655 133.314 55.3518 136.093L56.3492 134.809C57.0205 133.94 58.2927 133.391 59.6033 133.116C60.9139 132.822 62.3524 132.72 63.6886 132.758L64.3982 131.385C64.4813 131.449 64.5133 131.628 64.5005 131.557C64.5005 131.538 64.4941 131.538 64.4941 131.487C64.9097 126.019 68.5666 120.748 73.6364 118.595C78.8852 116.481 85.3871 116.787 90.2268 119.809C93.3786 121.892 95.6738 125.367 96.4985 129.015L96.6903 129.864L97.483 129.532C107.034 125.354 118.139 130.593 118.478 141.619C118.523 143.133 118.363 144.621 118.095 146.116C118.037 149.087 118.868 152.192 120.876 154.44C121.215 154.868 121.643 155.296 121.598 155.686C121.509 158.804 125.025 160.222 127.499 161.097L127.506 161.103Z" fill="#324C76"/>
<path d="M61.3607 154.528C69.3483 152.722 73.1684 160.293 73.1682 160.779C71.755 159.114 69.1689 156.616 64.2259 156.612C59.283 156.608 54.2251 159.273 52.9738 161.335C53.159 159.46 54.9705 155.973 61.3607 154.528Z" fill="white"/>
<path d="M140.119 174.059C141.897 171.964 141.155 168.999 139.927 166.815C139.109 165.134 137.85 163.192 136.002 162.375C132.978 161.212 129.596 160.778 126.444 161.685C123.951 162.554 121.969 164.132 120.268 165.914C122.442 164.777 124.622 163.633 126.841 163.141C128.503 162.816 130.261 162.988 131.949 163.275C135.318 163.678 136.846 164.63 138.636 167.556C139.972 169.453 141.072 171.689 140.126 174.059H140.119Z" fill="#324C76"/>
<path d="M121.787 156.426C121.436 153.283 119.378 152.089 116.718 151.022C112.262 149.291 106.342 150.754 104.162 155.283C102.641 158.216 101.976 166.61 105.613 168.105C101.958 164.892 104.611 155.486 108.465 153.367C112.629 150.77 119.332 152.202 121.787 156.426Z" fill="#324C76"/>
<path d="M96.6199 129.455C97.5149 133.084 96.5751 137.383 93.7877 140.073C95.4052 138.917 96.6007 137.179 97.3487 135.288C98.0967 133.391 98.4292 131.289 98.1798 129.168L96.6199 129.455Z" fill="#324C76"/>
<path d="M62.6145 131.302C63.1131 134.087 64.558 136.559 66.5335 138.278C65.0375 136.138 64.3598 133.569 64.5324 131.18L62.6208 131.302H62.6145Z" fill="#324C76"/>
<path d="M54.8978 134.419C56.0422 137.466 55.3582 141.395 52.8776 144.053C55.7801 141.868 57.4551 137.882 56.7519 133.927L54.8978 134.419Z" fill="#324C76"/>
<path d="M39.8291 167.958C38.9532 166.878 37.6809 166.169 36.4854 165.524C35.2835 164.866 34.0496 164.234 32.7198 163.735C29.357 162.285 25.4891 163.065 22.2478 164.451C20.17 165.122 17.9196 166.438 17.0693 168.571C15.829 171.12 14.48 173.829 14.7869 176.806L15.8546 176.027C14.0197 175.349 13.7334 174.818 11.7068 174.409C10.2044 174.16 6.85933 173.74 5.59987 174.768C5.19709 175.107 4.89661 175.56 4.80072 176.052C5.19709 175.151 6.17526 174.691 7.10227 174.647C9.90249 174.615 12.7411 176.365 15.26 177.464L16.3788 177.988L16.3277 176.685C16.2318 174.225 17.5424 171.829 18.7379 169.427C19.8503 166.936 22.4779 166.412 24.7986 165.428C28.7305 163.703 32.3618 164.649 36.1785 166.182C37.4572 166.661 38.7422 167.089 39.8227 167.958H39.8291Z" fill="#324C76"/>
<path d="M17.4017 145.203C17.4017 145.203 17.6255 147.42 21.5189 148.397C21.5189 148.397 17.8236 148.41 16.8071 145.094C15.7906 141.779 17.4017 145.209 17.4017 145.209V145.203Z" fill="#324C76"/>
<path d="M8.49599 148.825C8.52796 148.825 10.5802 149.457 10.7848 152.977C10.7848 152.977 10.3628 150.102 8.27224 149.285L8.49599 148.818V148.825Z" fill="#324C76"/>
<path d="M-5.76718 160.934C-5.76718 160.934 0.216863 161.234 1.62976 162.959C1.62976 162.959 -3.7661 161.01 -6.45125 161.33L-5.76718 160.94V160.934Z" fill="#324C76" stroke="#324C76" stroke-width="1.04" stroke-miterlimit="10"/>
<path d="M21.191 166.105C29.3304 162.514 36.5522 165.806 39.1456 167.901C22.1484 162.394 17.0014 172.988 16.5526 178.973C13.7996 174.185 18.4977 168.399 21.191 166.105Z" fill="white"/>
<path d="M84.0897 154.969C93.121 159.976 88.9982 166.945 88.8017 167.731C84.0897 156.745 78.4293 156.601 71.241 154.597C72.8117 152.7 76.8646 150.964 84.0897 154.969Z" fill="white"/>
<path d="M73.0801 161.532C73.5724 160.401 72.6454 159.232 72.2042 158.235C69.2825 151.904 61.6635 150.786 56.4467 154.945C54.5671 156.414 53.7564 159.057 52.7654 161.127C55.8342 158.086 59.1429 154.555 63.5414 154.492C66.8403 154.313 69.4871 156.21 71.4307 158.759C71.9677 159.513 73.2016 160.484 73.0801 161.532Z" fill="#324C76"/>
<path d="M88.6284 167.306C91.1601 166.163 90.9683 162.49 90.3865 160.196C89.012 154.913 83.4946 151.316 78.1435 151.866C75.5287 152.058 73.0034 153.048 71.0726 154.67C73.4126 153.744 75.8164 153.278 78.1755 153.361C82.8873 153.469 87.2347 156.293 88.9736 160.669C89.6896 162.701 90.4696 165.639 88.6284 167.306Z" fill="#324C76"/>
</g>
<path d="M66.1035 23.068C68.4365 21.1067 72.3486 20.056 75.2558 20.056C80.5677 20.056 83.8338 23.6284 83.8338 30.9483C83.8338 38.2682 80.2447 45.3429 80.2447 51.0867C80.2447 54.7291 82.5058 58.0563 86.3103 58.0563C94.2064 58.0563 98.2262 44.012 98.2262 36.6921C98.2262 32.8746 97.1495 25.4846 92.8067 23.033C95.1396 21.0717 97.975 20.021 100.882 20.021C106.445 20.021 109.46 24.0137 108.778 31.2285C108.455 34.8709 104.471 45.2378 101.241 50.8415C96.9342 58.5467 91.048 62.7495 82.47 62.7495C75.7942 62.7495 69.7285 59.3522 69.7285 48.7752C69.7285 43.1014 71.4872 38.4433 71.4872 33.8202C71.5231 28.9169 69.4414 24.9593 66.1035 23.068Z" fill="black"/>
<path d="M126.625 62.7491H112.556C111.91 62.7491 111.443 62.1187 111.695 61.5233C116.719 49.4052 116.935 36.7268 111.659 23.3479C111.443 22.7525 111.874 22.1221 112.52 22.1221H126.625C127.271 22.1221 127.738 22.7525 127.487 23.3479C122.139 36.1664 122.139 48.8799 127.487 61.4883C127.738 62.1187 127.271 62.7491 126.625 62.7491Z" fill="black"/>
<path d="M119.412 17.2189C124.17 17.2189 128.026 13.4556 128.026 8.81332C128.026 4.17103 124.17 0.407715 119.412 0.407715C114.655 0.407715 110.799 4.17103 110.799 8.81332C110.799 13.4556 114.655 17.2189 119.412 17.2189Z" fill="black"/>
<path d="M129.948 49.335C129.948 43.0658 134.004 39.1081 138.993 39.1081C140.859 39.1081 142.977 39.7736 144.986 40.9994C141.11 42.9957 138.311 46.463 138.311 51.6465C138.311 57.1802 141.613 60.0521 145.74 60.0521C151.232 60.0521 153.421 55.2539 153.421 50.6308C153.421 44.852 150.98 41.0694 145.453 38.5127C139.531 35.7809 132.496 35.1155 132.353 28.426C132.173 21.9817 138.849 19.355 145.022 19.355C149.509 19.355 153.636 20.6859 157.441 20.6859C159.307 20.6859 162.43 20.3707 164.045 19.355C165.409 20.7559 165.983 22.5071 165.983 24.4684C165.983 29.0915 162.358 32.9791 157.261 32.9791C149.975 32.9791 142.977 24.8186 138.239 24.8186C136.373 24.8186 135.009 26.1495 135.116 28.1108C135.368 32.4887 142.797 33.3993 150.514 35.5358C157.871 37.6021 165.983 40.8943 165.983 49.475C165.983 58.8963 155.933 62.7489 147.535 62.7489C137.377 62.7839 129.948 57.7756 129.948 49.335Z" fill="black"/>
<path d="M183.73 62.7491H169.661C169.015 62.7491 168.548 62.1187 168.799 61.5233C173.824 49.4052 174.039 36.7268 168.763 23.3479C168.548 22.7525 168.979 22.1221 169.625 22.1221H183.73C184.376 22.1221 184.843 22.7525 184.591 23.3479C179.244 36.1664 179.244 48.8799 184.591 61.4883C184.843 62.1187 184.376 62.7491 183.73 62.7491Z" fill="black"/>
<path d="M176.517 17.2189C181.275 17.2189 185.131 13.4556 185.131 8.81332C185.131 4.17103 181.275 0.407715 176.517 0.407715C171.76 0.407715 167.903 4.17103 167.903 8.81332C167.903 13.4556 171.76 17.2189 176.517 17.2189Z" fill="black"/>
<path d="M303.141 25.3663C311.324 33.3517 310.714 47.0108 301.741 55.7666C292.768 64.5224 278.771 65.1178 270.587 57.1325C262.261 49.0071 262.871 35.348 271.844 26.5922C280.816 17.8363 294.85 17.2409 303.141 25.3663ZM286.559 59.5141C292.876 59.3039 297.47 52.0191 297.578 40.9167C297.757 29.7443 293.522 22.4594 287.241 22.6345C280.924 22.7396 276.509 30.1645 276.151 41.2669C275.863 52.3343 280.278 59.7943 286.559 59.5141Z" fill="black"/>
<path d="M262.786 59.7721C260.453 61.7334 256.469 62.7491 253.633 62.7491C248.322 62.7491 245.091 59.1767 245.091 51.8919C245.091 44.607 248.573 37.5673 248.573 31.7885C248.573 28.1461 246.419 24.8188 242.507 24.8188C233.642 24.8188 229.981 42.4706 229.981 49.125C229.981 53.9232 231.991 57.8809 235.365 59.7371C233.032 61.6984 229.084 62.7141 226.248 62.7141C220.936 62.7141 217.67 59.1417 217.67 51.8568C217.67 43.8015 221.941 36.0263 221.044 29.9673C220.613 27.1654 218.316 24.8539 215.445 24.7838C212.574 24.7138 210.097 26.57 208.159 29.2668C208.123 29.3018 208.123 29.3368 208.087 29.3719C205.144 33.6797 203.493 40.2291 202.847 45.0973C202.668 46.6734 202.56 48.0743 202.56 49.1601C202.56 53.9232 204.57 57.9159 207.98 59.7721C206.759 60.7878 202.74 62.7491 198.827 62.7491C196.746 62.7491 194.951 62.1887 193.551 61.068C191.47 59.3869 190.249 56.3398 190.249 51.9269C190.249 44.572 193.803 37.4272 193.731 31.6484C193.731 30.4576 193.372 29.2668 192.546 28.3562C191.721 27.4456 190.644 27.0253 189.28 27.0253C188.598 27.0253 187.881 27.2004 187.055 27.3405C187.127 25.5893 187.809 24.0133 188.85 22.7875C189.962 21.4916 191.506 20.581 193.3 20.2308C193.803 20.1257 194.341 20.0557 194.915 20.0557C198.253 20.0557 200.766 22.017 202.165 25.3092C202.991 27.2354 203.386 29.582 203.314 32.2788C204.032 30.8078 204.749 29.3719 205.575 28.076C205.611 28.006 205.683 27.9359 205.719 27.8659C206.006 27.3755 206.365 26.8852 206.688 26.4299C206.831 26.2198 207.011 25.9746 207.19 25.7645C207.298 25.5893 207.441 25.4493 207.585 25.3092C207.764 25.064 207.98 24.8539 208.159 24.6437C210.743 21.8419 214.117 20.0557 218.998 20.0557C224.884 20.0557 230.304 22.7174 231.453 30.6677C234.611 24.6787 238.487 20.0557 246.383 20.0557C253.023 20.0557 259.089 23.3829 259.089 33.9949C259.089 39.5987 257.366 44.2918 257.366 48.9149C257.402 53.9232 259.376 57.8809 262.786 59.7721Z" fill="black"/>
<path d="M14.5461 385.709C21.427 390.457 37.7132 400.264 47.9976 401.649C48.0619 401.705 48.1017 401.712 48.1136 401.664C48.075 401.659 48.0363 401.654 47.9976 401.649C46.9394 400.731 39.2393 386.591 39.8253 384.052C40.0324 384.052 64.0389 396.055 76.2711 396.897C76.2925 396.911 76.3004 396.912 76.2937 396.899C76.2862 396.898 76.2786 396.898 76.2711 396.897C75.6247 396.473 62.6093 383.968 60.7639 379.931C61.3386 380.352 82.0276 381.093 89.3477 378.043C88.726 378.457 53.0863 353.592 46.4558 343.854C49.633 344.337 56.7333 345.014 59.7171 343.854C60.7532 343.854 44.7982 335.358 42.9333 331.628C43.3474 331.421 56.5859 334.11 63.4289 332.875C63.4459 332.883 63.452 332.882 63.4468 332.872C63.4408 332.873 63.4349 332.874 63.4289 332.875C62.7757 332.56 46.0619 318.717 42.9605 313.03C43.6731 313.75 58.2214 316.631 67.1194 314.033C67.1472 314.035 67.1663 314.03 67.1765 314.016C67.1575 314.022 67.1385 314.027 67.1194 314.033C65.4503 313.894 32.5323 285.496 30.0865 277.548C29.6721 276.926 43.5549 282.106 51.0144 278.998C50.6 278.998 25.9424 254.962 23.2487 244.602C23.0829 244.602 27.7382 245.292 30.0865 245.638L20.3478 230.304L31.5369 232.791C26.8402 225.884 17.1567 210.495 15.9964 204.196C15.7892 203.782 22.8343 208.133 25.7352 207.719C21.5719 200.416 13.0923 184.845 12.0922 180.319C12.425 180.816 14.7533 181.507 15.9964 181.818L12.0595 165.242C9.22769 177.467 2.48656 203.078 -1.82333 207.719C-1.4918 207.719 2.87335 205.371 5.01449 204.196C1.07756 212.623 -7.58368 230.139 -10.7332 232.791C-10.2359 232.791 -3.34285 231.133 0.0415268 230.304C-3.89539 243.151 -14.2557 270.585 -24.2017 277.548C-23.8701 277.548 -16.3278 276.166 -12.5981 275.476C-19.4742 289.092 -35.1412 316.894 -43.5257 320.703C-43.7603 320.787 -43.8863 320.839 -43.8863 320.854C-43.7677 320.809 -43.6475 320.759 -43.5257 320.703C-41.22 319.883 -28.4232 316.022 -21.7152 314.016L-41.3998 337.223C-36.7722 337.154 -26.5638 336.602 -22.7512 334.944C-21.7152 334.737 -47.2016 370.376 -68.3367 378.043C-67.7151 378.043 -50.9313 379.907 -43.8863 378.043C-46.0965 382.394 -50.8899 391.677 -52.3818 393.998C-43.3337 394.136 -22.7098 392.671 -12.5981 385.709L-10.7332 400.214C-4.24068 397.313 9.90473 390.351 14.5461 385.709Z" fill="url(#paint0_linear_1996_4571)"/>
<path d="M318.462 386.843L320.854 330.391C320.854 330.391 306.196 344.503 305.784 344.265C305.372 344.026 305.784 338.285 305.784 338.285C301.877 342.909 293.441 351.584 290.953 349.288C288.466 346.992 288.801 344.982 289.279 344.265C288.003 345.939 284.878 348.905 282.581 347.374C280.285 345.843 280.668 343.547 281.146 342.59C277.957 343.467 271.578 344.695 271.578 342.59C271.578 339.959 296.215 331.348 299.086 328.238C301.956 325.129 293.345 327.76 293.345 325.607C293.345 323.454 309.624 319.501 311.764 318.431C320.854 313.886 320.854 312.917 320.854 304.838V300.239C320.854 299.119 307.231 304.228 307.231 304.228L306.011 302.778L320.854 297.288V268.664L289.279 284.463L285.016 281.34L320.854 265.083V254.324C320.854 240.585 299.722 248.913 301.667 243.095C308.847 238.905 314.094 240.069 315.242 235.285C306.091 237.948 286.333 241.589 286.417 237.702C286.502 233.815 295.677 232.807 297.296 231.751C292.684 232.561 265.155 233.184 264.986 231.24C264.774 228.81 285.93 224.169 285.93 222.373C285.93 220.577 280.051 220.712 279.523 218.916C278.995 217.12 311.488 212.274 310.854 212.274L310.814 212.274C309.733 212.275 294.143 212.285 293.415 210.621C292.676 208.931 320.854 205.312 320.854 203.026C320.854 201.862 320.942 198.982 321.019 195.723L305.718 198.958L304.762 197.524L321.112 192.487C321.168 188.454 321.14 183.302 320.854 182.394C320.22 180.387 298.942 186.678 298.316 183.192C300.79 181.33 301.88 181.578 304.258 177.808H290.314C289.735 175.661 300.653 173.182 308.776 169.337C316.499 165.68 321.435 160.615 321.476 159.956C321.7 156.37 321.548 152.62 321.216 149.055L312.144 151.193L318.527 143.9L308.776 146.322L317.039 140.097L306.471 141.352C312.633 136.951 319.477 126.916 320.237 122.86C320.66 123.811 326.751 134.262 335.635 138.251C339.595 140.028 326.37 139.049 325.067 139.049L337.981 143.9C334.588 145.922 327.506 143.037 327.506 143.037L332.47 146.87C331.411 148.184 325.067 146.067 325.067 146.067C325.067 146.067 325.301 148.23 325.301 149.582C328.14 152.502 335.36 156.45 335.36 156.45C330.709 156.963 325.067 153.502 325.067 153.502V159.956C333.553 164.146 341.875 172.261 349.891 175.167C348.665 175.532 337.678 176.201 335.283 175.532C338.158 181.528 349.891 184.898 353.098 187.004C352.084 189.117 334.046 185.586 325.796 181.951L326.155 196.77C332.669 200.714 358.426 204.111 357.919 205.378C357.412 206.646 348.422 205.086 347.673 206.358C352.282 213.197 368.222 215.554 369.668 216.611C369.668 220.234 365.431 220.864 362.051 220.511C365.854 222.765 375.1 225.364 373.664 226.717C372.227 228.069 349.891 231.628 342.074 231.24C344.997 233.003 352.399 237.317 350.793 238.24C349.05 239.243 368.065 246.267 371.717 246.923C371.874 246.863 372.033 246.802 372.193 246.739C372.471 246.975 372.27 247.022 371.717 246.923C360.683 251.105 357.931 246.544 357.919 248.899C366.681 253.966 381 258.263 381 261.355C381 261.355 373.809 261.985 372.193 262.011C370.577 262.037 339.68 254.324 339.68 254.324C339.68 254.324 347.673 261.355 345.958 262.011C344.243 262.667 330.877 256.389 330.877 256.389L330.789 279.712L359.211 288.938C359.211 289.958 356.778 289.791 356.763 291.554C356.756 292.462 330.838 280.903 330.827 281.971C330.816 283.07 330.789 295.093 330.789 295.093C330.789 295.093 349.299 303.13 356.763 303.318C366.094 303.553 356.341 308.194 351.758 306.256C347.175 304.318 358.335 312.211 369.668 313.886C381 315.56 355.871 318.461 351.758 313.886C352.15 317.232 357.528 322.37 372.193 323.716C373.122 326.777 364.214 329.945 359.984 327.407C356.763 327.29 366.329 335.398 375.494 335.633C378.667 335.515 376.529 339.174 372.193 338.285C367.856 337.395 370.677 342.59 378.432 342.59C382.467 345.202 365.294 349.288 349.399 334.898C350.038 340.329 364.32 344.636 359.984 345.433C354.66 345.993 344.223 343.011 339.77 339.094C341.598 340.92 345.914 345.361 346.722 347.374C339.743 345.433 336.452 343.389 330.696 336.928C330.853 354.459 331.19 369.322 331.828 386.843H318.462Z" fill="url(#paint1_linear_1996_4571)"/>
<path d="M123.131 409.748L124.159 404.011C117.697 401.486 104.234 395.581 102.078 392.162C99.3818 387.889 94.1183 397.796 92.7061 395.659C91.5764 393.95 93.0057 389.637 93.8616 387.695C88.5554 390.155 77.0957 393.911 73.7066 389.249C78.6276 387.242 89.1373 381.246 91.8075 373.321C91.6792 373.515 85.7738 375.263 84.2333 373.321C83.0009 371.767 85.3459 368.529 86.6725 367.105C82.2649 367.817 73.0132 368.309 71.2673 364.58C70.2403 363.22 101.051 347.486 105.415 332.529C106.057 330.198 102.078 331.947 102.078 330.393C102.078 328.839 106.828 324.177 108.625 323.594C108.753 323.011 91.5508 325.148 90.0103 322.428C88.7779 320.253 95.4877 316.342 98.9967 314.659C95.9584 314.723 89.7279 314.387 89.1117 312.522C88.3414 310.191 105.415 302.227 109.652 294.263C109.267 294.457 106.699 295.04 106.057 293.097C105.415 291.155 122.104 282.414 123.131 269.788C123.131 269.205 113.888 275.421 109.652 274.45C106.263 273.673 113.632 266.486 117.74 262.989L111.578 261.824C117.936 256.564 131.173 241.977 133.717 225.389C133.749 225.084 133.774 224.917 133.787 224.917C133.765 225.074 133.741 225.232 133.717 225.389C133.428 228.128 132.516 241.972 133.787 245.118C135.199 248.615 143.415 262.406 151.246 264.349H142.773C144.742 266.809 148.576 272.002 148.165 273.09C147.754 274.178 139.606 271.342 135.584 269.788C136.269 272.766 138.152 278.995 140.206 280.083C142.773 281.442 158.82 291.932 163.057 293.097C162.851 293.097 157.494 293.874 154.84 294.263L160.874 301.061H154.84C159.719 305.594 169.604 315.202 170.117 317.378C170.631 318.737 161.644 317.378 160.874 317.378C160.104 317.378 165.239 323.011 163.057 325.536C161.311 327.556 150.604 324.306 145.469 322.428V326.702C149.32 332.27 158.64 344.145 165.111 347.097C166.523 347.874 157.023 350.205 151.246 343.989C153.599 349.299 161.567 360.85 174.61 364.58C176.664 364.58 162.543 369.63 159.719 367.105C162.372 370.018 169.065 376.273 174.61 377.982L168.577 381.673C173.241 382.774 182.518 385.247 182.313 386.335C182.056 387.695 163.442 392.163 152.53 389.249C149.449 387.695 160.489 396.047 159.719 398.378C159.103 400.243 142.174 399.155 133.787 398.378C136.697 400.062 142.285 403.895 141.361 405.76C140.437 407.624 133.273 406.537 129.807 405.76L132.375 409.748H123.131Z" fill="url(#paint2_linear_1996_4571)"/>
<path d="M251.135 406.841C255.282 410.065 265.713 416.449 274.4 416.32C274.469 416.352 274.513 416.353 274.528 416.318C274.485 416.319 274.443 416.32 274.4 416.32C273.512 415.905 268.478 410.223 268.478 406.841C268.68 406.841 287.838 413.402 298.728 406.841C298.123 406.841 276.545 395.664 272.511 390.318C272.713 390.561 298.123 392.505 306.189 384.972C305.988 384.487 271.822 367.294 268.495 360.466C268.785 360.838 272.752 362.913 275.677 361.701C275.683 361.701 275.686 361.7 275.686 361.697C275.683 361.699 275.68 361.7 275.677 361.701C275.384 361.681 267.767 357.549 266.813 355.107C266.813 355.254 289.055 360.819 294.889 355.107C294.525 355.107 266.813 340.024 263.896 332.848C263.896 333.141 281.034 332.701 286.017 327.283C285.775 327.575 265.282 318.571 260.431 310.976C261.434 311.834 274.696 315.828 279.818 311.76C279.818 311.906 254.781 286.571 252.958 276.906C253.321 277.636 263.097 279.965 264.971 279.112C264.98 279.113 264.987 279.11 264.99 279.103C264.984 279.106 264.977 279.109 264.971 279.112C264.38 279.071 252.823 264.225 251.985 258.747C251.985 258.894 258.913 260.797 261.952 260.797C261.709 260.797 251.256 246.592 250.527 241.906C250.332 241.789 254.416 242.638 256.482 243.078C253.768 239.758 248.193 232.563 247.61 230.337C247.513 230.337 251.135 232.29 252.958 233.266C250.284 226.822 245.033 212.969 245.422 209.103C245.183 209.391 241.879 227.857 239.457 233.874C239.385 233.969 239.345 234.06 239.345 234.144C239.382 234.057 239.42 233.967 239.457 233.874C239.987 233.175 242.265 232.231 243.478 231.801C241.413 240.143 235.829 259.275 230 269.123C229.981 269.131 229.976 269.139 229.987 269.145C229.991 269.137 229.995 269.13 230 269.123C230.392 268.939 237.037 268.185 238.492 266.962C237.342 268.603 232.516 276.43 229.987 280.567L234.97 279.103C231.405 286.767 223.132 303.208 218.562 307.659C219.167 307.076 230.017 306.493 233.588 303.162C232.804 304.399 222.705 331.151 210.54 338.266C210.662 338.266 220.385 340.317 225.976 338.266C222.735 343.636 213.895 355.283 204.463 358.915C204.341 359.208 220.628 364.29 228.528 360.431C228.407 360.431 214.692 375.734 191.752 383.939C191.718 383.935 191.701 383.94 191.701 383.957C191.718 383.951 191.735 383.945 191.752 383.939C192.597 384.049 203.881 390.606 211.597 388.944C210.806 389.156 198.106 393.58 191.701 395.819C195.384 398.257 204.518 402.81 211.614 401.534C211.253 401.71 206.19 405.657 203.612 407.681C209.244 408.95 222.743 409.643 231.688 402.262C231.567 402.702 227.191 412.224 224.882 414.271C225.125 414.564 246.394 412.152 251.135 406.841Z" fill="url(#paint3_linear_1996_4571)"/>
<path d="M50.5786 391.534C46.043 394.789 34.6353 401.235 25.1356 401.105C25.06 401.137 25.0118 401.138 24.9958 401.102C25.0424 401.103 25.089 401.104 25.1356 401.105C26.1072 400.685 31.6121 394.948 31.6121 391.534C31.3916 391.534 10.4403 398.158 -1.46888 391.534C-0.807258 391.534 22.7904 380.247 27.2012 374.85C26.9807 375.095 -0.807313 377.058 -9.62891 369.452C-9.40875 368.962 27.9548 351.601 31.5936 344.707C31.2762 345.083 26.9378 347.178 23.739 345.954C23.7327 345.954 23.7295 345.953 23.7295 345.95C23.7326 345.952 23.7358 345.953 23.739 345.954C24.0597 345.934 32.3895 341.762 33.4323 339.296C33.4323 339.444 9.10875 345.063 2.7288 339.296C3.12754 339.296 33.4323 324.066 36.6223 316.82C36.6223 317.116 17.8812 316.672 12.4316 311.201C12.6964 311.496 35.1071 302.405 40.4118 294.735C39.3148 295.602 24.8119 299.634 19.2103 295.527C19.2103 295.675 46.5909 270.094 48.5847 260.334C48.1874 261.071 37.496 263.423 35.4476 262.562C35.4374 262.562 35.4302 262.559 35.4261 262.552C35.4331 262.556 35.4403 262.559 35.4476 262.562C36.0937 262.52 48.732 247.53 49.648 241.999C49.648 242.146 42.0718 244.069 38.749 244.069C39.0148 244.069 50.4455 229.725 51.243 224.994C51.4557 224.875 46.9897 225.733 44.7302 226.177C47.6986 222.825 53.795 215.56 54.433 213.312C54.5393 213.312 50.5784 215.284 48.5847 216.269C51.5089 209.763 57.2508 195.775 56.8255 191.871C57.0873 192.162 60.7002 210.808 63.3489 216.883C63.4279 216.98 63.4713 217.071 63.4713 217.157C63.4307 217.069 63.3899 216.978 63.3489 216.883C62.7697 216.177 60.2777 215.224 58.9521 214.791C61.21 223.213 67.3167 242.532 73.6916 252.475C73.7116 252.484 73.7168 252.491 73.7058 252.497C73.701 252.49 73.6963 252.483 73.6916 252.475C73.262 252.29 65.9959 251.528 64.4044 250.293C65.6622 251.951 70.9391 259.854 73.7058 264.031L68.2562 262.552C72.1551 270.291 81.2022 286.892 86.1999 291.387C85.538 290.798 73.6726 290.209 69.767 286.845C70.6243 288.094 81.6687 315.107 94.9723 322.291C94.8394 322.291 84.2061 324.362 78.092 322.291C81.6364 327.713 91.3038 339.474 101.618 343.141C101.751 343.437 83.9403 348.568 75.3008 344.672C75.4336 344.672 90.4312 360.123 115.519 368.408C115.556 368.404 115.574 368.41 115.574 368.426C115.556 368.42 115.537 368.414 115.519 368.408C114.594 368.519 102.255 375.14 93.816 373.462C94.6809 373.677 108.57 378.143 115.574 380.404C111.546 382.866 101.557 387.463 93.7983 386.174C94.1925 386.352 99.7294 390.338 102.548 392.381C96.3901 393.663 81.6275 394.363 71.845 386.91C71.9779 387.354 76.7628 396.968 79.2882 399.035C79.0224 399.331 55.7624 396.896 50.5786 391.534Z" fill="url(#paint4_linear_1996_4571)"/>
<path d="M364.926 380.41C356.698 385.718 336.005 396.229 318.773 396.016C318.636 396.069 318.548 396.07 318.519 396.012C318.604 396.014 318.688 396.015 318.773 396.016C320.535 395.333 330.521 385.977 330.521 380.41C330.121 380.41 292.116 391.212 270.513 380.41C271.713 380.41 314.519 362.008 322.52 353.207C322.12 353.607 271.713 356.807 255.711 344.405C256.11 343.607 323.887 315.299 330.488 304.058C329.912 304.671 322.042 308.086 316.24 306.091C316.228 306.092 316.222 306.09 316.222 306.085C316.228 306.087 316.234 306.089 316.24 306.091C316.821 306.058 331.931 299.255 333.823 295.235C333.823 295.477 289.701 304.639 278.128 295.235C278.851 295.235 333.793 270.415 339.605 258.597C339.144 259.059 305.546 258.285 295.728 249.425C296.209 249.905 336.861 235.082 346.484 222.577C344.494 223.991 318.186 230.565 308.025 223.868C308.025 224.109 357.692 182.398 361.309 166.485C360.588 167.686 341.194 171.521 337.479 170.116C337.46 170.117 337.447 170.112 337.44 170.101C337.452 170.106 337.465 170.111 337.479 170.116C338.651 170.049 361.576 145.607 363.238 136.587C363.238 136.829 349.495 139.963 343.467 139.963C343.949 139.963 364.685 116.576 366.131 108.86C366.517 108.667 358.416 110.066 354.317 110.789C359.702 105.324 370.76 93.4777 371.918 89.8129C372.111 89.8129 364.926 93.0277 361.309 94.6351C366.613 84.0264 377.029 61.2177 376.258 54.8525C376.733 55.3274 383.286 85.7294 388.091 95.6362C388.234 95.7932 388.313 95.9428 388.313 96.0817C388.239 95.9382 388.165 95.7897 388.091 95.6362C387.04 94.4848 382.52 92.9312 380.115 92.224C384.211 105.957 395.289 137.457 406.852 153.67C406.889 153.684 406.898 153.696 406.878 153.706C406.87 153.694 406.861 153.682 406.852 153.67C406.073 153.368 392.893 152.126 390.006 150.112C392.287 152.815 401.86 165.701 406.878 172.512L396.993 170.101C404.065 182.719 420.477 209.787 429.542 217.117C428.342 216.157 406.818 215.196 399.733 209.712C401.288 211.748 421.323 255.793 445.455 267.508C445.214 267.508 425.926 270.884 414.835 267.508C421.264 276.349 438.801 295.525 457.51 301.504C457.752 301.986 425.443 310.353 409.771 304C410.012 304 437.218 329.194 482.726 342.704C482.793 342.696 482.827 342.706 482.827 342.733C482.793 342.723 482.76 342.714 482.726 342.704C481.049 342.884 458.666 353.68 443.358 350.944C444.927 351.294 470.122 358.577 482.827 362.263C475.52 366.277 457.4 373.773 443.326 371.672C444.041 371.962 454.085 378.461 459.198 381.792C448.027 383.882 421.248 385.023 403.503 372.872C403.744 373.595 412.424 389.272 417.005 392.642C416.522 393.124 374.329 389.154 364.926 380.41Z" fill="url(#paint5_linear_1996_4571)"/>
<path d="M291.339 381.67C297.272 386.477 311.314 396.405 320.181 397.807C320.236 397.864 320.27 397.871 320.281 397.823C320.247 397.817 320.214 397.812 320.181 397.807C319.268 396.877 312.629 382.563 313.135 379.992C313.313 379.992 334.011 392.144 344.558 392.996C344.576 393.01 344.583 393.011 344.577 392.998C344.571 392.997 344.564 392.997 344.558 392.996C344 392.567 332.779 379.907 331.188 375.821C331.683 376.246 349.521 376.997 355.832 373.909C355.296 374.328 324.568 349.156 318.851 339.297C321.591 339.787 327.712 340.472 330.285 339.297C331.178 339.297 317.422 330.697 315.814 326.921C316.171 326.711 327.585 329.434 333.485 328.183C333.5 328.191 333.505 328.19 333.501 328.18C333.496 328.181 333.49 328.182 333.485 328.183C332.922 327.864 318.512 313.85 315.838 308.093C316.452 308.821 328.995 311.738 336.667 309.108C336.691 309.11 336.708 309.105 336.716 309.091C336.7 309.097 336.684 309.102 336.667 309.108C335.228 308.967 306.847 280.219 304.738 272.172C304.381 271.543 316.35 276.787 322.782 273.64C322.424 273.64 301.165 249.307 298.842 238.819C298.7 238.819 302.713 239.518 304.738 239.868L296.341 224.345L305.988 226.862C301.939 219.87 293.59 204.291 292.59 197.914C292.411 197.495 298.485 201.9 300.986 201.48C297.397 194.087 290.086 178.324 289.224 173.741C289.51 174.245 291.518 174.945 292.59 175.259L289.195 158.478C286.754 170.854 280.942 196.781 277.226 201.48C277.512 201.48 281.275 199.103 283.121 197.914C279.727 206.445 272.259 224.177 269.544 226.862C269.973 226.862 275.916 225.184 278.834 224.345C275.439 237.35 266.507 265.124 257.931 272.172C258.217 272.172 264.72 270.773 267.936 270.074C262.007 283.859 248.5 312.005 241.271 315.861C241.068 315.945 240.96 315.998 240.96 316.013C241.062 315.968 241.166 315.917 241.271 315.861C243.259 315.031 254.292 311.122 260.075 309.091L243.103 332.585C247.093 332.515 255.895 331.956 259.182 330.278C260.075 330.068 238.101 366.147 219.879 373.909C220.415 373.909 234.886 375.797 240.96 373.909C239.054 378.314 234.921 387.712 233.635 390.061C241.436 390.201 259.218 388.718 267.936 381.67L269.544 396.354C275.142 393.417 287.338 386.369 291.339 381.67Z" fill="url(#paint6_linear_1996_4571)"/>
<path d="M94.1404 397.275C88.8459 401.605 75.5294 410.179 64.4401 410.006C64.3518 410.049 64.2956 410.05 64.277 410.002C64.3313 410.004 64.3857 410.005 64.4401 410.006C65.5743 409.448 72.0003 401.817 72.0003 397.275C71.7429 397.275 47.2859 406.086 33.384 397.275C34.1563 397.275 61.7025 382.264 66.8514 375.085C66.594 375.411 34.1562 378.022 23.8585 367.906C24.1155 367.254 67.731 344.163 71.9787 334.993C71.6082 335.493 66.5439 338.28 62.8098 336.652C62.8025 336.653 62.7987 336.651 62.7987 336.647C62.8024 336.649 62.8061 336.65 62.8098 336.652C63.1842 336.625 72.9078 331.076 74.1251 327.797C74.1251 327.993 45.7315 335.467 38.284 327.797C38.7495 327.797 74.1251 307.539 77.8489 297.902C77.8489 298.296 55.9718 297.705 49.6104 290.428C49.9195 290.82 76.0802 278.728 82.2725 268.528C80.9919 269.681 64.0622 275.044 57.5234 269.581C57.5234 269.778 89.4855 235.753 91.8129 222.772C91.3491 223.752 78.8688 226.88 76.4776 225.735C76.4657 225.736 76.4573 225.732 76.4525 225.722C76.4607 225.727 76.4691 225.731 76.4776 225.735C77.2319 225.68 91.9848 205.742 93.0542 198.385C93.0542 198.581 84.2103 201.138 80.3314 201.138C80.6417 201.138 93.9851 182.061 94.9161 175.767C95.1643 175.61 89.9511 176.75 87.3134 177.34C90.7786 172.882 97.8951 163.219 98.6398 160.23C98.7639 160.23 94.1403 162.852 91.8129 164.163C95.2264 155.51 101.929 136.904 101.433 131.712C101.738 132.099 105.956 156.899 109.048 164.98C109.14 165.108 109.19 165.23 109.19 165.343C109.143 165.226 109.095 165.105 109.048 164.98C108.372 164.041 105.463 162.773 103.915 162.197C106.551 173.399 113.679 199.094 121.121 212.319C121.144 212.331 121.15 212.34 121.137 212.349C121.132 212.339 121.126 212.329 121.121 212.319C120.619 212.073 112.138 211.06 110.28 209.417C111.748 211.622 117.908 222.133 121.137 227.689L114.776 225.722C119.327 236.015 129.888 258.095 135.722 264.074C134.95 263.291 121.099 262.507 116.54 258.034C117.54 259.695 130.433 295.623 145.962 305.179C145.807 305.179 133.395 307.933 126.258 305.179C130.395 312.391 141.68 328.033 153.72 332.91C153.875 333.304 133.085 340.129 122.999 334.946C123.154 334.946 140.661 355.498 169.947 366.517C169.99 366.512 170.012 366.519 170.012 366.542C169.99 366.534 169.969 366.526 169.947 366.517C168.868 366.665 154.464 375.471 144.613 373.239C145.622 373.525 161.836 379.466 170.012 382.472C165.31 385.747 153.649 391.862 144.592 390.148C145.052 390.384 151.516 395.685 154.806 398.403C147.617 400.107 130.385 401.038 118.965 391.126C119.12 391.716 124.706 404.504 127.654 407.253C127.344 407.647 100.192 404.408 94.1404 397.275Z" fill="url(#paint7_linear_1996_4571)"/>
<path d="M-2.57281 386.842L0.728943 308.917C0.728943 308.917 -19.5043 328.397 -20.0732 328.068C-20.6421 327.739 -20.0732 319.813 -20.0732 319.813C-25.4663 326.197 -37.1111 338.172 -40.5451 335.002C-43.9791 331.832 -43.5167 329.059 -42.8562 328.068C-44.6173 330.379 -48.932 334.474 -52.1018 332.361C-55.2717 330.247 -54.7435 327.078 -54.0831 325.757C-58.4858 326.967 -67.291 328.662 -67.291 325.757C-67.291 322.125 -33.2814 310.238 -29.3191 305.945C-25.3568 301.653 -37.2437 305.285 -37.2437 302.313C-37.2437 299.342 -11.8189 295.709 -11.8189 292.408C-11.8189 289.106 -31.3002 297.03 -34.2719 294.719C-36.6493 292.87 -31.9606 289.766 -29.3191 288.445C-35.1524 288.665 -46.9513 288.511 -47.4796 286.134C-48.14 283.162 0.728943 278.209 0.728943 272.926V235.284L-31.9606 253.445L-37.2437 250.803L0.728943 230.992V203.916L-25.0266 230.992V222.076C-33.3912 229.781 -50.5168 244.199 -52.1018 240.237C-53.6869 236.275 -54.0831 232.422 -54.0831 230.992C-57.4952 234.954 -64.9136 241.69 -67.291 236.935C-69.6685 232.18 -68.2816 229.01 -67.291 228.02C-73.0145 230.001 -84.3953 232.775 -84.1311 228.02C-83.8009 222.076 -36.5833 206.557 -34.2719 202.265C-31.9606 197.972 -47.4796 201.604 -47.4796 198.302C-47.4796 195.661 -27.008 190.598 -16.7721 188.397C-20.8446 186.746 -28.5933 181.793 -27.0081 175.189C-39.64 178.866 -64.8748 184.879 -64.7581 179.513C-64.6414 174.147 -60.1406 169.889 -57.9048 168.431C-64.272 169.549 -77.0649 171.114 -77.2982 168.431C-77.5898 165.077 -47.4796 151.079 -47.4796 148.6C-47.4796 146.121 -56.4466 150.058 -57.1757 147.579C-57.9048 145.1 -41.8651 138.539 -42.74 138.539C-43.6149 138.539 -62.7167 140.871 -63.7374 138.539C-64.7581 136.206 -16.6391 120.458 -14.8893 117.833C-13.1395 115.208 -4.97388 108.209 -5.84877 105.439C-6.72366 102.668 -31.0966 115.063 -31.9606 110.251C-32.6518 106.401 -25.7282 100.675 -22.1801 98.2936H-41.4277C-27.1378 90.0307 1.47115 73.0382 1.5878 71.1718C1.70445 69.3054 1.63641 65.3392 1.5878 63.5894C-1.86316 64.999 -9.08587 67.235 -10.369 64.902C-11.6522 62.5689 -9.83438 60.8192 -8.76507 60.2359L-14.0144 59.5066L-0.599426 50.6119L-10.369 49.5911L-4.53644 46.2371L-20.2845 44.9247C-11.7786 38.8491 5.49566 25.298 6.54552 19.6987C7.12878 21.0111 10.6283 38.8005 27.6887 46.2371H21.7103L24.1892 50.6119L16.0235 46.2371L17.3358 53.528L13.1072 51.4866L27.6887 66.5056L18.9398 64.902L19.8147 70.151L10.7742 63.5894L13.1072 68.9844L6.54552 64.902V73.6505C18.2593 79.4344 41.512 91.7313 40.8121 94.6479C40.1122 97.5645 33.3269 96.4464 30.0218 95.5228C36.3404 99.557 48.6278 108.355 47.228 111.271C45.8281 114.187 25.8417 106.653 16.0235 102.522L25.7931 117.833C34.7851 123.276 52.5939 134.601 51.894 136.351C51.1941 138.101 46.9491 135.471 45.9156 137.226C45.4584 145.979 86.9772 161.723 86.1606 164.056C85.344 166.389 75.8077 166 71.1416 165.514C76.391 168.625 86.3939 175.312 84.4108 177.179C82.4277 179.046 60.3513 178.443 49.561 177.908C53.5952 180.342 61.1095 185.528 58.8932 186.803C56.1227 188.397 17.4817 185.637 14.5654 183.158C14.682 183.274 14.614 192.052 14.5654 196.427L56.4143 219.757L47.228 222.076L14.5654 201.093V232.152C20.9812 238.567 36.2335 252.07 45.9156 254.753C45.9156 254.899 40.5205 256.794 34.2504 255.774C34.3671 256.124 36.9237 259.419 38.1874 261.023L31.3341 260.294C40.9093 267.265 51.8966 278.659 68.1113 282.601C79.2022 284.052 105.554 299.422 103.95 302.313C102.667 304.627 94.9581 303.277 91.2641 302.313C97.5342 305.902 108.849 313.429 103.95 314.829C99.0507 316.229 89.3685 312.787 85.1399 310.892C79.9878 314.975 67.9046 320.691 60.7888 310.892C60.643 310.892 57.7267 310.454 56.4143 312.642C55.4977 314.169 52.9448 314.986 51.1906 314.842C58.2843 318.867 86.3538 336.596 96.5135 336.847C100.742 336.701 97.8258 342.534 82.9527 341.221C82.661 340.93 85.7232 351.137 70.2668 346.179C69.9753 346.033 61.0914 362.479 39.2485 334.274C39.5027 334.884 39.9818 340.671 38.1874 343.846C36.2918 347.2 13.778 322.615 13.5447 318.183C13.428 318.649 15.0514 364.15 15.8777 386.842H-2.57281Z" fill="url(#paint8_linear_1996_4571)"/>
<path d="M322.575 393.584C322.575 393.584 319.307 383.88 329.214 382.859C334.411 382.323 344.434 392.869 344.434 392.869C344.434 392.869 339.067 385.106 358.121 385.106C366.323 385.106 368.029 395.116 368.029 395.116C368.029 395.116 374.624 381.036 377.222 389.6C379.82 398.164 403.71 453.874 374.597 456.529C358.845 457.965 324.381 455.109 304.857 456.529C286.978 457.829 287.26 461.14 268.898 461.977C251.42 462.775 222.587 465.246 206.936 465.246C190.786 465.246 132.428 466.24 114.889 465.246C97.1933 464.243 75.4722 452.243 58.5892 450.717C39.8535 449.024 17.7089 449.872 2.87991 448.175C-18.138 445.768 -34.184 387.11 -2.83875 392.874C-2.83875 392.874 -11.7457 389.345 -7.95014 383.259C-6.52405 380.972 -0.491291 375.789 2.87991 375.656C7.05172 375.656 10.6901 380.199 11.5795 381.401C8.92643 377.526 12.3162 374.858 16.1391 376.882C16.1391 376.882 17.7035 371.43 21.2352 369.858C27.0491 367.269 36.9343 374.24 38.5531 376.437C38.5531 376.437 35.9314 368.256 38.9637 367.435C41.1322 366.848 44.8073 372.583 44.8073 372.583C45.1725 360.439 79.3785 357.732 78.7522 372.26C79.882 367.456 95.7019 367.435 96.9573 375.656C98.8404 364.672 103.792 361.979 108.12 361.979C112.795 362.201 117.509 368.866 117.509 368.866C117.509 368.866 121.458 361.995 125.498 362.261C128.844 362.482 130.492 377.992 130.492 377.992C130.492 377.992 134.172 364.313 146.453 369.741C152.153 372.26 139.884 387.33 139.884 387.33C139.884 387.33 151.013 380.653 153.945 384.996C155.868 387.845 151.106 397.358 150.268 398.982C150.817 398.042 153.369 394.671 161.382 395.582C168.17 396.354 163.669 412.289 163.669 412.289H207.358C207.358 412.289 201.88 401.227 206.537 399.949C208.896 399.302 212.604 401.508 212.604 401.508C212.604 401.508 208.528 389.825 210.228 386.74C213.46 380.876 215.383 381.39 219.65 378.68C224.599 375.536 228.826 383.731 228.826 383.731C228.826 383.731 226.209 378.58 231.209 377.318C237.167 375.815 239.189 377.216 239.856 378.567C239.491 375.438 239.538 369.377 245.729 370.908C251.606 372.362 252.82 378.68 252.82 378.68C252.82 378.68 253.403 369.216 258.454 368.866C266.409 368.315 266.128 383.731 266.128 383.731C266.128 383.731 267.412 371.521 276.911 370.908C279.968 370.711 291.422 371.214 286.621 387.353C308.071 360.694 322.575 393.584 322.575 393.584Z" fill="#4C7A70"/>
<path d="M373.796 451.808C373.796 455.278 360.315 454.416 352.677 455.587C340.869 457.397 331.275 450.034 319.552 452.336C307.953 454.613 301.419 456.008 289.985 458.108C281.153 459.73 267.335 458.751 252.853 459.73C234.787 460.952 223.882 464.237 206.707 464.237C191.351 464.237 176.522 463.474 157.318 461.353C139.177 459.349 129.387 455.104 111.172 453.962C99.299 453.217 92.4114 456.103 80.7091 453.962C69.6441 451.938 64.7026 446.23 53.6709 444.032C39.7256 441.252 31.4074 445.457 17.2595 444.032C-2.05397 442.086 -31.0493 435.463 -31.0493 432.331C-31.0493 429.326 0.630093 433.32 13.443 430.808C18.5429 429.808 28.6953 430.523 35.4665 429.637C41.5025 428.847 45.4106 425.121 52.6213 424.436C63.5865 423.395 70.517 425.192 83.7769 424.436C95.7893 423.752 110.901 428.798 124.399 428.387C132.912 428.127 150.761 424.575 159.742 424.436C169.244 424.29 170.563 425.805 180.48 425.805C188.916 425.805 209.485 423.051 217.627 423.157C229.151 423.308 234.904 425.457 245.671 425.805C255.22 426.113 277.094 431.883 285.902 432.332C298.36 432.965 312.425 434.872 323.071 435.754C337.743 436.969 357.265 444.032 373.796 444.032C392.501 446.92 373.796 448.124 373.796 451.808Z" fill="#5B8C82"/>
<path d="M150.958 394.645C150.867 394.845 137.899 414.988 133.086 422.12C135.134 421.547 134.741 421.558 136.451 421.075C137.06 421.042 137.09 421.306 136.852 421.505C133.065 423.724 131.655 424.725 131.603 424.78C121.988 435.406 111.33 449.275 111.33 449.275C110.607 450.135 109.679 449.902 109.144 449.369C108.78 449.013 108.596 448.524 108.762 448.142C108.87 447.894 121.466 434.272 127.465 426.614C127.569 421.43 127.817 420.627 128.207 420.516C128.433 420.451 128.586 421.195 128.652 421.826C128.739 422.628 128.871 423.748 129.047 425.186C132.217 421.453 149.165 395.385 150.331 394.27C150.419 394.189 150.537 394.178 150.65 394.211C150.855 394.271 151.036 394.475 150.962 394.647L150.958 394.645Z" fill="#515151"/>
<g style="mix-blend-mode:multiply">
<path d="M150.598 394.208L140.495 409.682L132.077 422.221L128.231 426.957L109.143 449.335C108.78 448.98 108.596 448.491 108.761 448.109C108.869 447.861 121.45 434.246 127.441 426.593C127.545 421.412 127.792 420.61 128.183 420.498C128.408 420.433 128.561 421.177 128.627 421.808C128.714 422.61 128.845 423.729 129.021 425.166C132.187 421.435 149.114 395.381 150.279 394.266C150.367 394.186 150.485 394.175 150.598 394.208Z" fill="#A7A9AC"/>
</g>
<path d="M141.267 401.533L147.401 405.55L151.636 399.198L145.501 395.181L141.267 401.533Z" fill="#E6E7E8"/>
<path d="M145.491 401.83C143.785 400.711 141.911 400.549 141.302 401.468C140.693 402.387 141.572 404.039 143.278 405.159C144.98 406.275 146.854 406.437 147.467 405.52C148.077 404.601 147.193 402.947 145.495 401.832L145.491 401.83Z" fill="#E6E7E8"/>
<path d="M149.623 395.576C147.917 394.457 146.043 394.295 145.433 395.214C144.824 396.133 145.704 397.786 147.41 398.905C149.112 400.021 150.986 400.183 151.599 399.266C152.21 398.343 151.325 396.693 149.626 395.578L149.623 395.576Z" fill="white"/>
<g style="mix-blend-mode:multiply">
<path d="M149.671 395.603L143.306 405.191C144.981 406.292 146.825 406.452 147.429 405.548L151.617 399.24C152.219 398.33 151.347 396.703 149.675 395.605L149.671 395.603Z" fill="#E6E7E8"/>
</g>
<path d="M150.61 394.381C150.496 394.347 150.377 394.358 150.289 394.439C150.084 394.633 149.398 395.592 148.388 397.055C148.526 397.45 148.699 397.575 149.144 397.593C150.226 395.909 150.9 394.858 150.919 394.816C150.998 394.645 150.811 394.439 150.606 394.379L150.61 394.381Z" fill="#515151"/>
<g style="mix-blend-mode:multiply">
<path d="M148.606 397.425L150.594 394.378C150.481 394.345 150.362 394.355 150.275 394.436C150.071 394.629 149.388 395.586 148.383 397.045C148.454 397.222 148.477 397.304 148.602 397.423L148.606 397.425Z" fill="#A7A9AC"/>
</g>
<path d="M211.723 392.746C211.809 392.937 224.179 412.15 228.769 418.952C226.816 418.406 227.191 418.416 225.56 417.955C224.978 417.924 224.95 418.175 225.177 418.366C228.789 420.482 230.134 421.437 230.184 421.489C239.354 431.624 249.52 444.853 249.52 444.853C250.21 445.673 251.095 445.45 251.606 444.942C251.952 444.603 252.128 444.137 251.97 443.772C251.866 443.536 239.852 430.542 234.131 423.238C234.031 418.294 233.795 417.528 233.423 417.422C233.207 417.36 233.061 418.07 232.998 418.672C232.915 419.437 232.79 420.505 232.622 421.877C229.598 418.316 213.433 393.452 212.321 392.388C212.237 392.311 212.124 392.301 212.017 392.332C211.821 392.389 211.648 392.584 211.719 392.748L211.723 392.746Z" fill="#515151"/>
<g style="mix-blend-mode:multiply">
<path d="M212.065 392.33L221.701 407.089L229.731 419.048L233.399 423.566L251.605 444.91C251.952 444.571 252.127 444.105 251.969 443.74C251.866 443.504 239.866 430.518 234.152 423.218C234.053 418.277 233.817 417.511 233.445 417.405C233.23 417.343 233.084 418.053 233.021 418.654C232.938 419.419 232.813 420.487 232.645 421.857C229.625 418.298 213.48 393.448 212.369 392.385C212.286 392.308 212.173 392.298 212.065 392.33Z" fill="#A7A9AC"/>
</g>
<path d="M220.967 399.316L215.117 403.147L211.078 397.089L216.929 393.258L220.967 399.316Z" fill="#E6E7E8"/>
<path d="M216.938 399.599C218.566 398.532 220.353 398.378 220.934 399.254C221.515 400.131 220.676 401.707 219.049 402.774C217.425 403.839 215.638 403.994 215.053 403.119C214.472 402.243 215.315 400.665 216.935 399.602L216.938 399.599Z" fill="#E6E7E8"/>
<path d="M212.997 393.634C214.624 392.567 216.411 392.412 216.992 393.289C217.573 394.166 216.734 395.741 215.107 396.809C213.483 397.874 211.696 398.028 211.111 397.154C210.528 396.273 211.373 394.699 212.993 393.636L212.997 393.634Z" fill="white"/>
<g style="mix-blend-mode:multiply">
<path d="M212.948 393.66L219.02 402.806C217.422 403.856 215.663 404.008 215.087 403.146L211.093 397.129C210.519 396.261 211.35 394.71 212.945 393.662L212.948 393.66Z" fill="#E6E7E8"/>
</g>
<path d="M212.055 392.495C212.163 392.463 212.277 392.473 212.361 392.55C212.556 392.735 213.21 393.65 214.174 395.045C214.042 395.422 213.877 395.541 213.453 395.559C212.42 393.952 211.778 392.949 211.76 392.909C211.685 392.747 211.863 392.549 212.059 392.492L212.055 392.495Z" fill="#515151"/>
<g style="mix-blend-mode:multiply">
<path d="M213.967 395.398L212.071 392.491C212.178 392.459 212.291 392.47 212.375 392.547C212.569 392.731 213.22 393.644 214.179 395.036C214.112 395.204 214.089 395.282 213.97 395.396L213.967 395.398Z" fill="#A7A9AC"/>
</g>
<path d="M230.166 438.269C231.991 444.464 226.628 446.616 218.955 449.807C205.926 455.227 193.42 454.566 177.76 453.44C166.899 452.659 158.304 450.721 149.602 446.389C143.683 443.442 140.477 440.306 140.477 438.269C140.477 434.92 146.284 432.447 155.599 431.218C163.42 430.186 170.246 428.438 179.325 428.227C195.011 427.862 202.79 429.722 213.741 431.218C219.184 431.962 228.654 433.136 230.166 438.269Z" fill="#B19573" fill-opacity="0.7"/>
<path d="M210.842 437.63C211.895 441.84 208.8 443.302 204.373 445.472C196.854 449.155 189.638 448.706 180.601 447.94C174.333 447.41 169.374 446.092 164.352 443.148C160.936 441.145 159.086 439.014 159.086 437.63C159.086 435.353 162.437 433.672 167.812 432.837C172.326 432.136 176.265 430.948 181.504 430.804C190.555 430.556 195.045 431.821 201.364 432.837C204.505 433.343 209.97 434.141 210.842 437.63Z" fill="#78644C"/>
<path d="M168.982 425.17C168.982 425.17 167.719 425.993 167.801 427.106L179.191 429.086L168.982 425.17Z" fill="#885A2C"/>
<path d="M158.755 426.099L208.542 433.035L206.873 441.353L156.89 432.219C156.89 432.219 155.405 429.16 158.751 426.099L158.755 426.099Z" fill="#533716"/>
<path d="M214.655 430.583C214.716 430.584 163.397 443.996 163.397 443.996L162.663 438.296L215.127 426.818C215.456 427.802 215.439 429.055 214.655 430.583Z" fill="#6C471C"/>
<path d="M215.129 426.818L162.665 438.296L161.799 431.566C161.799 431.566 196.378 425.215 212.462 423.954C212.684 424.033 214.516 424.958 215.129 426.818Z" fill="#76491F"/>
<path d="M167.805 437.312C168.038 440.743 168.031 443.007 163.397 443.996C161.537 444.391 159.339 439.302 159.394 435.779C159.45 432.255 161.696 431.204 163.598 431.234C165.501 431.264 167.566 433.798 167.805 437.312Z" fill="#8E5B28"/>
<path d="M211.242 435.375C211.218 436.872 209.826 441.169 207.885 441.355C205.599 441.571 204.284 438.71 204.266 437.212C204.232 434.389 206.317 433.004 207.381 433.02C208.446 433.037 211.266 433.647 211.238 435.378L211.242 435.375Z" fill="#6C471C"/>
<path d="M183.607 428.281C183.607 428.281 161.585 430.151 163.768 408.586C164.164 404.215 168.243 402.177 168.816 398.741C169.278 395.97 168.89 392.04 168.724 390.629C168.708 390.503 168.872 390.445 168.938 390.554C169.709 391.858 171.773 395.786 171.333 399.832C170.793 404.784 175.574 404.63 175.737 401.713C175.901 398.796 172.271 395.293 172.628 390.922C172.984 386.55 173.923 380.826 179.833 378.659C179.901 378.635 179.971 378.701 179.945 378.769C179.44 380.147 175.408 389.508 182.249 386.869C189.664 384.009 183.136 378.128 182.082 375.599C181.337 373.812 181.958 371.119 182.385 369.689C182.438 369.51 182.693 369.539 182.708 369.723C182.855 371.882 184.005 377.271 191.167 383.446C194.51 386.886 190.85 396.343 191.894 399.452C192.938 402.56 201.076 407.455 199.707 396.386C199.678 396.166 199.974 396.073 200.071 396.269C202.684 401.595 213.221 427.184 183.607 428.274L183.607 428.281Z" fill="#ED9120"/>
<path d="M183.902 427.876C183.902 427.876 169.402 427.531 170.223 415.517C170.705 410.679 173.428 409.499 172.426 407.323C172.426 407.323 174.978 409.815 174.066 412.72C173.154 415.625 180.33 413.521 178.459 407.886C176.589 402.252 176.198 394.423 180.155 391.566C180.731 391.518 177.705 400.808 182.555 400.128C187.404 399.449 183.841 395.361 183.841 395.361C183.841 395.361 189.244 396.674 188.785 408.867C188.836 410.851 193.936 412.274 193.723 407.544C193.834 407.722 205.1 427.163 183.902 427.879L183.902 427.876Z" fill="#FCB036"/>
<path d="M183.862 426.496C183.862 426.496 175.672 427.397 177.254 414.639C177.255 414.581 178.68 420.09 180.51 418.661C182.34 417.232 179.774 415.557 180.293 411.943C180.812 408.33 183.264 406.151 183.264 406.151C183.264 406.151 182.334 414.017 184.88 413.067C187.426 412.117 186.276 408.535 186.276 408.535C186.276 408.535 190.126 412.682 187.673 418.482C187.312 419.528 189.974 422.255 190.999 419.41C191.055 419.468 193.454 424.449 183.865 426.496L183.862 426.496Z" fill="#FEC83F"/>
<path d="M328.15 303.61C316.135 342.893 292.826 394.003 258.318 419.283L399.207 431.833C399.207 431.833 347.492 370.175 328.15 303.61Z" fill="url(#paint9_linear_1996_4571)"/>
<path d="M328.15 303.61C328.15 303.61 397.173 329.619 436.056 318.162C443.59 354.72 493.472 407.826 493.472 407.826L399.207 431.833C399.207 431.833 331.81 351.809 328.15 303.61Z" fill="url(#paint10_linear_1996_4571)"/>
<path opacity="0.63" d="M303.328 423.292L342.62 426.792L326.926 330.163L303.328 423.292Z" fill="#141414"/>
<path d="M328.119 305.259C328.125 304.709 328.138 304.165 328.15 303.61C328.15 303.61 320.975 386.836 294.151 403.458C294.351 403.822 302.738 414.202 303.335 423.293C303.441 423.304 321.804 399.672 326.901 332.345C327.096 388.535 342.62 426.792 342.62 426.792C347.115 411.931 361.742 407.462 361.334 407.641C328.86 379.462 328.012 316.233 328.119 305.259Z" fill="#DB9F68"/>
<path d="M427.707 441.77C427.651 441.77 427.594 441.77 427.538 441.759C405.126 438.103 337.711 322.099 328.301 305.729C325.928 311.55 317.93 330.421 305.595 351.647C291.909 375.188 269.938 406.531 242.944 422.177C242.511 422.429 241.927 422.317 241.644 421.93C241.362 421.543 241.488 421.021 241.921 420.769C268.569 405.325 290.346 374.235 303.925 350.873C318.658 325.508 327.171 303.554 327.259 303.335C327.384 303.015 327.705 302.791 328.081 302.768C328.452 302.746 328.816 302.926 328.985 303.228C329.173 303.565 348.264 336.976 369.966 370.422C406.087 426.096 421.398 439.045 427.877 440.099C428.385 440.183 428.724 440.621 428.636 441.081C428.555 441.484 428.159 441.77 427.713 441.77H427.707Z" fill="#969696"/>
<path d="M245.091 423.831L242.599 418.268L243.898 417.69C244.513 417.415 244.764 416.748 244.457 416.199C244.149 415.649 243.402 415.425 242.787 415.699L238.154 417.757C237.539 418.032 237.288 418.7 237.595 419.249C237.903 419.799 238.65 420.023 239.265 419.748L240.565 419.171L244.024 424.302L245.097 423.825L245.091 423.831Z" fill="#2B2B2B"/>
<path d="M364.805 414.565C373.264 401.03 381.956 410.149 381.956 410.149L381.953 463.111C381.953 463.111 325.061 461.361 302.784 461.361C296.976 461.361 290.093 457.665 290.093 457.665C286.383 453.361 282.898 443.292 298.642 437.451C313.317 432.393 319.539 440.924 320.815 445.821C320.845 443.595 321.385 438.804 323.308 437.451C325.232 436.097 328.681 438.015 330.165 439.143C328.384 436.352 325.641 429.81 328.918 425.964C335.971 418.84 346.461 424.717 350.824 428.546C350.587 427.062 351.02 423.63 354.653 421.778C358.286 419.926 361.925 423.084 363.291 424.895C362.905 423.144 362.667 418.626 364.805 414.565Z" fill="#4C7A70"/>
<path fill-rule="evenodd" clip-rule="evenodd" d="M121.122 212.319C116.051 203.308 111.126 188.507 107.669 176.446C105.358 178.685 102.966 182.065 102.966 185.969C102.966 193.17 108.57 197.6 105.473 204.772C103.519 209.296 100.676 212.323 100.65 217.186C100.598 226.777 103.485 228.046 107.669 232.754C109.717 235.059 102.033 245.124 100.65 247.098C96.7429 252.677 94.227 256.27 97.7755 262.397C103.927 273.02 112.016 282.197 106.505 295.422C103.519 302.589 107.477 309.615 104.236 317.016C98.5818 329.925 89.4165 334.527 94.4759 346.05C97.7004 353.394 106.64 365.113 114.052 367.369C126.53 371.167 124.224 382.896 123.393 393.152C122.664 402.148 122.23 412.247 129.322 416.164C134.662 419.114 151.608 423.844 156.078 422.771C169.008 419.667 175.435 426.258 189.165 426.258C198.914 427.83 219.918 426.766 224.448 415.255C227.486 407.536 236.021 404.84 243.755 402.398C250.438 400.287 262.731 390.472 264.153 385.66C267.219 375.281 260.304 364.302 274.929 355.103C287.543 347.168 289.775 337.279 280.09 325.771C277.304 322.462 275.868 314.939 281.298 310.519C291.441 302.263 292.385 292.827 287.667 281.741C282.949 270.654 270.211 272.069 277.995 255.321C281.212 248.4 283.985 245.467 285.9 243.443C288.619 240.567 289.605 239.524 287.667 231.496C284.364 217.814 281.062 211.445 284.364 204.368C286.248 200.331 284.246 194.135 281.915 189.372C280.25 195.131 278.595 199.748 277.226 201.48C277.511 201.48 281.275 199.103 283.121 197.914C279.727 206.444 272.259 224.177 269.544 226.862C269.972 226.862 275.915 225.184 278.833 224.345C275.439 237.35 266.506 265.123 257.931 272.172C258.217 272.172 264.72 270.773 267.936 270.074C262.007 283.858 248.499 312.004 241.27 315.861C241.068 315.945 240.959 315.998 240.959 316.013C240.979 316.004 240.998 315.996 241.017 315.987C241.101 315.948 241.185 315.906 241.27 315.861C243.258 315.031 254.291 311.122 260.075 309.091L243.103 332.585C247.093 332.515 255.895 331.956 259.182 330.277C260.075 330.068 238.101 366.147 219.879 373.909C219.948 373.909 220.252 373.94 220.741 373.992C223.833 374.315 234.329 375.411 239.961 374.17C239.778 375.002 239.722 375.892 239.732 376.728C239.583 377.068 239.43 377.418 239.273 377.775C238.224 376.772 235.977 376.115 231.208 377.318C226.208 378.579 228.826 383.731 228.826 383.731C228.826 383.731 224.598 375.536 219.649 378.68C218.532 379.389 217.575 379.878 216.713 380.318L216.712 380.319C214.285 381.559 212.613 382.413 210.228 386.74C208.527 389.825 212.603 401.508 212.603 401.508C212.603 401.508 208.896 399.302 206.537 399.949C201.879 401.227 207.358 412.289 207.358 412.289H163.669C163.669 412.289 168.169 396.354 161.381 395.582C157.167 395.103 154.463 395.808 152.766 396.721C152.435 396.449 152.095 396.169 151.749 395.886C152.56 394.066 153.478 391.766 153.993 389.688C160.541 388.161 166.85 384.675 170.013 382.472C163.8 380.188 152.947 376.209 147.65 374.304C147.717 374.064 147.774 373.829 147.821 373.6C155.314 373.703 164.15 369.32 168.024 367.398C169.062 366.883 169.744 366.545 169.948 366.517L170.013 366.542C170.013 366.519 169.991 366.512 169.948 366.517C143.09 356.411 126.139 338.288 123.393 335.352L123.392 335.351C123.165 335.109 123.036 334.97 123.006 334.949C133.093 340.126 153.876 333.303 153.721 332.91C141.681 328.033 130.396 312.39 126.259 305.179C132.835 307.716 143.892 305.577 145.709 305.226C145.863 305.196 145.951 305.179 145.963 305.179C132.635 296.977 121.249 269.35 117.656 260.632C117.063 259.193 116.682 258.269 116.541 258.034C119.751 261.184 127.571 262.505 132.185 263.284C134.122 263.611 135.495 263.842 135.723 264.074C129.889 258.095 119.328 236.015 114.777 225.722L121.138 227.689C117.909 222.133 111.749 211.621 110.281 209.417C111.659 210.636 116.687 211.509 119.393 211.978L119.394 211.978C120.333 212.141 120.993 212.256 121.122 212.319ZM123 334.946L123.006 334.949C123.003 334.947 123 334.946 123 334.946Z" fill="#EFBDA0" fill-opacity="0.1"/>
<path d="M121.122 212.319C121.145 212.331 121.151 212.34 121.138 212.349L121.122 212.319Z" fill="#EFBDA0" fill-opacity="0.1"/>
<path d="M108.376 222.127C107.749 218.1 110.81 215.369 113.149 214.097C115.638 218.263 119.019 224.043 121.138 227.689L114.777 225.722C119.328 236.015 129.889 258.095 135.723 264.074C135.495 263.842 134.122 263.61 132.185 263.283C127.571 262.504 119.751 261.184 116.541 258.033C116.682 258.269 117.063 259.193 117.656 260.632C121.249 269.349 132.635 296.977 145.963 305.179C145.951 305.179 145.863 305.196 145.709 305.226C143.892 305.577 132.835 307.716 126.258 305.179C130.396 312.39 141.681 328.032 153.721 332.91C153.876 333.303 133.093 340.126 123.006 334.949C123.036 334.97 123.166 335.109 123.393 335.352C126.139 338.287 143.09 356.411 169.948 366.517C169.744 366.545 169.062 366.883 168.024 367.398C164.15 369.32 155.313 373.703 147.82 373.599C147.773 373.829 147.716 374.064 147.648 374.304C152.945 376.208 163.8 380.187 170.013 382.472C166.85 384.675 160.54 388.162 153.991 389.688C153.477 391.765 152.559 394.065 151.748 395.885C152.094 396.169 152.435 396.449 152.766 396.721C154.462 395.808 157.166 395.102 161.38 395.582C168.168 396.354 163.667 412.289 163.667 412.289H207.356C207.356 412.289 201.878 401.227 206.535 399.949C208.894 399.302 212.602 401.507 212.602 401.507C212.602 401.507 208.526 389.825 210.226 386.739C212.611 382.412 214.283 381.558 216.711 380.318L216.712 380.318C217.574 379.878 218.53 379.389 219.648 378.679C224.597 375.536 228.824 383.731 228.824 383.731C228.824 383.731 226.207 378.579 231.206 377.318C235.976 376.114 238.223 376.772 239.272 377.775C239.429 377.418 239.582 377.068 239.731 376.728C239.72 375.891 239.777 375.002 239.96 374.17C234.327 375.411 223.831 374.314 220.74 373.991C220.251 373.94 219.947 373.908 219.877 373.908C238.1 366.147 260.074 330.067 259.181 330.277C255.893 331.955 247.092 332.515 243.102 332.584L260.074 309.091C254.29 311.121 243.257 315.03 241.269 315.86C248.498 312.004 262.006 283.858 267.934 270.074C264.719 270.773 258.216 272.171 257.93 272.171C265.589 265.876 273.534 243.046 277.562 228.973C278.953 231.306 280.561 235.131 280.48 239.404C280.385 244.437 275.776 252.685 272.564 258.434L272.563 258.436C269.955 263.103 269.158 265.866 269.814 271.308C270.362 275.864 271.001 281.165 268.743 284.903C264.918 291.234 266.369 295.981 269.798 301.784C273.227 307.587 266.501 312.994 266.369 318.006C266.237 323.017 273.358 335.942 268.743 341.217C264.127 346.493 259.379 348.603 255.159 355.724C250.938 362.846 252.785 370.363 250.938 377.353C249.092 384.343 231.156 385.134 226.804 386.321C222.452 387.508 221.66 394.234 221.263 405.576C220.945 414.65 203.547 418.765 194.888 419.688C170.621 426.282 158.621 413.225 155.06 407.95C151.5 402.675 143.718 401.488 139.103 395.553C132.494 387.056 137.105 375.938 134.189 367.398C131.335 359.038 120.638 353.156 116.156 345.438C111.409 337.261 123.542 331.062 124.333 325.655C125.124 320.248 120.904 318.533 117.343 310.752C113.782 302.971 118.926 293.08 120.904 287.541C122.882 282.002 110.881 261.164 109.167 254.438C107.452 247.712 116.156 242.437 116.156 238.744C116.156 235.051 109.299 228.062 108.376 222.127Z" fill="#EFBDA0" fill-opacity="0.1"/>
<path d="M241.269 315.86C241.184 315.906 241.1 315.948 241.016 315.986L240.992 315.998L240.958 316.013C240.958 315.997 241.067 315.945 241.269 315.86Z" fill="#EFBDA0" fill-opacity="0.1"/>
<path d="M170.013 366.541C170.013 366.519 169.991 366.511 169.948 366.517L170.013 366.541Z" fill="#EFBDA0" fill-opacity="0.1"/>
<path d="M269.542 226.862C269.591 226.814 269.641 226.761 269.692 226.703L270.143 226.742C269.823 226.818 269.611 226.862 269.542 226.862Z" fill="#EFBDA0" fill-opacity="0.1"/>
<path d="M151.246 264.349C146.777 263.24 142.182 258.272 138.798 253.561C134.578 255.565 128.459 258.866 128.778 263.161C128.987 265.991 130.051 267.839 131.003 269.495C132.317 271.779 133.421 273.696 131.783 277.316C128.794 283.922 130.425 288.555 136.063 291.472C142.296 294.697 141.292 296.918 140.018 299.736C139.632 300.59 139.222 301.498 138.98 302.505C138.307 305.309 140.376 307.981 142.155 310.279C143.678 312.246 144.989 313.938 144.184 315.203C143.469 316.327 141.047 315.93 138.524 315.517C134.891 314.922 131.047 314.292 131.783 318.117C132.356 321.097 134.457 324.205 136.56 327.317C139.033 330.975 141.508 334.638 141.508 338.102C141.508 341.42 140.331 343.839 139.195 346.172C137.695 349.254 136.268 352.185 137.73 356.837C139.257 361.696 143.533 362.483 147.47 363.208C149.436 363.57 151.318 363.917 152.73 364.747C156.969 367.241 160.331 372.463 157.09 379.943C155.965 382.54 155.396 386.068 155.404 389.83C166.417 391.439 182.078 387.582 182.313 386.335C182.518 385.247 173.241 382.774 168.577 381.673L174.61 377.982C169.065 376.273 162.372 370.018 159.719 367.105C162.543 369.63 176.664 364.58 174.61 364.58C161.567 360.85 153.599 349.299 151.246 343.989C157.023 350.205 166.523 347.874 165.111 347.097C158.64 344.145 149.32 332.27 145.469 326.702V322.428C150.604 324.306 161.311 327.556 163.057 325.536C164.557 323.8 162.599 320.596 161.479 318.762C160.97 317.928 160.633 317.378 160.874 317.378C161.033 317.378 161.54 317.435 162.241 317.515C164.944 317.823 170.525 318.457 170.117 317.378C169.604 315.202 159.719 305.593 154.84 301.061H160.874L154.84 294.263C157.494 293.874 162.851 293.097 163.057 293.097C160.02 292.262 150.916 286.636 145.057 283.016C142.742 281.585 140.933 280.468 140.206 280.083C138.152 278.995 136.269 272.766 135.584 269.788C139.606 271.342 147.754 274.178 148.165 273.09C148.576 272.001 144.742 266.809 142.773 264.349H151.246Z" fill="#EFBDA0" fill-opacity="0.1"/>
<path d="M159.719 398.378C160.09 397.256 157.722 394.738 155.512 392.601C155.681 394.85 156.051 397.12 156.625 399.271C158.408 399.122 159.566 398.841 159.719 398.378Z" fill="#EFBDA0" fill-opacity="0.1"/>
<path d="M220.299 393.164C221.44 398.66 218.722 403.989 214.962 408.353C210.333 408.713 206.163 408.256 203.61 407.681C206.188 405.657 211.251 401.71 211.612 401.534C204.517 402.81 195.382 398.257 191.699 395.819C198.104 393.58 210.804 389.156 211.595 388.944C205.339 390.291 196.739 386.237 193.257 384.595C192.444 384.211 191.91 383.959 191.75 383.939C212.789 376.414 226.068 362.919 228.218 360.733C228.412 360.536 228.516 360.431 228.526 360.431C220.626 364.29 204.339 359.208 204.461 358.915C213.893 355.283 222.733 343.636 225.974 338.266C220.822 340.155 212.161 338.563 210.738 338.301C210.666 338.288 210.612 338.278 210.579 338.272C210.556 338.268 210.542 338.266 210.538 338.266C220.979 332.159 229.898 311.588 232.712 305.097C233.177 304.025 233.475 303.337 233.586 303.162C231.071 305.508 224.945 306.491 221.331 307.071C219.814 307.314 218.739 307.487 218.56 307.659C223.13 303.207 231.403 286.767 234.968 279.103L229.985 280.567C232.514 276.43 237.34 268.603 238.49 266.962C237.41 267.87 233.471 268.519 231.352 268.869C230.615 268.99 230.099 269.075 229.998 269.123C232.255 265.309 234.476 260.103 236.47 254.67C236.737 254.786 236.917 254.907 237.004 255.033C239.746 259.022 246.478 272.579 241.741 277.316C239.189 279.869 240.953 283.842 242.617 287.588C244.041 290.794 245.391 293.834 243.896 295.674C240.655 299.664 241.153 306.888 243.896 313.121C245.861 317.587 243.905 320.52 240.896 325.032C239.704 326.819 238.347 328.854 237.004 331.329C233.255 338.234 236.531 342.797 239.544 346.995C240.339 348.103 241.116 349.185 241.741 350.279C244.733 355.515 238.5 370.475 232.516 372.22C226.532 373.966 217.556 379.95 220.299 393.164Z" fill="#EFBDA0" fill-opacity="0.1"/>
<path d="M229.985 269.145L229.998 269.123C229.979 269.131 229.975 269.138 229.985 269.145Z" fill="#EFBDA0" fill-opacity="0.1"/>
<path d="M191.699 383.957L191.75 383.939C191.716 383.934 191.699 383.94 191.699 383.957Z" fill="#EFBDA0" fill-opacity="0.1"/>
<path d="M212.227 407.143C212.307 407.607 212.338 408.05 212.326 408.475C208.775 408.531 205.667 408.144 203.61 407.681C206.188 405.657 211.251 401.71 211.612 401.534C204.516 402.81 195.382 398.257 191.699 395.819C198.104 393.58 210.804 389.156 211.595 388.944C205.339 390.291 196.739 386.236 193.257 384.595C192.444 384.211 191.91 383.959 191.75 383.939C212.789 376.413 226.068 362.919 228.218 360.733C228.412 360.536 228.516 360.431 228.526 360.431C220.626 364.29 204.339 359.208 204.461 358.915C213.893 355.283 222.733 343.636 225.974 338.266C220.822 340.155 212.161 338.563 210.738 338.301C210.616 338.279 210.548 338.266 210.538 338.266C220.979 332.159 229.898 311.588 232.712 305.097C233.177 304.025 233.475 303.337 233.586 303.161C231.071 305.508 224.945 306.491 221.331 307.071C219.814 307.314 218.739 307.487 218.56 307.659C223.13 303.207 231.403 286.766 234.968 279.103L229.985 280.567C231.664 277.821 234.355 273.448 236.311 270.338C236.851 270.779 237.468 271.459 238.035 272.467C239.097 274.355 237.755 278.559 236.361 282.928C235.907 284.349 235.447 285.788 235.063 287.17C233.499 292.802 234.594 297.338 236.627 303.282C238.661 309.225 233.968 319.236 229.119 328.152C224.27 337.068 227.868 349.581 230.214 352.241C232.561 354.9 230.684 365.38 227.868 366.787C225.053 368.195 216.919 376.642 214.416 381.178C211.913 385.714 210.818 399.01 212.227 407.143Z" fill="#EFBDA0" fill-opacity="0.2"/>
<path d="M191.699 383.957L191.75 383.939C191.716 383.934 191.699 383.94 191.699 383.957Z" fill="#EFBDA0" fill-opacity="0.2"/>
<path d="M140.206 280.082C139.266 279.585 138.363 278.012 137.593 276.167C136.023 277.486 134.594 279.695 135.893 282.478C137.087 285.037 139.352 286.294 141.418 287.44C143.14 288.396 144.724 289.275 145.435 290.768C145.842 291.622 146.449 292.476 147.09 293.376C148.914 295.94 151.007 298.883 149.502 303.282C148.192 307.112 150 309.708 151.618 312.033C152.511 313.316 153.347 314.516 153.569 315.795C153.911 317.759 150.476 317.812 147.21 317.862C144.494 317.904 141.895 317.943 141.681 319.08C141.212 321.583 143.871 333.783 146.687 335.817C149.502 337.85 147.938 344.889 146.687 349.269C145.435 353.648 153.906 362.953 157.663 363.855C159.042 364.186 160.199 365.734 161.096 367.694C165.571 368.537 176.429 364.579 174.61 364.579C161.567 360.85 153.599 349.299 151.246 343.989C157.023 350.205 166.523 347.874 165.111 347.097C158.64 344.145 149.32 332.27 145.469 326.701V322.428C150.604 324.306 161.311 327.556 163.057 325.536C164.557 323.8 162.599 320.596 161.479 318.762C160.97 317.928 160.633 317.378 160.874 317.378C161.033 317.378 161.54 317.435 162.241 317.515C164.944 317.822 170.525 318.457 170.117 317.378C169.604 315.202 159.719 305.593 154.84 301.061H160.874L154.84 294.263C157.494 293.874 162.851 293.097 163.057 293.097C160.02 292.262 150.916 286.636 145.057 283.016C142.742 281.585 140.933 280.467 140.206 280.082Z" fill="#EFBDA0" fill-opacity="0.2"/>
<path d="M174.61 377.982C170.139 376.604 164.923 372.272 161.679 369.118C162.831 372.258 163.387 375.899 163.223 377.379C163.194 377.633 163.016 378.173 162.76 378.946C162.019 381.19 160.63 385.393 160.403 390.209C170.617 390.38 182.112 387.401 182.313 386.335C182.518 385.247 173.241 382.774 168.577 381.673L174.61 377.982Z" fill="#EFBDA0" fill-opacity="0.2"/>
<defs>
<linearGradient id="paint0_linear_1996_4571" x1="10.5055" y1="165.242" x2="10.5055" y2="401.696" gradientUnits="userSpaceOnUse">
<stop stop-color="#F1CB96"/>
<stop offset="0.333333" stop-color="#57877C"/>
</linearGradient>
<linearGradient id="paint1_linear_1996_4571" x1="322.992" y1="122.86" x2="322.992" y2="386.843" gradientUnits="userSpaceOnUse">
<stop stop-color="#F1CB96"/>
<stop offset="0.333333" stop-color="#57877C"/>
</linearGradient>
<linearGradient id="paint2_linear_1996_4571" x1="126.779" y1="224.917" x2="126.779" y2="409.748" gradientUnits="userSpaceOnUse">
<stop stop-color="#F1CB96"/>
<stop offset="0.333333" stop-color="#57877C"/>
</linearGradient>
<linearGradient id="paint3_linear_1996_4571" x1="248.945" y1="209.103" x2="248.945" y2="416.344" gradientUnits="userSpaceOnUse">
<stop stop-color="#F1CB96"/>
<stop offset="0.333333" stop-color="#57877C"/>
</linearGradient>
<linearGradient id="paint4_linear_1996_4571" x1="52.9727" y1="191.871" x2="52.9727" y2="401.129" gradientUnits="userSpaceOnUse">
<stop stop-color="#F1CB96"/>
<stop offset="0.333333" stop-color="#57877C"/>
</linearGradient>
<linearGradient id="paint5_linear_1996_4571" x1="369.269" y1="54.8525" x2="369.269" y2="396.056" gradientUnits="userSpaceOnUse">
<stop stop-color="#F1CB96"/>
<stop offset="0.273059" stop-color="#4C7A70"/>
</linearGradient>
<linearGradient id="paint6_linear_1996_4571" x1="287.855" y1="158.478" x2="287.855" y2="397.854" gradientUnits="userSpaceOnUse">
<stop stop-color="#F1CB96"/>
<stop offset="0.273059" stop-color="#4C7A70"/>
</linearGradient>
<linearGradient id="paint7_linear_1996_4571" x1="96.9351" y1="131.712" x2="96.9351" y2="410.038" gradientUnits="userSpaceOnUse">
<stop stop-color="#F1CB96"/>
<stop offset="0.273059" stop-color="#4C7A70"/>
</linearGradient>
<linearGradient id="paint8_linear_1996_4571" x1="10.5059" y1="19.6987" x2="10.5059" y2="386.842" gradientUnits="userSpaceOnUse">
<stop stop-color="#F1CB96"/>
<stop offset="0.273059" stop-color="#4C7A70"/>
</linearGradient>
<linearGradient id="paint9_linear_1996_4571" x1="328.762" y1="303.61" x2="328.762" y2="431.833" gradientUnits="userSpaceOnUse">
<stop offset="0.3125" stop-color="#CE8F56"/>
<stop offset="1" stop-color="#93561F"/>
</linearGradient>
<linearGradient id="paint10_linear_1996_4571" x1="331.545" y1="312.886" x2="453.984" y2="423.813" gradientUnits="userSpaceOnUse">
<stop stop-color="#616161"/>
<stop offset="1" stop-color="#1B1B1B"/>
</linearGradient>
<clipPath id="clip0_1996_4571">
<rect width="194.449" height="67.71" fill="white" transform="matrix(-1 0 0 1 440.199 93.4409)"/>
</clipPath>
<clipPath id="clip1_1996_4571">
<rect width="194.449" height="67.71" fill="white" transform="matrix(-1 0 0 1 156.352 115.663)"/>
</clipPath>
</defs>
</svg>
