<svg width="2500" height="2500" viewBox="0 0 2500 2500" fill="none" xmlns="http://www.w3.org/2000/svg">
<rect width="2500" height="2500" fill="#D9D9D9"/>
<rect width="250" height="250" transform="translate(260 1145)" fill="#324C76"/>
<path d="M321.4 1279.05C321.4 1279.6 321.197 1280.07 320.792 1280.46C320.387 1280.82 319.917 1281 319.384 1281C318.787 1281 318.307 1280.82 317.944 1280.46C317.581 1280.07 317.4 1279.6 317.4 1279.05V1260.55C317.4 1260 317.592 1259.54 317.976 1259.18C318.36 1258.79 318.851 1258.6 319.448 1258.6C319.96 1258.6 320.408 1258.79 320.792 1259.18C321.197 1259.54 321.4 1260 321.4 1260.55V1279.05ZM324.901 1278.34C324.687 1278.05 324.591 1277.66 324.613 1277.19C324.634 1276.72 324.911 1276.32 325.445 1275.98C325.786 1275.76 326.149 1275.68 326.533 1275.72C326.917 1275.74 327.29 1275.93 327.653 1276.3C328.271 1276.91 328.922 1277.39 329.605 1277.74C330.287 1278.08 331.141 1278.25 332.165 1278.25C332.485 1278.23 332.837 1278.18 333.22 1278.12C333.605 1278.03 333.935 1277.86 334.213 1277.61C334.511 1277.33 334.661 1276.91 334.661 1276.36C334.661 1275.89 334.501 1275.52 334.181 1275.24C333.861 1274.96 333.434 1274.73 332.901 1274.54C332.389 1274.34 331.813 1274.16 331.173 1273.99C330.511 1273.8 329.829 1273.59 329.125 1273.35C328.442 1273.12 327.813 1272.82 327.237 1272.46C326.661 1272.07 326.191 1271.57 325.829 1270.95C325.466 1270.33 325.285 1269.55 325.285 1268.62C325.285 1267.55 325.583 1266.64 326.181 1265.9C326.778 1265.15 327.546 1264.57 328.485 1264.17C329.445 1263.76 330.447 1263.56 331.493 1263.56C332.154 1263.56 332.847 1263.65 333.573 1263.82C334.298 1263.97 334.991 1264.22 335.653 1264.58C336.314 1264.93 336.869 1265.38 337.317 1265.96C337.551 1266.28 337.69 1266.66 337.733 1267.11C337.775 1267.56 337.573 1267.97 337.125 1268.33C336.805 1268.58 336.431 1268.7 336.005 1268.68C335.578 1268.64 335.226 1268.49 334.949 1268.23C334.586 1267.76 334.095 1267.39 333.477 1267.11C332.879 1266.83 332.186 1266.7 331.397 1266.7C331.077 1266.7 330.725 1266.74 330.341 1266.82C329.978 1266.89 329.658 1267.05 329.381 1267.3C329.103 1267.54 328.965 1267.92 328.965 1268.46C328.965 1268.95 329.125 1269.34 329.445 1269.64C329.765 1269.92 330.191 1270.15 330.725 1270.34C331.279 1270.51 331.866 1270.69 332.485 1270.86C333.125 1271.03 333.775 1271.23 334.437 1271.46C335.098 1271.7 335.706 1272.01 336.261 1272.39C336.815 1272.78 337.263 1273.28 337.605 1273.9C337.946 1274.49 338.117 1275.26 338.117 1276.2C338.117 1277.29 337.797 1278.22 337.157 1278.98C336.517 1279.75 335.717 1280.34 334.757 1280.74C333.797 1281.13 332.815 1281.32 331.812 1281.32C330.554 1281.32 329.295 1281.11 328.036 1280.68C326.778 1280.23 325.733 1279.45 324.901 1278.34ZM345.49 1279.05C345.49 1279.6 345.298 1280.07 344.914 1280.46C344.551 1280.82 344.093 1281 343.538 1281C343.005 1281 342.557 1280.82 342.194 1280.46C341.831 1280.07 341.65 1279.6 341.65 1279.05V1259.27C341.65 1258.72 341.831 1258.26 342.194 1257.9C342.578 1257.51 343.047 1257.32 343.602 1257.32C344.157 1257.32 344.605 1257.51 344.946 1257.9C345.309 1258.26 345.49 1258.72 345.49 1259.27V1279.05ZM363.971 1263.56C364.526 1263.56 364.984 1263.74 365.347 1264.1C365.71 1264.47 365.891 1264.94 365.891 1265.51V1279.05C365.891 1279.6 365.71 1280.07 365.347 1280.46C364.984 1280.82 364.526 1281 363.971 1281C363.416 1281 362.958 1280.82 362.595 1280.46C362.232 1280.07 362.051 1279.6 362.051 1279.05V1277.48L362.755 1277.77C362.755 1278.05 362.606 1278.39 362.307 1278.79C362.008 1279.18 361.603 1279.56 361.091 1279.94C360.579 1280.33 359.971 1280.66 359.267 1280.94C358.584 1281.19 357.838 1281.32 357.027 1281.32C355.555 1281.32 354.222 1280.95 353.027 1280.2C351.832 1279.43 350.883 1278.39 350.179 1277.06C349.496 1275.72 349.155 1274.18 349.155 1272.46C349.155 1270.71 349.496 1269.17 350.179 1267.85C350.883 1266.5 351.822 1265.46 352.995 1264.71C354.168 1263.94 355.47 1263.56 356.899 1263.56C357.816 1263.56 358.659 1263.7 359.427 1263.98C360.195 1264.25 360.856 1264.61 361.411 1265.03C361.987 1265.46 362.424 1265.9 362.723 1266.34C363.043 1266.77 363.203 1267.13 363.203 1267.43L362.051 1267.85V1265.51C362.051 1264.96 362.232 1264.5 362.595 1264.14C362.958 1263.75 363.416 1263.56 363.971 1263.56ZM357.507 1277.8C358.446 1277.8 359.267 1277.57 359.971 1277.1C360.675 1276.63 361.219 1275.99 361.603 1275.18C362.008 1274.37 362.211 1273.46 362.211 1272.46C362.211 1271.43 362.008 1270.51 361.603 1269.7C361.219 1268.89 360.675 1268.25 359.971 1267.78C359.267 1267.31 358.446 1267.08 357.507 1267.08C356.59 1267.08 355.779 1267.31 355.075 1267.78C354.371 1268.25 353.816 1268.89 353.411 1269.7C353.027 1270.51 352.835 1271.43 352.835 1272.46C352.835 1273.46 353.027 1274.37 353.411 1275.18C353.816 1275.99 354.371 1276.63 355.075 1277.1C355.779 1277.57 356.59 1277.8 357.507 1277.8ZM379.201 1263.56C380.779 1263.56 381.974 1263.89 382.785 1264.55C383.617 1265.21 384.182 1266.1 384.481 1267.21C384.801 1268.3 384.961 1269.51 384.961 1270.86V1279.05C384.961 1279.6 384.779 1280.07 384.417 1280.46C384.054 1280.82 383.595 1281 383.041 1281C382.486 1281 382.027 1280.82 381.665 1280.46C381.302 1280.07 381.121 1279.6 381.121 1279.05V1270.86C381.121 1270.15 381.025 1269.52 380.833 1268.97C380.662 1268.39 380.342 1267.93 379.873 1267.59C379.403 1267.25 378.731 1267.08 377.857 1267.08C377.003 1267.08 376.278 1267.25 375.681 1267.59C375.105 1267.93 374.657 1268.39 374.337 1268.97C374.038 1269.52 373.889 1270.15 373.889 1270.86V1279.05C373.889 1279.6 373.707 1280.07 373.345 1280.46C372.982 1280.82 372.523 1281 371.969 1281C371.414 1281 370.955 1280.82 370.593 1280.46C370.23 1280.07 370.049 1279.6 370.049 1279.05V1265.83C370.049 1265.28 370.23 1264.82 370.593 1264.46C370.955 1264.07 371.414 1263.88 371.969 1263.88C372.523 1263.88 372.982 1264.07 373.345 1264.46C373.707 1264.82 373.889 1265.28 373.889 1265.83V1267.21L373.409 1267.11C373.601 1266.75 373.878 1266.37 374.241 1265.96C374.603 1265.53 375.03 1265.14 375.521 1264.78C376.011 1264.41 376.566 1264.13 377.185 1263.91C377.803 1263.68 378.475 1263.56 379.201 1263.56ZM403.127 1257.32C403.682 1257.32 404.141 1257.5 404.503 1257.86C404.866 1258.23 405.047 1258.7 405.047 1259.27V1279.05C405.047 1279.6 404.866 1280.07 404.503 1280.46C404.141 1280.82 403.682 1281 403.127 1281C402.573 1281 402.114 1280.82 401.751 1280.46C401.389 1280.07 401.207 1279.6 401.207 1279.05V1277.48L401.911 1277.77C401.911 1278.05 401.762 1278.39 401.463 1278.79C401.165 1279.18 400.759 1279.56 400.247 1279.94C399.735 1280.33 399.127 1280.66 398.423 1280.94C397.741 1281.19 396.994 1281.32 396.183 1281.32C394.711 1281.32 393.378 1280.95 392.183 1280.2C390.989 1279.43 390.039 1278.39 389.335 1277.06C388.653 1275.72 388.311 1274.18 388.311 1272.46C388.311 1270.71 388.653 1269.17 389.335 1267.85C390.039 1266.5 390.978 1265.46 392.151 1264.71C393.325 1263.94 394.626 1263.56 396.055 1263.56C396.973 1263.56 397.815 1263.7 398.583 1263.98C399.351 1264.25 400.013 1264.61 400.567 1265.03C401.143 1265.46 401.581 1265.9 401.879 1266.34C402.199 1266.77 402.359 1267.13 402.359 1267.43L401.207 1267.85V1259.27C401.207 1258.72 401.389 1258.26 401.751 1257.9C402.114 1257.51 402.573 1257.32 403.127 1257.32ZM396.663 1277.8C397.602 1277.8 398.423 1277.57 399.127 1277.1C399.831 1276.63 400.375 1275.99 400.759 1275.18C401.165 1274.37 401.367 1273.46 401.367 1272.46C401.367 1271.43 401.165 1270.51 400.759 1269.7C400.375 1268.89 399.831 1268.25 399.127 1267.78C398.423 1267.31 397.602 1267.08 396.663 1267.08C395.746 1267.08 394.935 1267.31 394.231 1267.78C393.527 1268.25 392.973 1268.89 392.567 1269.7C392.183 1270.51 391.991 1271.43 391.991 1272.46C391.991 1273.46 392.183 1274.37 392.567 1275.18C392.973 1275.99 393.527 1276.63 394.231 1277.1C394.935 1277.57 395.746 1277.8 396.663 1277.8ZM425.918 1281.32C424.083 1281.32 422.526 1280.84 421.246 1279.88C419.987 1278.9 419.027 1277.54 418.366 1275.82C417.704 1274.07 417.374 1272.06 417.374 1269.8C417.374 1267.52 417.704 1265.51 418.366 1263.78C419.027 1262.06 419.987 1260.71 421.246 1259.75C422.526 1258.77 424.083 1258.28 425.918 1258.28C427.752 1258.28 429.299 1258.77 430.558 1259.75C431.838 1260.71 432.808 1262.06 433.47 1263.78C434.131 1265.51 434.462 1267.52 434.462 1269.8C434.462 1272.06 434.131 1274.07 433.47 1275.82C432.808 1277.54 431.838 1278.9 430.558 1279.88C429.299 1280.84 427.752 1281.32 425.918 1281.32ZM425.918 1277.48C426.814 1277.48 427.582 1277.2 428.222 1276.65C428.883 1276.07 429.395 1275.22 429.758 1274.09C430.12 1272.94 430.302 1271.51 430.302 1269.8C430.302 1268.07 430.12 1266.64 429.758 1265.51C429.395 1264.38 428.883 1263.54 428.222 1262.98C427.582 1262.41 426.814 1262.12 425.918 1262.12C425.043 1262.12 424.275 1262.41 423.614 1262.98C422.952 1263.54 422.44 1264.38 422.078 1265.51C421.715 1266.64 421.534 1268.07 421.534 1269.8C421.534 1271.51 421.715 1272.94 422.078 1274.09C422.44 1275.22 422.952 1276.07 423.614 1276.65C424.275 1277.2 425.043 1277.48 425.918 1277.48ZM448.198 1281C447.665 1281 447.217 1280.82 446.854 1280.46C446.491 1280.07 446.31 1279.6 446.31 1279.05V1264.01L446.982 1264.17L440.806 1271.82L440.646 1271.4H451.974C452.486 1271.4 452.913 1271.57 453.254 1271.91C453.595 1272.25 453.766 1272.68 453.766 1273.19C453.766 1273.68 453.595 1274.1 453.254 1274.44C452.913 1274.76 452.486 1274.92 451.974 1274.92H437.99C437.542 1274.92 437.105 1274.74 436.678 1274.38C436.273 1274.01 436.07 1273.57 436.07 1273.03C436.07 1272.56 436.23 1272.14 436.55 1271.75L446.662 1259.37C446.833 1259.13 447.057 1258.95 447.334 1258.82C447.611 1258.67 447.921 1258.6 448.262 1258.6C448.817 1258.6 449.265 1258.79 449.606 1259.18C449.969 1259.54 450.15 1260 450.15 1260.55V1279.05C450.15 1279.6 449.958 1280.07 449.574 1280.46C449.211 1280.82 448.753 1281 448.198 1281Z" fill="white"/>
<rect width="250" height="250" transform="translate(1324 1783)" fill="#3F87B8"/>
<path d="M1386.4 1917.05C1386.4 1917.6 1386.2 1918.07 1385.79 1918.46C1385.39 1918.82 1384.92 1919 1384.38 1919C1383.79 1919 1383.31 1918.82 1382.94 1918.46C1382.58 1918.07 1382.4 1917.6 1382.4 1917.05V1898.55C1382.4 1898 1382.59 1897.54 1382.98 1897.18C1383.36 1896.79 1383.85 1896.6 1384.45 1896.6C1384.96 1896.6 1385.41 1896.79 1385.79 1897.18C1386.2 1897.54 1386.4 1898 1386.4 1898.55V1917.05ZM1389.9 1916.34C1389.69 1916.05 1389.59 1915.66 1389.61 1915.19C1389.63 1914.72 1389.91 1914.32 1390.44 1913.98C1390.79 1913.76 1391.15 1913.68 1391.53 1913.72C1391.92 1913.74 1392.29 1913.93 1392.65 1914.3C1393.27 1914.91 1393.92 1915.39 1394.6 1915.74C1395.29 1916.08 1396.14 1916.25 1397.16 1916.25C1397.48 1916.23 1397.84 1916.18 1398.22 1916.12C1398.6 1916.03 1398.94 1915.86 1399.21 1915.61C1399.51 1915.33 1399.66 1914.91 1399.66 1914.36C1399.66 1913.89 1399.5 1913.52 1399.18 1913.24C1398.86 1912.96 1398.43 1912.73 1397.9 1912.54C1397.39 1912.34 1396.81 1912.16 1396.17 1911.99C1395.51 1911.8 1394.83 1911.59 1394.12 1911.35C1393.44 1911.12 1392.81 1910.82 1392.24 1910.46C1391.66 1910.07 1391.19 1909.57 1390.83 1908.95C1390.47 1908.33 1390.28 1907.55 1390.28 1906.62C1390.28 1905.55 1390.58 1904.64 1391.18 1903.9C1391.78 1903.15 1392.55 1902.57 1393.48 1902.17C1394.44 1901.76 1395.45 1901.56 1396.49 1901.56C1397.15 1901.56 1397.85 1901.65 1398.57 1901.82C1399.3 1901.97 1399.99 1902.22 1400.65 1902.58C1401.31 1902.93 1401.87 1903.38 1402.32 1903.96C1402.55 1904.28 1402.69 1904.66 1402.73 1905.11C1402.78 1905.56 1402.57 1905.97 1402.12 1906.33C1401.8 1906.58 1401.43 1906.7 1401 1906.68C1400.58 1906.64 1400.23 1906.49 1399.95 1906.23C1399.59 1905.76 1399.1 1905.39 1398.48 1905.11C1397.88 1904.83 1397.19 1904.7 1396.4 1904.7C1396.08 1904.7 1395.72 1904.74 1395.34 1904.82C1394.98 1904.89 1394.66 1905.05 1394.38 1905.3C1394.1 1905.54 1393.96 1905.92 1393.96 1906.46C1393.96 1906.95 1394.12 1907.34 1394.44 1907.64C1394.76 1907.92 1395.19 1908.15 1395.72 1908.34C1396.28 1908.51 1396.87 1908.69 1397.48 1908.86C1398.12 1909.03 1398.78 1909.23 1399.44 1909.46C1400.1 1909.7 1400.71 1910.01 1401.26 1910.39C1401.82 1910.78 1402.26 1911.28 1402.6 1911.9C1402.95 1912.49 1403.12 1913.26 1403.12 1914.2C1403.12 1915.29 1402.8 1916.22 1402.16 1916.98C1401.52 1917.75 1400.72 1918.34 1399.76 1918.74C1398.8 1919.13 1397.82 1919.32 1396.81 1919.32C1395.55 1919.32 1394.3 1919.11 1393.04 1918.68C1391.78 1918.23 1390.73 1917.45 1389.9 1916.34ZM1410.49 1917.05C1410.49 1917.6 1410.3 1918.07 1409.91 1918.46C1409.55 1918.82 1409.09 1919 1408.54 1919C1408 1919 1407.56 1918.82 1407.19 1918.46C1406.83 1918.07 1406.65 1917.6 1406.65 1917.05V1897.27C1406.65 1896.72 1406.83 1896.26 1407.19 1895.9C1407.58 1895.51 1408.05 1895.32 1408.6 1895.32C1409.16 1895.32 1409.6 1895.51 1409.95 1895.9C1410.31 1896.26 1410.49 1896.72 1410.49 1897.27V1917.05ZM1428.97 1901.56C1429.53 1901.56 1429.98 1901.74 1430.35 1902.1C1430.71 1902.47 1430.89 1902.94 1430.89 1903.51V1917.05C1430.89 1917.6 1430.71 1918.07 1430.35 1918.46C1429.98 1918.82 1429.53 1919 1428.97 1919C1428.42 1919 1427.96 1918.82 1427.6 1918.46C1427.23 1918.07 1427.05 1917.6 1427.05 1917.05V1915.48L1427.76 1915.77C1427.76 1916.05 1427.61 1916.39 1427.31 1916.79C1427.01 1917.18 1426.6 1917.56 1426.09 1917.94C1425.58 1918.33 1424.97 1918.66 1424.27 1918.94C1423.58 1919.19 1422.84 1919.32 1422.03 1919.32C1420.56 1919.32 1419.22 1918.95 1418.03 1918.2C1416.83 1917.43 1415.88 1916.39 1415.18 1915.06C1414.5 1913.72 1414.16 1912.18 1414.16 1910.46C1414.16 1908.71 1414.5 1907.17 1415.18 1905.85C1415.88 1904.5 1416.82 1903.46 1418 1902.71C1419.17 1901.94 1420.47 1901.56 1421.9 1901.56C1422.82 1901.56 1423.66 1901.7 1424.43 1901.98C1425.2 1902.25 1425.86 1902.61 1426.41 1903.03C1426.99 1903.46 1427.42 1903.9 1427.72 1904.34C1428.04 1904.77 1428.2 1905.13 1428.2 1905.43L1427.05 1905.85V1903.51C1427.05 1902.96 1427.23 1902.5 1427.6 1902.14C1427.96 1901.75 1428.42 1901.56 1428.97 1901.56ZM1422.51 1915.8C1423.45 1915.8 1424.27 1915.57 1424.97 1915.1C1425.68 1914.63 1426.22 1913.99 1426.6 1913.18C1427.01 1912.37 1427.21 1911.46 1427.21 1910.46C1427.21 1909.43 1427.01 1908.51 1426.6 1907.7C1426.22 1906.89 1425.68 1906.25 1424.97 1905.78C1424.27 1905.31 1423.45 1905.08 1422.51 1905.08C1421.59 1905.08 1420.78 1905.31 1420.08 1905.78C1419.37 1906.25 1418.82 1906.89 1418.41 1907.7C1418.03 1908.51 1417.84 1909.43 1417.84 1910.46C1417.84 1911.46 1418.03 1912.37 1418.41 1913.18C1418.82 1913.99 1419.37 1914.63 1420.08 1915.1C1420.78 1915.57 1421.59 1915.8 1422.51 1915.8ZM1444.2 1901.56C1445.78 1901.56 1446.97 1901.89 1447.78 1902.55C1448.62 1903.21 1449.18 1904.1 1449.48 1905.21C1449.8 1906.3 1449.96 1907.51 1449.96 1908.86V1917.05C1449.96 1917.6 1449.78 1918.07 1449.42 1918.46C1449.05 1918.82 1448.6 1919 1448.04 1919C1447.49 1919 1447.03 1918.82 1446.66 1918.46C1446.3 1918.07 1446.12 1917.6 1446.12 1917.05V1908.86C1446.12 1908.15 1446.02 1907.52 1445.83 1906.97C1445.66 1906.39 1445.34 1905.93 1444.87 1905.59C1444.4 1905.25 1443.73 1905.08 1442.86 1905.08C1442 1905.08 1441.28 1905.25 1440.68 1905.59C1440.1 1905.93 1439.66 1906.39 1439.34 1906.97C1439.04 1907.52 1438.89 1908.15 1438.89 1908.86V1917.05C1438.89 1917.6 1438.71 1918.07 1438.34 1918.46C1437.98 1918.82 1437.52 1919 1436.97 1919C1436.41 1919 1435.96 1918.82 1435.59 1918.46C1435.23 1918.07 1435.05 1917.6 1435.05 1917.05V1903.83C1435.05 1903.28 1435.23 1902.82 1435.59 1902.46C1435.96 1902.07 1436.41 1901.88 1436.97 1901.88C1437.52 1901.88 1437.98 1902.07 1438.34 1902.46C1438.71 1902.82 1438.89 1903.28 1438.89 1903.83V1905.21L1438.41 1905.11C1438.6 1904.75 1438.88 1904.37 1439.24 1903.96C1439.6 1903.53 1440.03 1903.14 1440.52 1902.78C1441.01 1902.41 1441.57 1902.13 1442.18 1901.91C1442.8 1901.68 1443.48 1901.56 1444.2 1901.56ZM1468.13 1895.32C1468.68 1895.32 1469.14 1895.5 1469.5 1895.86C1469.87 1896.23 1470.05 1896.7 1470.05 1897.27V1917.05C1470.05 1917.6 1469.87 1918.07 1469.5 1918.46C1469.14 1918.82 1468.68 1919 1468.13 1919C1467.57 1919 1467.11 1918.82 1466.75 1918.46C1466.39 1918.07 1466.21 1917.6 1466.21 1917.05V1915.48L1466.91 1915.77C1466.91 1916.05 1466.76 1916.39 1466.46 1916.79C1466.16 1917.18 1465.76 1917.56 1465.25 1917.94C1464.74 1918.33 1464.13 1918.66 1463.42 1918.94C1462.74 1919.19 1461.99 1919.32 1461.18 1919.32C1459.71 1919.32 1458.38 1918.95 1457.18 1918.2C1455.99 1917.43 1455.04 1916.39 1454.34 1915.06C1453.65 1913.72 1453.31 1912.18 1453.31 1910.46C1453.31 1908.71 1453.65 1907.17 1454.34 1905.85C1455.04 1904.5 1455.98 1903.46 1457.15 1902.71C1458.32 1901.94 1459.63 1901.56 1461.06 1901.56C1461.97 1901.56 1462.82 1901.7 1463.58 1901.98C1464.35 1902.25 1465.01 1902.61 1465.57 1903.03C1466.14 1903.46 1466.58 1903.9 1466.88 1904.34C1467.2 1904.77 1467.36 1905.13 1467.36 1905.43L1466.21 1905.85V1897.27C1466.21 1896.72 1466.39 1896.26 1466.75 1895.9C1467.11 1895.51 1467.57 1895.32 1468.13 1895.32ZM1461.66 1915.8C1462.6 1915.8 1463.42 1915.57 1464.13 1915.1C1464.83 1914.63 1465.38 1913.99 1465.76 1913.18C1466.16 1912.37 1466.37 1911.46 1466.37 1910.46C1466.37 1909.43 1466.16 1908.51 1465.76 1907.7C1465.38 1906.89 1464.83 1906.25 1464.13 1905.78C1463.42 1905.31 1462.6 1905.08 1461.66 1905.08C1460.75 1905.08 1459.94 1905.31 1459.23 1905.78C1458.53 1906.25 1457.97 1906.89 1457.57 1907.7C1457.18 1908.51 1456.99 1909.43 1456.99 1910.46C1456.99 1911.46 1457.18 1912.37 1457.57 1913.18C1457.97 1913.99 1458.53 1914.63 1459.23 1915.1C1459.94 1915.57 1460.75 1915.8 1461.66 1915.8ZM1490.92 1919.32C1489.08 1919.32 1487.53 1918.84 1486.25 1917.88C1484.99 1916.9 1484.03 1915.54 1483.37 1913.82C1482.7 1912.07 1482.37 1910.06 1482.37 1907.8C1482.37 1905.52 1482.7 1903.51 1483.37 1901.78C1484.03 1900.06 1484.99 1898.71 1486.25 1897.75C1487.53 1896.77 1489.08 1896.28 1490.92 1896.28C1492.75 1896.28 1494.3 1896.77 1495.56 1897.75C1496.84 1898.71 1497.81 1900.06 1498.47 1901.78C1499.13 1903.51 1499.46 1905.52 1499.46 1907.8C1499.46 1910.06 1499.13 1912.07 1498.47 1913.82C1497.81 1915.54 1496.84 1916.9 1495.56 1917.88C1494.3 1918.84 1492.75 1919.32 1490.92 1919.32ZM1490.92 1915.48C1491.81 1915.48 1492.58 1915.2 1493.22 1914.65C1493.88 1914.07 1494.4 1913.22 1494.76 1912.09C1495.12 1910.94 1495.3 1909.51 1495.3 1907.8C1495.3 1906.07 1495.12 1904.64 1494.76 1903.51C1494.4 1902.38 1493.88 1901.54 1493.22 1900.98C1492.58 1900.41 1491.81 1900.12 1490.92 1900.12C1490.04 1900.12 1489.28 1900.41 1488.61 1900.98C1487.95 1901.54 1487.44 1902.38 1487.08 1903.51C1486.72 1904.64 1486.53 1906.07 1486.53 1907.8C1486.53 1909.51 1486.72 1910.94 1487.08 1912.09C1487.44 1913.22 1487.95 1914.07 1488.61 1914.65C1489.28 1915.2 1490.04 1915.48 1490.92 1915.48ZM1505.87 1919.16C1505.34 1919.16 1504.87 1918.99 1504.46 1918.65C1504.08 1918.29 1503.88 1917.84 1503.88 1917.3C1503.88 1917.01 1503.95 1916.72 1504.08 1916.44L1511.92 1899.45L1512.27 1900.31H1503.02C1502.51 1900.31 1502.08 1900.14 1501.74 1899.8C1501.4 1899.46 1501.23 1899.03 1501.23 1898.52C1501.23 1898.03 1501.4 1897.62 1501.74 1897.3C1502.08 1896.96 1502.51 1896.79 1503.02 1896.79H1514.16C1514.71 1896.79 1515.19 1896.97 1515.6 1897.34C1516.02 1897.68 1516.24 1898.13 1516.24 1898.68C1516.24 1898.96 1516.17 1899.25 1516.04 1899.54L1507.63 1917.94C1507.48 1918.33 1507.23 1918.63 1506.89 1918.84C1506.57 1919.05 1506.23 1919.16 1505.87 1919.16Z" fill="white"/>
<rect width="250" height="250" transform="translate(750 465)" fill="#B3E1EB"/>
<path d="M811.9 599.048C811.9 599.603 811.697 600.072 811.292 600.456C810.887 600.819 810.417 601 809.884 601C809.287 601 808.807 600.819 808.444 600.456C808.081 600.072 807.9 599.603 807.9 599.048V580.552C807.9 579.997 808.092 579.539 808.476 579.176C808.86 578.792 809.351 578.6 809.948 578.6C810.46 578.6 810.908 578.792 811.292 579.176C811.697 579.539 811.9 579.997 811.9 580.552V599.048ZM815.401 598.344C815.187 598.045 815.091 597.661 815.113 597.192C815.134 596.723 815.411 596.317 815.945 595.976C816.286 595.763 816.649 595.677 817.033 595.72C817.417 595.741 817.79 595.933 818.153 596.296C818.771 596.915 819.422 597.395 820.105 597.736C820.787 598.077 821.641 598.248 822.665 598.248C822.985 598.227 823.337 598.184 823.72 598.12C824.105 598.035 824.435 597.864 824.713 597.608C825.011 597.331 825.161 596.915 825.161 596.36C825.161 595.891 825.001 595.517 824.681 595.24C824.361 594.963 823.934 594.728 823.401 594.536C822.889 594.344 822.313 594.163 821.673 593.992C821.011 593.8 820.329 593.587 819.625 593.352C818.942 593.117 818.313 592.819 817.737 592.456C817.161 592.072 816.691 591.571 816.329 590.952C815.966 590.333 815.785 589.555 815.785 588.616C815.785 587.549 816.083 586.643 816.681 585.896C817.278 585.149 818.046 584.573 818.985 584.168C819.945 583.763 820.947 583.56 821.993 583.56C822.654 583.56 823.347 583.645 824.073 583.816C824.798 583.965 825.491 584.221 826.153 584.584C826.814 584.925 827.369 585.384 827.817 585.96C828.051 586.28 828.19 586.664 828.233 587.112C828.275 587.56 828.073 587.965 827.625 588.328C827.305 588.584 826.931 588.701 826.505 588.68C826.078 588.637 825.726 588.488 825.449 588.232C825.086 587.763 824.595 587.389 823.977 587.112C823.379 586.835 822.686 586.696 821.897 586.696C821.577 586.696 821.225 586.739 820.841 586.824C820.478 586.888 820.158 587.048 819.881 587.304C819.603 587.539 819.465 587.923 819.465 588.456C819.465 588.947 819.625 589.341 819.945 589.64C820.265 589.917 820.691 590.152 821.225 590.344C821.779 590.515 822.366 590.685 822.985 590.856C823.625 591.027 824.275 591.229 824.937 591.464C825.598 591.699 826.206 592.008 826.761 592.392C827.315 592.776 827.763 593.277 828.105 593.896C828.446 594.493 828.617 595.261 828.617 596.2C828.617 597.288 828.297 598.216 827.657 598.984C827.017 599.752 826.217 600.339 825.257 600.744C824.297 601.128 823.315 601.32 822.312 601.32C821.054 601.32 819.795 601.107 818.536 600.68C817.278 600.232 816.233 599.453 815.401 598.344ZM835.99 599.048C835.99 599.603 835.798 600.072 835.414 600.456C835.051 600.819 834.593 601 834.038 601C833.505 601 833.057 600.819 832.694 600.456C832.331 600.072 832.15 599.603 832.15 599.048V579.272C832.15 578.717 832.331 578.259 832.694 577.896C833.078 577.512 833.547 577.32 834.102 577.32C834.657 577.32 835.105 577.512 835.446 577.896C835.809 578.259 835.99 578.717 835.99 579.272V599.048ZM854.471 583.56C855.026 583.56 855.484 583.741 855.847 584.104C856.21 584.467 856.391 584.936 856.391 585.512V599.048C856.391 599.603 856.21 600.072 855.847 600.456C855.484 600.819 855.026 601 854.471 601C853.916 601 853.458 600.819 853.095 600.456C852.732 600.072 852.551 599.603 852.551 599.048V597.48L853.255 597.768C853.255 598.045 853.106 598.387 852.807 598.792C852.508 599.176 852.103 599.56 851.591 599.944C851.079 600.328 850.471 600.659 849.767 600.936C849.084 601.192 848.338 601.32 847.527 601.32C846.055 601.32 844.722 600.947 843.527 600.2C842.332 599.432 841.383 598.387 840.679 597.064C839.996 595.72 839.655 594.184 839.655 592.456C839.655 590.707 839.996 589.171 840.679 587.848C841.383 586.504 842.322 585.459 843.495 584.712C844.668 583.944 845.97 583.56 847.399 583.56C848.316 583.56 849.159 583.699 849.927 583.976C850.695 584.253 851.356 584.605 851.911 585.032C852.487 585.459 852.924 585.896 853.223 586.344C853.543 586.771 853.703 587.133 853.703 587.432L852.551 587.848V585.512C852.551 584.957 852.732 584.499 853.095 584.136C853.458 583.752 853.916 583.56 854.471 583.56ZM848.007 597.8C848.946 597.8 849.767 597.565 850.471 597.096C851.175 596.627 851.719 595.987 852.103 595.176C852.508 594.365 852.711 593.459 852.711 592.456C852.711 591.432 852.508 590.515 852.103 589.704C851.719 588.893 851.175 588.253 850.471 587.784C849.767 587.315 848.946 587.08 848.007 587.08C847.09 587.08 846.279 587.315 845.575 587.784C844.871 588.253 844.316 588.893 843.911 589.704C843.527 590.515 843.335 591.432 843.335 592.456C843.335 593.459 843.527 594.365 843.911 595.176C844.316 595.987 844.871 596.627 845.575 597.096C846.279 597.565 847.09 597.8 848.007 597.8ZM869.701 583.56C871.279 583.56 872.474 583.891 873.285 584.552C874.117 585.213 874.682 586.099 874.981 587.208C875.301 588.296 875.461 589.512 875.461 590.856V599.048C875.461 599.603 875.279 600.072 874.917 600.456C874.554 600.819 874.095 601 873.541 601C872.986 601 872.527 600.819 872.165 600.456C871.802 600.072 871.621 599.603 871.621 599.048V590.856C871.621 590.152 871.525 589.523 871.333 588.968C871.162 588.392 870.842 587.933 870.373 587.592C869.903 587.251 869.231 587.08 868.357 587.08C867.503 587.08 866.778 587.251 866.181 587.592C865.605 587.933 865.157 588.392 864.837 588.968C864.538 589.523 864.389 590.152 864.389 590.856V599.048C864.389 599.603 864.207 600.072 863.845 600.456C863.482 600.819 863.023 601 862.469 601C861.914 601 861.455 600.819 861.093 600.456C860.73 600.072 860.549 599.603 860.549 599.048V585.832C860.549 585.277 860.73 584.819 861.093 584.456C861.455 584.072 861.914 583.88 862.469 583.88C863.023 583.88 863.482 584.072 863.845 584.456C864.207 584.819 864.389 585.277 864.389 585.832V587.208L863.909 587.112C864.101 586.749 864.378 586.365 864.741 585.96C865.103 585.533 865.53 585.139 866.021 584.776C866.511 584.413 867.066 584.125 867.685 583.912C868.303 583.677 868.975 583.56 869.701 583.56ZM893.627 577.32C894.182 577.32 894.641 577.501 895.003 577.864C895.366 578.227 895.547 578.696 895.547 579.272V599.048C895.547 599.603 895.366 600.072 895.003 600.456C894.641 600.819 894.182 601 893.627 601C893.073 601 892.614 600.819 892.251 600.456C891.889 600.072 891.707 599.603 891.707 599.048V597.48L892.411 597.768C892.411 598.045 892.262 598.387 891.963 598.792C891.665 599.176 891.259 599.56 890.747 599.944C890.235 600.328 889.627 600.659 888.923 600.936C888.241 601.192 887.494 601.32 886.683 601.32C885.211 601.32 883.878 600.947 882.683 600.2C881.489 599.432 880.539 598.387 879.835 597.064C879.153 595.72 878.811 594.184 878.811 592.456C878.811 590.707 879.153 589.171 879.835 587.848C880.539 586.504 881.478 585.459 882.651 584.712C883.825 583.944 885.126 583.56 886.555 583.56C887.473 583.56 888.315 583.699 889.083 583.976C889.851 584.253 890.513 584.605 891.067 585.032C891.643 585.459 892.081 585.896 892.379 586.344C892.699 586.771 892.859 587.133 892.859 587.432L891.707 587.848V579.272C891.707 578.717 891.889 578.259 892.251 577.896C892.614 577.512 893.073 577.32 893.627 577.32ZM887.163 597.8C888.102 597.8 888.923 597.565 889.627 597.096C890.331 596.627 890.875 595.987 891.259 595.176C891.665 594.365 891.867 593.459 891.867 592.456C891.867 591.432 891.665 590.515 891.259 589.704C890.875 588.893 890.331 588.253 889.627 587.784C888.923 587.315 888.102 587.08 887.163 587.08C886.246 587.08 885.435 587.315 884.731 587.784C884.027 588.253 883.473 588.893 883.067 589.704C882.683 590.515 882.491 591.432 882.491 592.456C882.491 593.459 882.683 594.365 883.067 595.176C883.473 595.987 884.027 596.627 884.731 597.096C885.435 597.565 886.246 597.8 887.163 597.8ZM916.418 601.32C914.583 601.32 913.026 600.84 911.746 599.88C910.487 598.899 909.527 597.544 908.866 595.816C908.204 594.067 907.874 592.061 907.874 589.8C907.874 587.517 908.204 585.512 908.866 583.784C909.527 582.056 910.487 580.712 911.746 579.752C913.026 578.771 914.583 578.28 916.418 578.28C918.252 578.28 919.799 578.771 921.058 579.752C922.338 580.712 923.308 582.056 923.97 583.784C924.631 585.512 924.962 587.517 924.962 589.8C924.962 592.061 924.631 594.067 923.97 595.816C923.308 597.544 922.338 598.899 921.058 599.88C919.799 600.84 918.252 601.32 916.418 601.32ZM916.418 597.48C917.314 597.48 918.082 597.203 918.722 596.648C919.383 596.072 919.895 595.219 920.258 594.088C920.62 592.936 920.802 591.507 920.802 589.8C920.802 588.072 920.62 586.643 920.258 585.512C919.895 584.381 919.383 583.539 918.722 582.984C918.082 582.408 917.314 582.12 916.418 582.12C915.543 582.12 914.775 582.408 914.114 582.984C913.452 583.539 912.94 584.381 912.578 585.512C912.215 586.643 912.034 588.072 912.034 589.8C912.034 591.507 912.215 592.936 912.578 594.088C912.94 595.219 913.452 596.072 914.114 596.648C914.775 597.203 915.543 597.48 916.418 597.48ZM940.906 597.48C941.418 597.48 941.845 597.651 942.186 597.992C942.527 598.333 942.698 598.76 942.698 599.272C942.698 599.763 942.527 600.179 942.186 600.52C941.845 600.84 941.418 601 940.906 601H930.026C929.471 601 929.034 600.829 928.714 600.488C928.394 600.147 928.234 599.709 928.234 599.176C928.234 598.643 928.426 598.173 928.81 597.768L935.786 590.312C936.575 589.459 937.194 588.584 937.642 587.688C938.111 586.792 938.346 586.013 938.346 585.352C938.346 584.285 938.037 583.432 937.418 582.792C936.799 582.131 935.978 581.8 934.954 581.8C934.549 581.8 934.133 581.896 933.706 582.088C933.279 582.28 932.863 582.547 932.458 582.888C932.074 583.229 931.711 583.624 931.37 584.072C931.114 584.413 930.858 584.627 930.602 584.712C930.346 584.797 930.111 584.84 929.898 584.84C929.429 584.84 928.991 584.669 928.586 584.328C928.202 583.965 928.01 583.549 928.01 583.08C928.01 582.717 928.127 582.365 928.362 582.024C928.618 581.683 928.927 581.331 929.29 580.968C929.823 580.435 930.421 579.965 931.082 579.56C931.743 579.155 932.426 578.845 933.13 578.632C933.834 578.397 934.517 578.28 935.178 578.28C936.607 578.28 937.845 578.568 938.89 579.144C939.957 579.699 940.778 580.499 941.354 581.544C941.93 582.568 942.218 583.784 942.218 585.192C942.218 586.365 941.866 587.677 941.162 589.128C940.479 590.557 939.551 591.901 938.378 593.16L934.058 597.768L933.706 597.48H940.906Z" fill="white"/>
<rect width="250" height="250" transform="translate(231 153)" fill="#DC5C1D"/>
<path d="M295.4 287.048C295.4 287.603 295.197 288.072 294.792 288.456C294.387 288.819 293.917 289 293.384 289C292.787 289 292.307 288.819 291.944 288.456C291.581 288.072 291.4 287.603 291.4 287.048V268.552C291.4 267.997 291.592 267.539 291.976 267.176C292.36 266.792 292.851 266.6 293.448 266.6C293.96 266.6 294.408 266.792 294.792 267.176C295.197 267.539 295.4 267.997 295.4 268.552V287.048ZM298.901 286.344C298.687 286.045 298.591 285.661 298.613 285.192C298.634 284.723 298.911 284.317 299.445 283.976C299.786 283.763 300.149 283.677 300.533 283.72C300.917 283.741 301.29 283.933 301.653 284.296C302.271 284.915 302.922 285.395 303.605 285.736C304.287 286.077 305.141 286.248 306.165 286.248C306.485 286.227 306.837 286.184 307.22 286.12C307.605 286.035 307.935 285.864 308.213 285.608C308.511 285.331 308.661 284.915 308.661 284.36C308.661 283.891 308.501 283.517 308.181 283.24C307.861 282.963 307.434 282.728 306.901 282.536C306.389 282.344 305.813 282.163 305.173 281.992C304.511 281.8 303.829 281.587 303.125 281.352C302.442 281.117 301.813 280.819 301.237 280.456C300.661 280.072 300.191 279.571 299.829 278.952C299.466 278.333 299.285 277.555 299.285 276.616C299.285 275.549 299.583 274.643 300.181 273.896C300.778 273.149 301.546 272.573 302.485 272.168C303.445 271.763 304.447 271.56 305.493 271.56C306.154 271.56 306.847 271.645 307.573 271.816C308.298 271.965 308.991 272.221 309.653 272.584C310.314 272.925 310.869 273.384 311.317 273.96C311.551 274.28 311.69 274.664 311.733 275.112C311.775 275.56 311.573 275.965 311.125 276.328C310.805 276.584 310.431 276.701 310.005 276.68C309.578 276.637 309.226 276.488 308.949 276.232C308.586 275.763 308.095 275.389 307.477 275.112C306.879 274.835 306.186 274.696 305.397 274.696C305.077 274.696 304.725 274.739 304.341 274.824C303.978 274.888 303.658 275.048 303.381 275.304C303.103 275.539 302.965 275.923 302.965 276.456C302.965 276.947 303.125 277.341 303.445 277.64C303.765 277.917 304.191 278.152 304.725 278.344C305.279 278.515 305.866 278.685 306.485 278.856C307.125 279.027 307.775 279.229 308.437 279.464C309.098 279.699 309.706 280.008 310.261 280.392C310.815 280.776 311.263 281.277 311.605 281.896C311.946 282.493 312.117 283.261 312.117 284.2C312.117 285.288 311.797 286.216 311.157 286.984C310.517 287.752 309.717 288.339 308.757 288.744C307.797 289.128 306.815 289.32 305.812 289.32C304.554 289.32 303.295 289.107 302.036 288.68C300.778 288.232 299.733 287.453 298.901 286.344ZM319.49 287.048C319.49 287.603 319.298 288.072 318.914 288.456C318.551 288.819 318.093 289 317.538 289C317.005 289 316.557 288.819 316.194 288.456C315.831 288.072 315.65 287.603 315.65 287.048V267.272C315.65 266.717 315.831 266.259 316.194 265.896C316.578 265.512 317.047 265.32 317.602 265.32C318.157 265.32 318.605 265.512 318.946 265.896C319.309 266.259 319.49 266.717 319.49 267.272V287.048ZM337.971 271.56C338.526 271.56 338.984 271.741 339.347 272.104C339.71 272.467 339.891 272.936 339.891 273.512V287.048C339.891 287.603 339.71 288.072 339.347 288.456C338.984 288.819 338.526 289 337.971 289C337.416 289 336.958 288.819 336.595 288.456C336.232 288.072 336.051 287.603 336.051 287.048V285.48L336.755 285.768C336.755 286.045 336.606 286.387 336.307 286.792C336.008 287.176 335.603 287.56 335.091 287.944C334.579 288.328 333.971 288.659 333.267 288.936C332.584 289.192 331.838 289.32 331.027 289.32C329.555 289.32 328.222 288.947 327.027 288.2C325.832 287.432 324.883 286.387 324.179 285.064C323.496 283.72 323.155 282.184 323.155 280.456C323.155 278.707 323.496 277.171 324.179 275.848C324.883 274.504 325.822 273.459 326.995 272.712C328.168 271.944 329.47 271.56 330.899 271.56C331.816 271.56 332.659 271.699 333.427 271.976C334.195 272.253 334.856 272.605 335.411 273.032C335.987 273.459 336.424 273.896 336.723 274.344C337.043 274.771 337.203 275.133 337.203 275.432L336.051 275.848V273.512C336.051 272.957 336.232 272.499 336.595 272.136C336.958 271.752 337.416 271.56 337.971 271.56ZM331.507 285.8C332.446 285.8 333.267 285.565 333.971 285.096C334.675 284.627 335.219 283.987 335.603 283.176C336.008 282.365 336.211 281.459 336.211 280.456C336.211 279.432 336.008 278.515 335.603 277.704C335.219 276.893 334.675 276.253 333.971 275.784C333.267 275.315 332.446 275.08 331.507 275.08C330.59 275.08 329.779 275.315 329.075 275.784C328.371 276.253 327.816 276.893 327.411 277.704C327.027 278.515 326.835 279.432 326.835 280.456C326.835 281.459 327.027 282.365 327.411 283.176C327.816 283.987 328.371 284.627 329.075 285.096C329.779 285.565 330.59 285.8 331.507 285.8ZM353.201 271.56C354.779 271.56 355.974 271.891 356.785 272.552C357.617 273.213 358.182 274.099 358.481 275.208C358.801 276.296 358.961 277.512 358.961 278.856V287.048C358.961 287.603 358.779 288.072 358.417 288.456C358.054 288.819 357.595 289 357.041 289C356.486 289 356.027 288.819 355.665 288.456C355.302 288.072 355.121 287.603 355.121 287.048V278.856C355.121 278.152 355.025 277.523 354.833 276.968C354.662 276.392 354.342 275.933 353.873 275.592C353.403 275.251 352.731 275.08 351.857 275.08C351.003 275.08 350.278 275.251 349.681 275.592C349.105 275.933 348.657 276.392 348.337 276.968C348.038 277.523 347.889 278.152 347.889 278.856V287.048C347.889 287.603 347.707 288.072 347.345 288.456C346.982 288.819 346.523 289 345.969 289C345.414 289 344.955 288.819 344.593 288.456C344.23 288.072 344.049 287.603 344.049 287.048V273.832C344.049 273.277 344.23 272.819 344.593 272.456C344.955 272.072 345.414 271.88 345.969 271.88C346.523 271.88 346.982 272.072 347.345 272.456C347.707 272.819 347.889 273.277 347.889 273.832V275.208L347.409 275.112C347.601 274.749 347.878 274.365 348.241 273.96C348.603 273.533 349.03 273.139 349.521 272.776C350.011 272.413 350.566 272.125 351.185 271.912C351.803 271.677 352.475 271.56 353.201 271.56ZM377.127 265.32C377.682 265.32 378.141 265.501 378.503 265.864C378.866 266.227 379.047 266.696 379.047 267.272V287.048C379.047 287.603 378.866 288.072 378.503 288.456C378.141 288.819 377.682 289 377.127 289C376.573 289 376.114 288.819 375.751 288.456C375.389 288.072 375.207 287.603 375.207 287.048V285.48L375.911 285.768C375.911 286.045 375.762 286.387 375.463 286.792C375.165 287.176 374.759 287.56 374.247 287.944C373.735 288.328 373.127 288.659 372.423 288.936C371.741 289.192 370.994 289.32 370.183 289.32C368.711 289.32 367.378 288.947 366.183 288.2C364.989 287.432 364.039 286.387 363.335 285.064C362.653 283.72 362.311 282.184 362.311 280.456C362.311 278.707 362.653 277.171 363.335 275.848C364.039 274.504 364.978 273.459 366.151 272.712C367.325 271.944 368.626 271.56 370.055 271.56C370.973 271.56 371.815 271.699 372.583 271.976C373.351 272.253 374.013 272.605 374.567 273.032C375.143 273.459 375.581 273.896 375.879 274.344C376.199 274.771 376.359 275.133 376.359 275.432L375.207 275.848V267.272C375.207 266.717 375.389 266.259 375.751 265.896C376.114 265.512 376.573 265.32 377.127 265.32ZM370.663 285.8C371.602 285.8 372.423 285.565 373.127 285.096C373.831 284.627 374.375 283.987 374.759 283.176C375.165 282.365 375.367 281.459 375.367 280.456C375.367 279.432 375.165 278.515 374.759 277.704C374.375 276.893 373.831 276.253 373.127 275.784C372.423 275.315 371.602 275.08 370.663 275.08C369.746 275.08 368.935 275.315 368.231 275.784C367.527 276.253 366.973 276.893 366.567 277.704C366.183 278.515 365.991 279.432 365.991 280.456C365.991 281.459 366.183 282.365 366.567 283.176C366.973 283.987 367.527 284.627 368.231 285.096C368.935 285.565 369.746 285.8 370.663 285.8ZM399.918 289.32C398.083 289.32 396.526 288.84 395.246 287.88C393.987 286.899 393.027 285.544 392.366 283.816C391.704 282.067 391.374 280.061 391.374 277.8C391.374 275.517 391.704 273.512 392.366 271.784C393.027 270.056 393.987 268.712 395.246 267.752C396.526 266.771 398.083 266.28 399.918 266.28C401.752 266.28 403.299 266.771 404.558 267.752C405.838 268.712 406.808 270.056 407.47 271.784C408.131 273.512 408.462 275.517 408.462 277.8C408.462 280.061 408.131 282.067 407.47 283.816C406.808 285.544 405.838 286.899 404.558 287.88C403.299 288.84 401.752 289.32 399.918 289.32ZM399.918 285.48C400.814 285.48 401.582 285.203 402.222 284.648C402.883 284.072 403.395 283.219 403.758 282.088C404.12 280.936 404.302 279.507 404.302 277.8C404.302 276.072 404.12 274.643 403.758 273.512C403.395 272.381 402.883 271.539 402.222 270.984C401.582 270.408 400.814 270.12 399.918 270.12C399.043 270.12 398.275 270.408 397.614 270.984C396.952 271.539 396.44 272.381 396.078 273.512C395.715 274.643 395.534 276.072 395.534 277.8C395.534 279.507 395.715 280.936 396.078 282.088C396.44 283.219 396.952 284.072 397.614 284.648C398.275 285.203 399.043 285.48 399.918 285.48ZM417.366 289C416.769 289 416.278 288.819 415.894 288.456C415.51 288.072 415.318 287.603 415.318 287.048V270.92L415.766 271.624L413.43 273.352C413.131 273.587 412.758 273.704 412.31 273.704C411.798 273.704 411.35 273.512 410.966 273.128C410.582 272.744 410.39 272.285 410.39 271.752C410.39 271.069 410.721 270.515 411.382 270.088L415.99 267.016C416.203 266.867 416.438 266.76 416.694 266.696C416.971 266.632 417.227 266.6 417.462 266.6C418.081 266.6 418.571 266.792 418.934 267.176C419.297 267.539 419.478 267.997 419.478 268.552V287.048C419.478 287.603 419.275 288.072 418.87 288.456C418.486 288.819 417.985 289 417.366 289Z" fill="white"/>
<rect width="250" height="250" transform="translate(1125 1125)" fill="#79B6A8"/>
<path d="M1180.92 1238.57C1181.21 1238.57 1181.52 1238.65 1181.84 1238.82C1182.19 1238.97 1182.44 1239.18 1182.61 1239.43L1190.39 1251.4L1188.79 1251.34L1196.76 1239.43C1197.16 1238.86 1197.68 1238.57 1198.32 1238.57C1198.84 1238.57 1199.29 1238.75 1199.7 1239.11C1200.11 1239.47 1200.31 1239.94 1200.31 1240.52V1259.05C1200.31 1259.6 1200.13 1260.07 1199.76 1260.46C1199.4 1260.82 1198.92 1261 1198.32 1261C1197.73 1261 1197.24 1260.82 1196.85 1260.46C1196.49 1260.07 1196.31 1259.6 1196.31 1259.05V1243.98L1197.56 1244.26L1191.03 1254.22C1190.84 1254.45 1190.59 1254.65 1190.29 1254.82C1190.01 1254.99 1189.73 1255.07 1189.43 1255.05C1189.15 1255.07 1188.86 1254.99 1188.56 1254.82C1188.29 1254.65 1188.05 1254.45 1187.86 1254.22L1181.75 1244.55L1182.58 1242.86V1259.05C1182.58 1259.6 1182.41 1260.07 1182.07 1260.46C1181.73 1260.82 1181.28 1261 1180.72 1261C1180.19 1261 1179.75 1260.82 1179.41 1260.46C1179.07 1260.07 1178.9 1259.6 1178.9 1259.05V1240.52C1178.9 1239.99 1179.09 1239.53 1179.48 1239.14C1179.88 1238.76 1180.36 1238.57 1180.92 1238.57ZM1217.5 1243.88C1218.06 1243.88 1218.52 1244.07 1218.88 1244.46C1219.24 1244.82 1219.42 1245.28 1219.42 1245.83V1259.43C1219.42 1261.39 1219.05 1262.95 1218.3 1264.1C1217.58 1265.28 1216.6 1266.12 1215.36 1266.63C1214.12 1267.14 1212.73 1267.4 1211.2 1267.4C1210.52 1267.4 1209.79 1267.35 1209.02 1267.24C1208.25 1267.13 1207.63 1266.97 1207.13 1266.76C1206.49 1266.48 1206.05 1266.13 1205.79 1265.7C1205.56 1265.3 1205.51 1264.86 1205.66 1264.39C1205.85 1263.77 1206.16 1263.35 1206.59 1263.11C1207.02 1262.9 1207.47 1262.88 1207.93 1263.05C1208.28 1263.15 1208.72 1263.31 1209.28 1263.53C1209.83 1263.76 1210.47 1263.88 1211.2 1263.88C1212.18 1263.88 1212.99 1263.74 1213.63 1263.46C1214.29 1263.21 1214.78 1262.76 1215.1 1262.12C1215.44 1261.5 1215.61 1260.65 1215.61 1259.56V1257.42L1216.29 1258.18C1215.92 1258.89 1215.47 1259.47 1214.91 1259.94C1214.38 1260.39 1213.74 1260.73 1212.99 1260.97C1212.24 1261.2 1211.39 1261.32 1210.43 1261.32C1209.3 1261.32 1208.31 1261.06 1207.45 1260.55C1206.62 1260.02 1205.97 1259.29 1205.5 1258.38C1205.03 1257.44 1204.8 1256.37 1204.8 1255.18V1245.83C1204.8 1245.28 1204.98 1244.82 1205.34 1244.46C1205.71 1244.07 1206.16 1243.88 1206.72 1243.88C1207.27 1243.88 1207.73 1244.07 1208.09 1244.46C1208.46 1244.82 1208.64 1245.28 1208.64 1245.83V1254.02C1208.64 1255.41 1208.94 1256.39 1209.53 1256.97C1210.15 1257.52 1211.01 1257.8 1212.09 1257.8C1212.84 1257.8 1213.47 1257.66 1213.98 1257.38C1214.49 1257.09 1214.89 1256.66 1215.17 1256.1C1215.44 1255.53 1215.58 1254.83 1215.58 1254.02V1245.83C1215.58 1245.28 1215.76 1244.82 1216.13 1244.46C1216.49 1244.07 1216.95 1243.88 1217.5 1243.88ZM1236.87 1259.05C1236.87 1259.6 1236.67 1260.07 1236.26 1260.46C1235.86 1260.82 1235.39 1261 1234.85 1261C1234.26 1261 1233.78 1260.82 1233.41 1260.46C1233.05 1260.07 1232.87 1259.6 1232.87 1259.05V1240.55C1232.87 1240 1233.06 1239.54 1233.44 1239.18C1233.83 1238.79 1234.32 1238.6 1234.92 1238.6C1235.43 1238.6 1235.88 1238.79 1236.26 1239.18C1236.67 1239.54 1236.87 1240 1236.87 1240.55V1259.05ZM1240.37 1258.34C1240.16 1258.05 1240.06 1257.66 1240.08 1257.19C1240.1 1256.72 1240.38 1256.32 1240.91 1255.98C1241.25 1255.76 1241.62 1255.68 1242 1255.72C1242.39 1255.74 1242.76 1255.93 1243.12 1256.3C1243.74 1256.91 1244.39 1257.39 1245.07 1257.74C1245.76 1258.08 1246.61 1258.25 1247.63 1258.25C1247.95 1258.23 1248.31 1258.18 1248.69 1258.12C1249.07 1258.03 1249.4 1257.86 1249.68 1257.61C1249.98 1257.33 1250.13 1256.91 1250.13 1256.36C1250.13 1255.89 1249.97 1255.52 1249.65 1255.24C1249.33 1254.96 1248.9 1254.73 1248.37 1254.54C1247.86 1254.34 1247.28 1254.16 1246.64 1253.99C1245.98 1253.8 1245.3 1253.59 1244.59 1253.35C1243.91 1253.12 1243.28 1252.82 1242.71 1252.46C1242.13 1252.07 1241.66 1251.57 1241.3 1250.95C1240.93 1250.33 1240.75 1249.55 1240.75 1248.62C1240.75 1247.55 1241.05 1246.64 1241.65 1245.9C1242.25 1245.15 1243.01 1244.57 1243.95 1244.17C1244.91 1243.76 1245.92 1243.56 1246.96 1243.56C1247.62 1243.56 1248.32 1243.65 1249.04 1243.82C1249.77 1243.97 1250.46 1244.22 1251.12 1244.58C1251.78 1244.93 1252.34 1245.38 1252.79 1245.96C1253.02 1246.28 1253.16 1246.66 1253.2 1247.11C1253.24 1247.56 1253.04 1247.97 1252.59 1248.33C1252.27 1248.58 1251.9 1248.7 1251.47 1248.68C1251.05 1248.64 1250.69 1248.49 1250.42 1248.23C1250.05 1247.76 1249.56 1247.39 1248.95 1247.11C1248.35 1246.83 1247.65 1246.7 1246.87 1246.7C1246.55 1246.7 1246.19 1246.74 1245.81 1246.82C1245.45 1246.89 1245.13 1247.05 1244.85 1247.3C1244.57 1247.54 1244.43 1247.92 1244.43 1248.46C1244.43 1248.95 1244.59 1249.34 1244.91 1249.64C1245.23 1249.92 1245.66 1250.15 1246.19 1250.34C1246.75 1250.51 1247.33 1250.69 1247.95 1250.86C1248.59 1251.03 1249.24 1251.23 1249.91 1251.46C1250.57 1251.7 1251.17 1252.01 1251.73 1252.39C1252.28 1252.78 1252.73 1253.28 1253.07 1253.9C1253.41 1254.49 1253.59 1255.26 1253.59 1256.2C1253.59 1257.29 1253.27 1258.22 1252.63 1258.98C1251.99 1259.75 1251.19 1260.34 1250.23 1260.74C1249.27 1261.13 1248.28 1261.32 1247.28 1261.32C1246.02 1261.32 1244.76 1261.11 1243.51 1260.68C1242.25 1260.23 1241.2 1259.45 1240.37 1258.34ZM1260.96 1259.05C1260.96 1259.6 1260.77 1260.07 1260.38 1260.46C1260.02 1260.82 1259.56 1261 1259.01 1261C1258.47 1261 1258.03 1260.82 1257.66 1260.46C1257.3 1260.07 1257.12 1259.6 1257.12 1259.05V1239.27C1257.12 1238.72 1257.3 1238.26 1257.66 1237.9C1258.05 1237.51 1258.52 1237.32 1259.07 1237.32C1259.63 1237.32 1260.07 1237.51 1260.41 1237.9C1260.78 1238.26 1260.96 1238.72 1260.96 1239.27V1259.05ZM1279.44 1243.56C1279.99 1243.56 1280.45 1243.74 1280.82 1244.1C1281.18 1244.47 1281.36 1244.94 1281.36 1245.51V1259.05C1281.36 1259.6 1281.18 1260.07 1280.82 1260.46C1280.45 1260.82 1279.99 1261 1279.44 1261C1278.89 1261 1278.43 1260.82 1278.06 1260.46C1277.7 1260.07 1277.52 1259.6 1277.52 1259.05V1257.48L1278.22 1257.77C1278.22 1258.05 1278.07 1258.39 1277.78 1258.79C1277.48 1259.18 1277.07 1259.56 1276.56 1259.94C1276.05 1260.33 1275.44 1260.66 1274.74 1260.94C1274.05 1261.19 1273.31 1261.32 1272.5 1261.32C1271.02 1261.32 1269.69 1260.95 1268.5 1260.2C1267.3 1259.43 1266.35 1258.39 1265.65 1257.06C1264.97 1255.72 1264.62 1254.18 1264.62 1252.46C1264.62 1250.71 1264.97 1249.17 1265.65 1247.85C1266.35 1246.5 1267.29 1245.46 1268.46 1244.71C1269.64 1243.94 1270.94 1243.56 1272.37 1243.56C1273.29 1243.56 1274.13 1243.7 1274.9 1243.98C1275.66 1244.25 1276.33 1244.61 1276.88 1245.03C1277.46 1245.46 1277.89 1245.9 1278.19 1246.34C1278.51 1246.77 1278.67 1247.13 1278.67 1247.43L1277.52 1247.85V1245.51C1277.52 1244.96 1277.7 1244.5 1278.06 1244.14C1278.43 1243.75 1278.89 1243.56 1279.44 1243.56ZM1272.98 1257.8C1273.91 1257.8 1274.74 1257.57 1275.44 1257.1C1276.14 1256.63 1276.69 1255.99 1277.07 1255.18C1277.48 1254.37 1277.68 1253.46 1277.68 1252.46C1277.68 1251.43 1277.48 1250.51 1277.07 1249.7C1276.69 1248.89 1276.14 1248.25 1275.44 1247.78C1274.74 1247.31 1273.91 1247.08 1272.98 1247.08C1272.06 1247.08 1271.25 1247.31 1270.54 1247.78C1269.84 1248.25 1269.29 1248.89 1268.88 1249.7C1268.5 1250.51 1268.3 1251.43 1268.3 1252.46C1268.3 1253.46 1268.5 1254.37 1268.88 1255.18C1269.29 1255.99 1269.84 1256.63 1270.54 1257.1C1271.25 1257.57 1272.06 1257.8 1272.98 1257.8ZM1294.67 1243.56C1296.25 1243.56 1297.44 1243.89 1298.25 1244.55C1299.09 1245.21 1299.65 1246.1 1299.95 1247.21C1300.27 1248.3 1300.43 1249.51 1300.43 1250.86V1259.05C1300.43 1259.6 1300.25 1260.07 1299.89 1260.46C1299.52 1260.82 1299.06 1261 1298.51 1261C1297.95 1261 1297.5 1260.82 1297.13 1260.46C1296.77 1260.07 1296.59 1259.6 1296.59 1259.05V1250.86C1296.59 1250.15 1296.49 1249.52 1296.3 1248.97C1296.13 1248.39 1295.81 1247.93 1295.34 1247.59C1294.87 1247.25 1294.2 1247.08 1293.33 1247.08C1292.47 1247.08 1291.75 1247.25 1291.15 1247.59C1290.57 1247.93 1290.13 1248.39 1289.81 1248.97C1289.51 1249.52 1289.36 1250.15 1289.36 1250.86V1259.05C1289.36 1259.6 1289.18 1260.07 1288.81 1260.46C1288.45 1260.82 1287.99 1261 1287.44 1261C1286.88 1261 1286.42 1260.82 1286.06 1260.46C1285.7 1260.07 1285.52 1259.6 1285.52 1259.05V1245.83C1285.52 1245.28 1285.7 1244.82 1286.06 1244.46C1286.42 1244.07 1286.88 1243.88 1287.44 1243.88C1287.99 1243.88 1288.45 1244.07 1288.81 1244.46C1289.18 1244.82 1289.36 1245.28 1289.36 1245.83V1247.21L1288.88 1247.11C1289.07 1246.75 1289.35 1246.37 1289.71 1245.96C1290.07 1245.53 1290.5 1245.14 1290.99 1244.78C1291.48 1244.41 1292.03 1244.13 1292.65 1243.91C1293.27 1243.68 1293.94 1243.56 1294.67 1243.56ZM1318.6 1237.32C1319.15 1237.32 1319.61 1237.5 1319.97 1237.86C1320.33 1238.23 1320.52 1238.7 1320.52 1239.27V1259.05C1320.52 1259.6 1320.33 1260.07 1319.97 1260.46C1319.61 1260.82 1319.15 1261 1318.6 1261C1318.04 1261 1317.58 1260.82 1317.22 1260.46C1316.86 1260.07 1316.68 1259.6 1316.68 1259.05V1257.48L1317.38 1257.77C1317.38 1258.05 1317.23 1258.39 1316.93 1258.79C1316.63 1259.18 1316.23 1259.56 1315.72 1259.94C1315.2 1260.33 1314.6 1260.66 1313.89 1260.94C1313.21 1261.19 1312.46 1261.32 1311.65 1261.32C1310.18 1261.32 1308.85 1260.95 1307.65 1260.2C1306.46 1259.43 1305.51 1258.39 1304.8 1257.06C1304.12 1255.72 1303.78 1254.18 1303.78 1252.46C1303.78 1250.71 1304.12 1249.17 1304.8 1247.85C1305.51 1246.5 1306.45 1245.46 1307.62 1244.71C1308.79 1243.94 1310.09 1243.56 1311.52 1243.56C1312.44 1243.56 1313.28 1243.7 1314.05 1243.98C1314.82 1244.25 1315.48 1244.61 1316.04 1245.03C1316.61 1245.46 1317.05 1245.9 1317.35 1246.34C1317.67 1246.77 1317.83 1247.13 1317.83 1247.43L1316.68 1247.85V1239.27C1316.68 1238.72 1316.86 1238.26 1317.22 1237.9C1317.58 1237.51 1318.04 1237.32 1318.6 1237.32ZM1312.13 1257.8C1313.07 1257.8 1313.89 1257.57 1314.6 1257.1C1315.3 1256.63 1315.84 1255.99 1316.23 1255.18C1316.63 1254.37 1316.84 1253.46 1316.84 1252.46C1316.84 1251.43 1316.63 1250.51 1316.23 1249.7C1315.84 1248.89 1315.3 1248.25 1314.6 1247.78C1313.89 1247.31 1313.07 1247.08 1312.13 1247.08C1311.21 1247.08 1310.4 1247.31 1309.7 1247.78C1309 1248.25 1308.44 1248.89 1308.04 1249.7C1307.65 1250.51 1307.46 1251.43 1307.46 1252.46C1307.46 1253.46 1307.65 1254.37 1308.04 1255.18C1308.44 1255.99 1309 1256.63 1309.7 1257.1C1310.4 1257.57 1311.21 1257.8 1312.13 1257.8Z" fill="white"/>
<rect width="250" height="250" transform="translate(1574 200)" fill="#4C7A70"/>
<path d="M1636.4 334.048C1636.4 334.603 1636.2 335.072 1635.79 335.456C1635.39 335.819 1634.92 336 1634.38 336C1633.79 336 1633.31 335.819 1632.94 335.456C1632.58 335.072 1632.4 334.603 1632.4 334.048V315.552C1632.4 314.997 1632.59 314.539 1632.98 314.176C1633.36 313.792 1633.85 313.6 1634.45 313.6C1634.96 313.6 1635.41 313.792 1635.79 314.176C1636.2 314.539 1636.4 314.997 1636.4 315.552V334.048ZM1639.9 333.344C1639.69 333.045 1639.59 332.661 1639.61 332.192C1639.63 331.723 1639.91 331.317 1640.44 330.976C1640.79 330.763 1641.15 330.677 1641.53 330.72C1641.92 330.741 1642.29 330.933 1642.65 331.296C1643.27 331.915 1643.92 332.395 1644.6 332.736C1645.29 333.077 1646.14 333.248 1647.16 333.248C1647.48 333.227 1647.84 333.184 1648.22 333.12C1648.6 333.035 1648.94 332.864 1649.21 332.608C1649.51 332.331 1649.66 331.915 1649.66 331.36C1649.66 330.891 1649.5 330.517 1649.18 330.24C1648.86 329.963 1648.43 329.728 1647.9 329.536C1647.39 329.344 1646.81 329.163 1646.17 328.992C1645.51 328.8 1644.83 328.587 1644.12 328.352C1643.44 328.117 1642.81 327.819 1642.24 327.456C1641.66 327.072 1641.19 326.571 1640.83 325.952C1640.47 325.333 1640.28 324.555 1640.28 323.616C1640.28 322.549 1640.58 321.643 1641.18 320.896C1641.78 320.149 1642.55 319.573 1643.48 319.168C1644.44 318.763 1645.45 318.56 1646.49 318.56C1647.15 318.56 1647.85 318.645 1648.57 318.816C1649.3 318.965 1649.99 319.221 1650.65 319.584C1651.31 319.925 1651.87 320.384 1652.32 320.96C1652.55 321.28 1652.69 321.664 1652.73 322.112C1652.78 322.56 1652.57 322.965 1652.12 323.328C1651.8 323.584 1651.43 323.701 1651 323.68C1650.58 323.637 1650.23 323.488 1649.95 323.232C1649.59 322.763 1649.1 322.389 1648.48 322.112C1647.88 321.835 1647.19 321.696 1646.4 321.696C1646.08 321.696 1645.72 321.739 1645.34 321.824C1644.98 321.888 1644.66 322.048 1644.38 322.304C1644.1 322.539 1643.96 322.923 1643.96 323.456C1643.96 323.947 1644.12 324.341 1644.44 324.64C1644.76 324.917 1645.19 325.152 1645.72 325.344C1646.28 325.515 1646.87 325.685 1647.48 325.856C1648.12 326.027 1648.78 326.229 1649.44 326.464C1650.1 326.699 1650.71 327.008 1651.26 327.392C1651.82 327.776 1652.26 328.277 1652.6 328.896C1652.95 329.493 1653.12 330.261 1653.12 331.2C1653.12 332.288 1652.8 333.216 1652.16 333.984C1651.52 334.752 1650.72 335.339 1649.76 335.744C1648.8 336.128 1647.82 336.32 1646.81 336.32C1645.55 336.32 1644.3 336.107 1643.04 335.68C1641.78 335.232 1640.73 334.453 1639.9 333.344ZM1660.49 334.048C1660.49 334.603 1660.3 335.072 1659.91 335.456C1659.55 335.819 1659.09 336 1658.54 336C1658 336 1657.56 335.819 1657.19 335.456C1656.83 335.072 1656.65 334.603 1656.65 334.048V314.272C1656.65 313.717 1656.83 313.259 1657.19 312.896C1657.58 312.512 1658.05 312.32 1658.6 312.32C1659.16 312.32 1659.6 312.512 1659.95 312.896C1660.31 313.259 1660.49 313.717 1660.49 314.272V334.048ZM1678.97 318.56C1679.53 318.56 1679.98 318.741 1680.35 319.104C1680.71 319.467 1680.89 319.936 1680.89 320.512V334.048C1680.89 334.603 1680.71 335.072 1680.35 335.456C1679.98 335.819 1679.53 336 1678.97 336C1678.42 336 1677.96 335.819 1677.6 335.456C1677.23 335.072 1677.05 334.603 1677.05 334.048V332.48L1677.76 332.768C1677.76 333.045 1677.61 333.387 1677.31 333.792C1677.01 334.176 1676.6 334.56 1676.09 334.944C1675.58 335.328 1674.97 335.659 1674.27 335.936C1673.58 336.192 1672.84 336.32 1672.03 336.32C1670.56 336.32 1669.22 335.947 1668.03 335.2C1666.83 334.432 1665.88 333.387 1665.18 332.064C1664.5 330.72 1664.16 329.184 1664.16 327.456C1664.16 325.707 1664.5 324.171 1665.18 322.848C1665.88 321.504 1666.82 320.459 1668 319.712C1669.17 318.944 1670.47 318.56 1671.9 318.56C1672.82 318.56 1673.66 318.699 1674.43 318.976C1675.2 319.253 1675.86 319.605 1676.41 320.032C1676.99 320.459 1677.42 320.896 1677.72 321.344C1678.04 321.771 1678.2 322.133 1678.2 322.432L1677.05 322.848V320.512C1677.05 319.957 1677.23 319.499 1677.6 319.136C1677.96 318.752 1678.42 318.56 1678.97 318.56ZM1672.51 332.8C1673.45 332.8 1674.27 332.565 1674.97 332.096C1675.68 331.627 1676.22 330.987 1676.6 330.176C1677.01 329.365 1677.21 328.459 1677.21 327.456C1677.21 326.432 1677.01 325.515 1676.6 324.704C1676.22 323.893 1675.68 323.253 1674.97 322.784C1674.27 322.315 1673.45 322.08 1672.51 322.08C1671.59 322.08 1670.78 322.315 1670.08 322.784C1669.37 323.253 1668.82 323.893 1668.41 324.704C1668.03 325.515 1667.84 326.432 1667.84 327.456C1667.84 328.459 1668.03 329.365 1668.41 330.176C1668.82 330.987 1669.37 331.627 1670.08 332.096C1670.78 332.565 1671.59 332.8 1672.51 332.8ZM1694.2 318.56C1695.78 318.56 1696.97 318.891 1697.78 319.552C1698.62 320.213 1699.18 321.099 1699.48 322.208C1699.8 323.296 1699.96 324.512 1699.96 325.856V334.048C1699.96 334.603 1699.78 335.072 1699.42 335.456C1699.05 335.819 1698.6 336 1698.04 336C1697.49 336 1697.03 335.819 1696.66 335.456C1696.3 335.072 1696.12 334.603 1696.12 334.048V325.856C1696.12 325.152 1696.02 324.523 1695.83 323.968C1695.66 323.392 1695.34 322.933 1694.87 322.592C1694.4 322.251 1693.73 322.08 1692.86 322.08C1692 322.08 1691.28 322.251 1690.68 322.592C1690.1 322.933 1689.66 323.392 1689.34 323.968C1689.04 324.523 1688.89 325.152 1688.89 325.856V334.048C1688.89 334.603 1688.71 335.072 1688.34 335.456C1687.98 335.819 1687.52 336 1686.97 336C1686.41 336 1685.96 335.819 1685.59 335.456C1685.23 335.072 1685.05 334.603 1685.05 334.048V320.832C1685.05 320.277 1685.23 319.819 1685.59 319.456C1685.96 319.072 1686.41 318.88 1686.97 318.88C1687.52 318.88 1687.98 319.072 1688.34 319.456C1688.71 319.819 1688.89 320.277 1688.89 320.832V322.208L1688.41 322.112C1688.6 321.749 1688.88 321.365 1689.24 320.96C1689.6 320.533 1690.03 320.139 1690.52 319.776C1691.01 319.413 1691.57 319.125 1692.18 318.912C1692.8 318.677 1693.48 318.56 1694.2 318.56ZM1718.13 312.32C1718.68 312.32 1719.14 312.501 1719.5 312.864C1719.87 313.227 1720.05 313.696 1720.05 314.272V334.048C1720.05 334.603 1719.87 335.072 1719.5 335.456C1719.14 335.819 1718.68 336 1718.13 336C1717.57 336 1717.11 335.819 1716.75 335.456C1716.39 335.072 1716.21 334.603 1716.21 334.048V332.48L1716.91 332.768C1716.91 333.045 1716.76 333.387 1716.46 333.792C1716.16 334.176 1715.76 334.56 1715.25 334.944C1714.74 335.328 1714.13 335.659 1713.42 335.936C1712.74 336.192 1711.99 336.32 1711.18 336.32C1709.71 336.32 1708.38 335.947 1707.18 335.2C1705.99 334.432 1705.04 333.387 1704.34 332.064C1703.65 330.72 1703.31 329.184 1703.31 327.456C1703.31 325.707 1703.65 324.171 1704.34 322.848C1705.04 321.504 1705.98 320.459 1707.15 319.712C1708.32 318.944 1709.63 318.56 1711.06 318.56C1711.97 318.56 1712.82 318.699 1713.58 318.976C1714.35 319.253 1715.01 319.605 1715.57 320.032C1716.14 320.459 1716.58 320.896 1716.88 321.344C1717.2 321.771 1717.36 322.133 1717.36 322.432L1716.21 322.848V314.272C1716.21 313.717 1716.39 313.259 1716.75 312.896C1717.11 312.512 1717.57 312.32 1718.13 312.32ZM1711.66 332.8C1712.6 332.8 1713.42 332.565 1714.13 332.096C1714.83 331.627 1715.38 330.987 1715.76 330.176C1716.16 329.365 1716.37 328.459 1716.37 327.456C1716.37 326.432 1716.16 325.515 1715.76 324.704C1715.38 323.893 1714.83 323.253 1714.13 322.784C1713.42 322.315 1712.6 322.08 1711.66 322.08C1710.75 322.08 1709.94 322.315 1709.23 322.784C1708.53 323.253 1707.97 323.893 1707.57 324.704C1707.18 325.515 1706.99 326.432 1706.99 327.456C1706.99 328.459 1707.18 329.365 1707.57 330.176C1707.97 330.987 1708.53 331.627 1709.23 332.096C1709.94 332.565 1710.75 332.8 1711.66 332.8ZM1740.92 336.32C1739.08 336.32 1737.53 335.84 1736.25 334.88C1734.99 333.899 1734.03 332.544 1733.37 330.816C1732.7 329.067 1732.37 327.061 1732.37 324.8C1732.37 322.517 1732.7 320.512 1733.37 318.784C1734.03 317.056 1734.99 315.712 1736.25 314.752C1737.53 313.771 1739.08 313.28 1740.92 313.28C1742.75 313.28 1744.3 313.771 1745.56 314.752C1746.84 315.712 1747.81 317.056 1748.47 318.784C1749.13 320.512 1749.46 322.517 1749.46 324.8C1749.46 327.061 1749.13 329.067 1748.47 330.816C1747.81 332.544 1746.84 333.899 1745.56 334.88C1744.3 335.84 1742.75 336.32 1740.92 336.32ZM1740.92 332.48C1741.81 332.48 1742.58 332.203 1743.22 331.648C1743.88 331.072 1744.4 330.219 1744.76 329.088C1745.12 327.936 1745.3 326.507 1745.3 324.8C1745.3 323.072 1745.12 321.643 1744.76 320.512C1744.4 319.381 1743.88 318.539 1743.22 317.984C1742.58 317.408 1741.81 317.12 1740.92 317.12C1740.04 317.12 1739.28 317.408 1738.61 317.984C1737.95 318.539 1737.44 319.381 1737.08 320.512C1736.72 321.643 1736.53 323.072 1736.53 324.8C1736.53 326.507 1736.72 327.936 1737.08 329.088C1737.44 330.219 1737.95 331.072 1738.61 331.648C1739.28 332.203 1740.04 332.48 1740.92 332.48ZM1754.33 331.488C1754.53 331.488 1754.73 331.52 1754.94 331.584C1755.18 331.648 1755.43 331.776 1755.71 331.968C1756.07 332.245 1756.5 332.491 1756.99 332.704C1757.5 332.917 1758.09 333.024 1758.75 333.024C1759.41 333.024 1760.03 332.864 1760.61 332.544C1761.2 332.203 1761.69 331.733 1762.08 331.136C1762.46 330.517 1762.65 329.781 1762.65 328.928C1762.65 328.117 1762.48 327.445 1762.14 326.912C1761.82 326.379 1761.38 325.973 1760.83 325.696C1760.3 325.419 1759.72 325.28 1759.1 325.28C1758.63 325.28 1758.24 325.323 1757.92 325.408C1757.62 325.493 1757.32 325.589 1757.02 325.696C1756.74 325.781 1756.41 325.824 1756.03 325.824C1755.54 325.824 1755.16 325.653 1754.88 325.312C1754.62 324.971 1754.49 324.565 1754.49 324.096C1754.49 323.797 1754.55 323.531 1754.65 323.296C1754.78 323.061 1754.96 322.805 1755.2 322.528L1760.83 316.544L1761.69 317.28H1753.82C1753.31 317.28 1752.88 317.109 1752.54 316.768C1752.2 316.427 1752.03 316 1752.03 315.488C1752.03 314.997 1752.2 314.592 1752.54 314.272C1752.88 313.931 1753.31 313.76 1753.82 313.76H1763.61C1764.28 313.76 1764.77 313.941 1765.09 314.304C1765.43 314.667 1765.6 315.125 1765.6 315.68C1765.6 315.957 1765.52 316.235 1765.37 316.512C1765.22 316.768 1765.04 317.003 1764.83 317.216L1759.17 323.296L1758.3 322.208C1758.54 322.101 1758.86 322.005 1759.26 321.92C1759.69 321.835 1760.04 321.792 1760.32 321.792C1761.58 321.792 1762.66 322.123 1763.58 322.784C1764.52 323.424 1765.24 324.267 1765.73 325.312C1766.24 326.336 1766.49 327.445 1766.49 328.64C1766.49 330.219 1766.14 331.584 1765.44 332.736C1764.73 333.888 1763.74 334.773 1762.46 335.392C1761.18 336.011 1759.69 336.32 1757.98 336.32C1757.19 336.32 1756.41 336.224 1755.65 336.032C1754.88 335.84 1754.22 335.584 1753.66 335.264C1753.19 335.008 1752.87 334.731 1752.7 334.432C1752.55 334.112 1752.48 333.813 1752.48 333.536C1752.48 333.045 1752.65 332.587 1752.99 332.16C1753.35 331.712 1753.8 331.488 1754.33 331.488Z" fill="white"/>
<rect width="250" height="250" transform="translate(1877 942)" fill="#EBA91F"/>
<path d="M1938.4 1076.05C1938.4 1076.6 1938.2 1077.07 1937.79 1077.46C1937.39 1077.82 1936.92 1078 1936.38 1078C1935.79 1078 1935.31 1077.82 1934.94 1077.46C1934.58 1077.07 1934.4 1076.6 1934.4 1076.05V1057.55C1934.4 1057 1934.59 1056.54 1934.98 1056.18C1935.36 1055.79 1935.85 1055.6 1936.45 1055.6C1936.96 1055.6 1937.41 1055.79 1937.79 1056.18C1938.2 1056.54 1938.4 1057 1938.4 1057.55V1076.05ZM1941.9 1075.34C1941.69 1075.05 1941.59 1074.66 1941.61 1074.19C1941.63 1073.72 1941.91 1073.32 1942.44 1072.98C1942.79 1072.76 1943.15 1072.68 1943.53 1072.72C1943.92 1072.74 1944.29 1072.93 1944.65 1073.3C1945.27 1073.91 1945.92 1074.39 1946.6 1074.74C1947.29 1075.08 1948.14 1075.25 1949.16 1075.25C1949.48 1075.23 1949.84 1075.18 1950.22 1075.12C1950.6 1075.03 1950.94 1074.86 1951.21 1074.61C1951.51 1074.33 1951.66 1073.91 1951.66 1073.36C1951.66 1072.89 1951.5 1072.52 1951.18 1072.24C1950.86 1071.96 1950.43 1071.73 1949.9 1071.54C1949.39 1071.34 1948.81 1071.16 1948.17 1070.99C1947.51 1070.8 1946.83 1070.59 1946.12 1070.35C1945.44 1070.12 1944.81 1069.82 1944.24 1069.46C1943.66 1069.07 1943.19 1068.57 1942.83 1067.95C1942.47 1067.33 1942.28 1066.55 1942.28 1065.62C1942.28 1064.55 1942.58 1063.64 1943.18 1062.9C1943.78 1062.15 1944.55 1061.57 1945.48 1061.17C1946.44 1060.76 1947.45 1060.56 1948.49 1060.56C1949.15 1060.56 1949.85 1060.65 1950.57 1060.82C1951.3 1060.97 1951.99 1061.22 1952.65 1061.58C1953.31 1061.93 1953.87 1062.38 1954.32 1062.96C1954.55 1063.28 1954.69 1063.66 1954.73 1064.11C1954.78 1064.56 1954.57 1064.97 1954.12 1065.33C1953.8 1065.58 1953.43 1065.7 1953 1065.68C1952.58 1065.64 1952.23 1065.49 1951.95 1065.23C1951.59 1064.76 1951.1 1064.39 1950.48 1064.11C1949.88 1063.83 1949.19 1063.7 1948.4 1063.7C1948.08 1063.7 1947.72 1063.74 1947.34 1063.82C1946.98 1063.89 1946.66 1064.05 1946.38 1064.3C1946.1 1064.54 1945.96 1064.92 1945.96 1065.46C1945.96 1065.95 1946.12 1066.34 1946.44 1066.64C1946.76 1066.92 1947.19 1067.15 1947.72 1067.34C1948.28 1067.51 1948.87 1067.69 1949.48 1067.86C1950.12 1068.03 1950.78 1068.23 1951.44 1068.46C1952.1 1068.7 1952.71 1069.01 1953.26 1069.39C1953.82 1069.78 1954.26 1070.28 1954.6 1070.9C1954.95 1071.49 1955.12 1072.26 1955.12 1073.2C1955.12 1074.29 1954.8 1075.22 1954.16 1075.98C1953.52 1076.75 1952.72 1077.34 1951.76 1077.74C1950.8 1078.13 1949.82 1078.32 1948.81 1078.32C1947.55 1078.32 1946.3 1078.11 1945.04 1077.68C1943.78 1077.23 1942.73 1076.45 1941.9 1075.34ZM1962.49 1076.05C1962.49 1076.6 1962.3 1077.07 1961.91 1077.46C1961.55 1077.82 1961.09 1078 1960.54 1078C1960 1078 1959.56 1077.82 1959.19 1077.46C1958.83 1077.07 1958.65 1076.6 1958.65 1076.05V1056.27C1958.65 1055.72 1958.83 1055.26 1959.19 1054.9C1959.58 1054.51 1960.05 1054.32 1960.6 1054.32C1961.16 1054.32 1961.6 1054.51 1961.95 1054.9C1962.31 1055.26 1962.49 1055.72 1962.49 1056.27V1076.05ZM1980.97 1060.56C1981.53 1060.56 1981.98 1060.74 1982.35 1061.1C1982.71 1061.47 1982.89 1061.94 1982.89 1062.51V1076.05C1982.89 1076.6 1982.71 1077.07 1982.35 1077.46C1981.98 1077.82 1981.53 1078 1980.97 1078C1980.42 1078 1979.96 1077.82 1979.6 1077.46C1979.23 1077.07 1979.05 1076.6 1979.05 1076.05V1074.48L1979.76 1074.77C1979.76 1075.05 1979.61 1075.39 1979.31 1075.79C1979.01 1076.18 1978.6 1076.56 1978.09 1076.94C1977.58 1077.33 1976.97 1077.66 1976.27 1077.94C1975.58 1078.19 1974.84 1078.32 1974.03 1078.32C1972.56 1078.32 1971.22 1077.95 1970.03 1077.2C1968.83 1076.43 1967.88 1075.39 1967.18 1074.06C1966.5 1072.72 1966.16 1071.18 1966.16 1069.46C1966.16 1067.71 1966.5 1066.17 1967.18 1064.85C1967.88 1063.5 1968.82 1062.46 1970 1061.71C1971.17 1060.94 1972.47 1060.56 1973.9 1060.56C1974.82 1060.56 1975.66 1060.7 1976.43 1060.98C1977.2 1061.25 1977.86 1061.61 1978.41 1062.03C1978.99 1062.46 1979.42 1062.9 1979.72 1063.34C1980.04 1063.77 1980.2 1064.13 1980.2 1064.43L1979.05 1064.85V1062.51C1979.05 1061.96 1979.23 1061.5 1979.6 1061.14C1979.96 1060.75 1980.42 1060.56 1980.97 1060.56ZM1974.51 1074.8C1975.45 1074.8 1976.27 1074.57 1976.97 1074.1C1977.68 1073.63 1978.22 1072.99 1978.6 1072.18C1979.01 1071.37 1979.21 1070.46 1979.21 1069.46C1979.21 1068.43 1979.01 1067.51 1978.6 1066.7C1978.22 1065.89 1977.68 1065.25 1976.97 1064.78C1976.27 1064.31 1975.45 1064.08 1974.51 1064.08C1973.59 1064.08 1972.78 1064.31 1972.08 1064.78C1971.37 1065.25 1970.82 1065.89 1970.41 1066.7C1970.03 1067.51 1969.84 1068.43 1969.84 1069.46C1969.84 1070.46 1970.03 1071.37 1970.41 1072.18C1970.82 1072.99 1971.37 1073.63 1972.08 1074.1C1972.78 1074.57 1973.59 1074.8 1974.51 1074.8ZM1996.2 1060.56C1997.78 1060.56 1998.97 1060.89 1999.78 1061.55C2000.62 1062.21 2001.18 1063.1 2001.48 1064.21C2001.8 1065.3 2001.96 1066.51 2001.96 1067.86V1076.05C2001.96 1076.6 2001.78 1077.07 2001.42 1077.46C2001.05 1077.82 2000.6 1078 2000.04 1078C1999.49 1078 1999.03 1077.82 1998.66 1077.46C1998.3 1077.07 1998.12 1076.6 1998.12 1076.05V1067.86C1998.12 1067.15 1998.02 1066.52 1997.83 1065.97C1997.66 1065.39 1997.34 1064.93 1996.87 1064.59C1996.4 1064.25 1995.73 1064.08 1994.86 1064.08C1994 1064.08 1993.28 1064.25 1992.68 1064.59C1992.1 1064.93 1991.66 1065.39 1991.34 1065.97C1991.04 1066.52 1990.89 1067.15 1990.89 1067.86V1076.05C1990.89 1076.6 1990.71 1077.07 1990.34 1077.46C1989.98 1077.82 1989.52 1078 1988.97 1078C1988.41 1078 1987.96 1077.82 1987.59 1077.46C1987.23 1077.07 1987.05 1076.6 1987.05 1076.05V1062.83C1987.05 1062.28 1987.23 1061.82 1987.59 1061.46C1987.96 1061.07 1988.41 1060.88 1988.97 1060.88C1989.52 1060.88 1989.98 1061.07 1990.34 1061.46C1990.71 1061.82 1990.89 1062.28 1990.89 1062.83V1064.21L1990.41 1064.11C1990.6 1063.75 1990.88 1063.37 1991.24 1062.96C1991.6 1062.53 1992.03 1062.14 1992.52 1061.78C1993.01 1061.41 1993.57 1061.13 1994.18 1060.91C1994.8 1060.68 1995.48 1060.56 1996.2 1060.56ZM2020.13 1054.32C2020.68 1054.32 2021.14 1054.5 2021.5 1054.86C2021.87 1055.23 2022.05 1055.7 2022.05 1056.27V1076.05C2022.05 1076.6 2021.87 1077.07 2021.5 1077.46C2021.14 1077.82 2020.68 1078 2020.13 1078C2019.57 1078 2019.11 1077.82 2018.75 1077.46C2018.39 1077.07 2018.21 1076.6 2018.21 1076.05V1074.48L2018.91 1074.77C2018.91 1075.05 2018.76 1075.39 2018.46 1075.79C2018.16 1076.18 2017.76 1076.56 2017.25 1076.94C2016.74 1077.33 2016.13 1077.66 2015.42 1077.94C2014.74 1078.19 2013.99 1078.32 2013.18 1078.32C2011.71 1078.32 2010.38 1077.95 2009.18 1077.2C2007.99 1076.43 2007.04 1075.39 2006.34 1074.06C2005.65 1072.72 2005.31 1071.18 2005.31 1069.46C2005.31 1067.71 2005.65 1066.17 2006.34 1064.85C2007.04 1063.5 2007.98 1062.46 2009.15 1061.71C2010.32 1060.94 2011.63 1060.56 2013.06 1060.56C2013.97 1060.56 2014.82 1060.7 2015.58 1060.98C2016.35 1061.25 2017.01 1061.61 2017.57 1062.03C2018.14 1062.46 2018.58 1062.9 2018.88 1063.34C2019.2 1063.77 2019.36 1064.13 2019.36 1064.43L2018.21 1064.85V1056.27C2018.21 1055.72 2018.39 1055.26 2018.75 1054.9C2019.11 1054.51 2019.57 1054.32 2020.13 1054.32ZM2013.66 1074.8C2014.6 1074.8 2015.42 1074.57 2016.13 1074.1C2016.83 1073.63 2017.38 1072.99 2017.76 1072.18C2018.16 1071.37 2018.37 1070.46 2018.37 1069.46C2018.37 1068.43 2018.16 1067.51 2017.76 1066.7C2017.38 1065.89 2016.83 1065.25 2016.13 1064.78C2015.42 1064.31 2014.6 1064.08 2013.66 1064.08C2012.75 1064.08 2011.94 1064.31 2011.23 1064.78C2010.53 1065.25 2009.97 1065.89 2009.57 1066.7C2009.18 1067.51 2008.99 1068.43 2008.99 1069.46C2008.99 1070.46 2009.18 1071.37 2009.57 1072.18C2009.97 1072.99 2010.53 1073.63 2011.23 1074.1C2011.94 1074.57 2012.75 1074.8 2013.66 1074.8ZM2042.92 1078.32C2041.08 1078.32 2039.53 1077.84 2038.25 1076.88C2036.99 1075.9 2036.03 1074.54 2035.37 1072.82C2034.7 1071.07 2034.37 1069.06 2034.37 1066.8C2034.37 1064.52 2034.7 1062.51 2035.37 1060.78C2036.03 1059.06 2036.99 1057.71 2038.25 1056.75C2039.53 1055.77 2041.08 1055.28 2042.92 1055.28C2044.75 1055.28 2046.3 1055.77 2047.56 1056.75C2048.84 1057.71 2049.81 1059.06 2050.47 1060.78C2051.13 1062.51 2051.46 1064.52 2051.46 1066.8C2051.46 1069.06 2051.13 1071.07 2050.47 1072.82C2049.81 1074.54 2048.84 1075.9 2047.56 1076.88C2046.3 1077.84 2044.75 1078.32 2042.92 1078.32ZM2042.92 1074.48C2043.81 1074.48 2044.58 1074.2 2045.22 1073.65C2045.88 1073.07 2046.4 1072.22 2046.76 1071.09C2047.12 1069.94 2047.3 1068.51 2047.3 1066.8C2047.3 1065.07 2047.12 1063.64 2046.76 1062.51C2046.4 1061.38 2045.88 1060.54 2045.22 1059.98C2044.58 1059.41 2043.81 1059.12 2042.92 1059.12C2042.04 1059.12 2041.28 1059.41 2040.61 1059.98C2039.95 1060.54 2039.44 1061.38 2039.08 1062.51C2038.72 1063.64 2038.53 1065.07 2038.53 1066.8C2038.53 1068.51 2038.72 1069.94 2039.08 1071.09C2039.44 1072.22 2039.95 1073.07 2040.61 1073.65C2041.28 1074.2 2042.04 1074.48 2042.92 1074.48ZM2060.46 1078.32C2059.67 1078.32 2058.83 1078.2 2057.93 1077.97C2057.04 1077.71 2056.3 1077.35 2055.73 1076.88C2055.45 1076.65 2055.22 1076.35 2055.05 1075.98C2054.9 1075.6 2054.83 1075.24 2054.83 1074.9C2054.83 1074.53 2054.98 1074.19 2055.28 1073.87C2055.6 1073.55 2056.05 1073.39 2056.62 1073.39C2057.01 1073.39 2057.49 1073.59 2058.06 1074C2058.4 1074.21 2058.78 1074.41 2059.18 1074.58C2059.59 1074.75 2060 1074.83 2060.43 1074.83C2061.45 1074.83 2062.34 1074.65 2063.09 1074.29C2063.83 1073.9 2064.41 1073.38 2064.81 1072.72C2065.22 1072.06 2065.42 1071.28 2065.42 1070.38C2065.42 1069.57 2065.23 1068.88 2064.85 1068.3C2064.48 1067.73 2063.99 1067.28 2063.37 1066.96C2062.78 1066.64 2062.13 1066.48 2061.42 1066.48C2060.76 1066.48 2060.18 1066.59 2059.69 1066.8C2059.2 1067.01 2058.76 1067.24 2058.35 1067.47C2057.94 1067.69 2057.54 1067.79 2057.13 1067.79C2056.43 1067.79 2055.91 1067.64 2055.57 1067.34C2055.22 1067.02 2055.01 1066.65 2054.93 1066.22C2054.84 1065.8 2054.82 1065.41 2054.86 1065.07L2055.85 1057.3C2055.94 1056.85 2056.15 1056.49 2056.49 1056.21C2056.86 1055.91 2057.28 1055.76 2057.77 1055.76H2067.02C2067.53 1055.76 2067.96 1055.93 2068.3 1056.27C2068.64 1056.61 2068.81 1057.04 2068.81 1057.55C2068.81 1058.04 2068.64 1058.46 2068.3 1058.8C2067.96 1059.12 2067.53 1059.28 2067.02 1059.28H2058.77L2059.12 1058.99L2058.25 1065.49L2057.84 1064.27C2057.97 1064.06 2058.24 1063.86 2058.67 1063.66C2059.1 1063.47 2059.59 1063.31 2060.14 1063.18C2060.7 1063.03 2061.24 1062.96 2061.77 1062.96C2063.2 1062.96 2064.48 1063.29 2065.61 1063.95C2066.74 1064.59 2067.63 1065.48 2068.27 1066.61C2068.93 1067.72 2069.26 1068.98 2069.26 1070.38C2069.26 1071.98 2068.9 1073.38 2068.17 1074.58C2067.45 1075.77 2066.42 1076.7 2065.1 1077.36C2063.8 1078 2062.25 1078.32 2060.46 1078.32Z" fill="white"/>
<rect width="250" height="250" transform="translate(2002 2070)" fill="#BD7331"/>
<path d="M2063.9 2204.05C2063.9 2204.6 2063.7 2205.07 2063.29 2205.46C2062.89 2205.82 2062.42 2206 2061.88 2206C2061.29 2206 2060.81 2205.82 2060.44 2205.46C2060.08 2205.07 2059.9 2204.6 2059.9 2204.05V2185.55C2059.9 2185 2060.09 2184.54 2060.48 2184.18C2060.86 2183.79 2061.35 2183.6 2061.95 2183.6C2062.46 2183.6 2062.91 2183.79 2063.29 2184.18C2063.7 2184.54 2063.9 2185 2063.9 2185.55V2204.05ZM2067.4 2203.34C2067.19 2203.05 2067.09 2202.66 2067.11 2202.19C2067.13 2201.72 2067.41 2201.32 2067.94 2200.98C2068.29 2200.76 2068.65 2200.68 2069.03 2200.72C2069.42 2200.74 2069.79 2200.93 2070.15 2201.3C2070.77 2201.91 2071.42 2202.39 2072.1 2202.74C2072.79 2203.08 2073.64 2203.25 2074.66 2203.25C2074.98 2203.23 2075.34 2203.18 2075.72 2203.12C2076.1 2203.03 2076.44 2202.86 2076.71 2202.61C2077.01 2202.33 2077.16 2201.91 2077.16 2201.36C2077.16 2200.89 2077 2200.52 2076.68 2200.24C2076.36 2199.96 2075.93 2199.73 2075.4 2199.54C2074.89 2199.34 2074.31 2199.16 2073.67 2198.99C2073.01 2198.8 2072.33 2198.59 2071.62 2198.35C2070.94 2198.12 2070.31 2197.82 2069.74 2197.46C2069.16 2197.07 2068.69 2196.57 2068.33 2195.95C2067.97 2195.33 2067.78 2194.55 2067.78 2193.62C2067.78 2192.55 2068.08 2191.64 2068.68 2190.9C2069.28 2190.15 2070.05 2189.57 2070.98 2189.17C2071.94 2188.76 2072.95 2188.56 2073.99 2188.56C2074.65 2188.56 2075.35 2188.65 2076.07 2188.82C2076.8 2188.97 2077.49 2189.22 2078.15 2189.58C2078.81 2189.93 2079.37 2190.38 2079.82 2190.96C2080.05 2191.28 2080.19 2191.66 2080.23 2192.11C2080.28 2192.56 2080.07 2192.97 2079.62 2193.33C2079.3 2193.58 2078.93 2193.7 2078.5 2193.68C2078.08 2193.64 2077.73 2193.49 2077.45 2193.23C2077.09 2192.76 2076.6 2192.39 2075.98 2192.11C2075.38 2191.83 2074.69 2191.7 2073.9 2191.7C2073.58 2191.7 2073.22 2191.74 2072.84 2191.82C2072.48 2191.89 2072.16 2192.05 2071.88 2192.3C2071.6 2192.54 2071.46 2192.92 2071.46 2193.46C2071.46 2193.95 2071.62 2194.34 2071.94 2194.64C2072.26 2194.92 2072.69 2195.15 2073.22 2195.34C2073.78 2195.51 2074.37 2195.69 2074.98 2195.86C2075.62 2196.03 2076.28 2196.23 2076.94 2196.46C2077.6 2196.7 2078.21 2197.01 2078.76 2197.39C2079.32 2197.78 2079.76 2198.28 2080.1 2198.9C2080.45 2199.49 2080.62 2200.26 2080.62 2201.2C2080.62 2202.29 2080.3 2203.22 2079.66 2203.98C2079.02 2204.75 2078.22 2205.34 2077.26 2205.74C2076.3 2206.13 2075.32 2206.32 2074.31 2206.32C2073.05 2206.32 2071.8 2206.11 2070.54 2205.68C2069.28 2205.23 2068.23 2204.45 2067.4 2203.34ZM2087.99 2204.05C2087.99 2204.6 2087.8 2205.07 2087.41 2205.46C2087.05 2205.82 2086.59 2206 2086.04 2206C2085.5 2206 2085.06 2205.82 2084.69 2205.46C2084.33 2205.07 2084.15 2204.6 2084.15 2204.05V2184.27C2084.15 2183.72 2084.33 2183.26 2084.69 2182.9C2085.08 2182.51 2085.55 2182.32 2086.1 2182.32C2086.66 2182.32 2087.1 2182.51 2087.45 2182.9C2087.81 2183.26 2087.99 2183.72 2087.99 2184.27V2204.05ZM2106.47 2188.56C2107.03 2188.56 2107.48 2188.74 2107.85 2189.1C2108.21 2189.47 2108.39 2189.94 2108.39 2190.51V2204.05C2108.39 2204.6 2108.21 2205.07 2107.85 2205.46C2107.48 2205.82 2107.03 2206 2106.47 2206C2105.92 2206 2105.46 2205.82 2105.1 2205.46C2104.73 2205.07 2104.55 2204.6 2104.55 2204.05V2202.48L2105.26 2202.77C2105.26 2203.05 2105.11 2203.39 2104.81 2203.79C2104.51 2204.18 2104.1 2204.56 2103.59 2204.94C2103.08 2205.33 2102.47 2205.66 2101.77 2205.94C2101.08 2206.19 2100.34 2206.32 2099.53 2206.32C2098.06 2206.32 2096.72 2205.95 2095.53 2205.2C2094.33 2204.43 2093.38 2203.39 2092.68 2202.06C2092 2200.72 2091.66 2199.18 2091.66 2197.46C2091.66 2195.71 2092 2194.17 2092.68 2192.85C2093.38 2191.5 2094.32 2190.46 2095.5 2189.71C2096.67 2188.94 2097.97 2188.56 2099.4 2188.56C2100.32 2188.56 2101.16 2188.7 2101.93 2188.98C2102.7 2189.25 2103.36 2189.61 2103.91 2190.03C2104.49 2190.46 2104.92 2190.9 2105.22 2191.34C2105.54 2191.77 2105.7 2192.13 2105.7 2192.43L2104.55 2192.85V2190.51C2104.55 2189.96 2104.73 2189.5 2105.1 2189.14C2105.46 2188.75 2105.92 2188.56 2106.47 2188.56ZM2100.01 2202.8C2100.95 2202.8 2101.77 2202.57 2102.47 2202.1C2103.18 2201.63 2103.72 2200.99 2104.1 2200.18C2104.51 2199.37 2104.71 2198.46 2104.71 2197.46C2104.71 2196.43 2104.51 2195.51 2104.1 2194.7C2103.72 2193.89 2103.18 2193.25 2102.47 2192.78C2101.77 2192.31 2100.95 2192.08 2100.01 2192.08C2099.09 2192.08 2098.28 2192.31 2097.58 2192.78C2096.87 2193.25 2096.32 2193.89 2095.91 2194.7C2095.53 2195.51 2095.34 2196.43 2095.34 2197.46C2095.34 2198.46 2095.53 2199.37 2095.91 2200.18C2096.32 2200.99 2096.87 2201.63 2097.58 2202.1C2098.28 2202.57 2099.09 2202.8 2100.01 2202.8ZM2121.7 2188.56C2123.28 2188.56 2124.47 2188.89 2125.28 2189.55C2126.12 2190.21 2126.68 2191.1 2126.98 2192.21C2127.3 2193.3 2127.46 2194.51 2127.46 2195.86V2204.05C2127.46 2204.6 2127.28 2205.07 2126.92 2205.46C2126.55 2205.82 2126.1 2206 2125.54 2206C2124.99 2206 2124.53 2205.82 2124.16 2205.46C2123.8 2205.07 2123.62 2204.6 2123.62 2204.05V2195.86C2123.62 2195.15 2123.52 2194.52 2123.33 2193.97C2123.16 2193.39 2122.84 2192.93 2122.37 2192.59C2121.9 2192.25 2121.23 2192.08 2120.36 2192.08C2119.5 2192.08 2118.78 2192.25 2118.18 2192.59C2117.6 2192.93 2117.16 2193.39 2116.84 2193.97C2116.54 2194.52 2116.39 2195.15 2116.39 2195.86V2204.05C2116.39 2204.6 2116.21 2205.07 2115.84 2205.46C2115.48 2205.82 2115.02 2206 2114.47 2206C2113.91 2206 2113.46 2205.82 2113.09 2205.46C2112.73 2205.07 2112.55 2204.6 2112.55 2204.05V2190.83C2112.55 2190.28 2112.73 2189.82 2113.09 2189.46C2113.46 2189.07 2113.91 2188.88 2114.47 2188.88C2115.02 2188.88 2115.48 2189.07 2115.84 2189.46C2116.21 2189.82 2116.39 2190.28 2116.39 2190.83V2192.21L2115.91 2192.11C2116.1 2191.75 2116.38 2191.37 2116.74 2190.96C2117.1 2190.53 2117.53 2190.14 2118.02 2189.78C2118.51 2189.41 2119.07 2189.13 2119.68 2188.91C2120.3 2188.68 2120.98 2188.56 2121.7 2188.56ZM2145.63 2182.32C2146.18 2182.32 2146.64 2182.5 2147 2182.86C2147.37 2183.23 2147.55 2183.7 2147.55 2184.27V2204.05C2147.55 2204.6 2147.37 2205.07 2147 2205.46C2146.64 2205.82 2146.18 2206 2145.63 2206C2145.07 2206 2144.61 2205.82 2144.25 2205.46C2143.89 2205.07 2143.71 2204.6 2143.71 2204.05V2202.48L2144.41 2202.77C2144.41 2203.05 2144.26 2203.39 2143.96 2203.79C2143.66 2204.18 2143.26 2204.56 2142.75 2204.94C2142.24 2205.33 2141.63 2205.66 2140.92 2205.94C2140.24 2206.19 2139.49 2206.32 2138.68 2206.32C2137.21 2206.32 2135.88 2205.95 2134.68 2205.2C2133.49 2204.43 2132.54 2203.39 2131.84 2202.06C2131.15 2200.72 2130.81 2199.18 2130.81 2197.46C2130.81 2195.71 2131.15 2194.17 2131.84 2192.85C2132.54 2191.5 2133.48 2190.46 2134.65 2189.71C2135.82 2188.94 2137.13 2188.56 2138.56 2188.56C2139.47 2188.56 2140.32 2188.7 2141.08 2188.98C2141.85 2189.25 2142.51 2189.61 2143.07 2190.03C2143.64 2190.46 2144.08 2190.9 2144.38 2191.34C2144.7 2191.77 2144.86 2192.13 2144.86 2192.43L2143.71 2192.85V2184.27C2143.71 2183.72 2143.89 2183.26 2144.25 2182.9C2144.61 2182.51 2145.07 2182.32 2145.63 2182.32ZM2139.16 2202.8C2140.1 2202.8 2140.92 2202.57 2141.63 2202.1C2142.33 2201.63 2142.88 2200.99 2143.26 2200.18C2143.66 2199.37 2143.87 2198.46 2143.87 2197.46C2143.87 2196.43 2143.66 2195.51 2143.26 2194.7C2142.88 2193.89 2142.33 2193.25 2141.63 2192.78C2140.92 2192.31 2140.1 2192.08 2139.16 2192.08C2138.25 2192.08 2137.44 2192.31 2136.73 2192.78C2136.03 2193.25 2135.47 2193.89 2135.07 2194.7C2134.68 2195.51 2134.49 2196.43 2134.49 2197.46C2134.49 2198.46 2134.68 2199.37 2135.07 2200.18C2135.47 2200.99 2136.03 2201.63 2136.73 2202.1C2137.44 2202.57 2138.25 2202.8 2139.16 2202.8ZM2168.42 2206.32C2166.58 2206.32 2165.03 2205.84 2163.75 2204.88C2162.49 2203.9 2161.53 2202.54 2160.87 2200.82C2160.2 2199.07 2159.87 2197.06 2159.87 2194.8C2159.87 2192.52 2160.2 2190.51 2160.87 2188.78C2161.53 2187.06 2162.49 2185.71 2163.75 2184.75C2165.03 2183.77 2166.58 2183.28 2168.42 2183.28C2170.25 2183.28 2171.8 2183.77 2173.06 2184.75C2174.34 2185.71 2175.31 2187.06 2175.97 2188.78C2176.63 2190.51 2176.96 2192.52 2176.96 2194.8C2176.96 2197.06 2176.63 2199.07 2175.97 2200.82C2175.31 2202.54 2174.34 2203.9 2173.06 2204.88C2171.8 2205.84 2170.25 2206.32 2168.42 2206.32ZM2168.42 2202.48C2169.31 2202.48 2170.08 2202.2 2170.72 2201.65C2171.38 2201.07 2171.9 2200.22 2172.26 2199.09C2172.62 2197.94 2172.8 2196.51 2172.8 2194.8C2172.8 2193.07 2172.62 2191.64 2172.26 2190.51C2171.9 2189.38 2171.38 2188.54 2170.72 2187.98C2170.08 2187.41 2169.31 2187.12 2168.42 2187.12C2167.54 2187.12 2166.78 2187.41 2166.11 2187.98C2165.45 2188.54 2164.94 2189.38 2164.58 2190.51C2164.22 2191.64 2164.03 2193.07 2164.03 2194.8C2164.03 2196.51 2164.22 2197.94 2164.58 2199.09C2164.94 2200.22 2165.45 2201.07 2166.11 2201.65C2166.78 2202.2 2167.54 2202.48 2168.42 2202.48ZM2190.6 2194.64L2190.54 2193.9C2191.35 2194.27 2192.05 2194.74 2192.65 2195.31C2193.25 2195.89 2193.71 2196.52 2194.03 2197.2C2194.35 2197.88 2194.51 2198.59 2194.51 2199.31C2194.51 2200.53 2194.16 2201.65 2193.48 2202.67C2192.82 2203.67 2191.92 2204.49 2190.79 2205.1C2189.66 2205.7 2188.4 2206 2187.02 2206C2185.63 2206 2184.37 2205.7 2183.24 2205.1C2182.11 2204.49 2181.2 2203.67 2180.52 2202.67C2179.86 2201.65 2179.53 2200.53 2179.53 2199.31C2179.53 2198.33 2179.73 2197.49 2180.14 2196.78C2180.56 2196.06 2181.09 2195.45 2181.71 2194.96C2182.35 2194.47 2182.98 2194.06 2183.59 2193.74L2183.34 2194.64C2182.8 2194.43 2182.28 2194.13 2181.77 2193.74C2181.28 2193.34 2180.87 2192.83 2180.55 2192.21C2180.23 2191.59 2180.07 2190.86 2180.07 2190.03C2180.07 2188.84 2180.38 2187.76 2181 2186.8C2181.62 2185.82 2182.45 2185.04 2183.5 2184.46C2184.56 2183.89 2185.74 2183.6 2187.02 2183.6C2188.32 2183.6 2189.48 2183.89 2190.51 2184.46C2191.55 2185.04 2192.38 2185.82 2193 2186.8C2193.62 2187.76 2193.93 2188.84 2193.93 2190.03C2193.93 2190.95 2193.75 2191.72 2193.39 2192.34C2193.02 2192.95 2192.59 2193.45 2192.07 2193.81C2191.56 2194.17 2191.07 2194.45 2190.6 2194.64ZM2183.91 2190.1C2183.91 2190.67 2184.04 2191.18 2184.3 2191.63C2184.58 2192.08 2184.95 2192.44 2185.42 2192.72C2185.89 2192.98 2186.42 2193.1 2187.02 2193.1C2187.62 2193.1 2188.14 2192.98 2188.59 2192.72C2189.06 2192.44 2189.42 2192.08 2189.67 2191.63C2189.95 2191.18 2190.09 2190.67 2190.09 2190.1C2190.09 2189.24 2189.79 2188.54 2189.19 2187.98C2188.62 2187.41 2187.89 2187.12 2187.02 2187.12C2186.12 2187.12 2185.38 2187.41 2184.78 2187.98C2184.2 2188.54 2183.91 2189.24 2183.91 2190.1ZM2187.02 2202.48C2188.04 2202.48 2188.91 2202.17 2189.61 2201.55C2190.31 2200.91 2190.67 2200.14 2190.67 2199.25C2190.67 2198.63 2190.51 2198.07 2190.19 2197.58C2189.87 2197.09 2189.43 2196.71 2188.87 2196.43C2188.32 2196.13 2187.7 2195.98 2187.02 2195.98C2186.34 2195.98 2185.72 2196.13 2185.16 2196.43C2184.61 2196.71 2184.17 2197.09 2183.85 2197.58C2183.53 2198.07 2183.37 2198.63 2183.37 2199.25C2183.37 2200.14 2183.72 2200.91 2184.43 2201.55C2185.13 2202.17 2185.99 2202.48 2187.02 2202.48Z" fill="white"/>
<rect width="250" height="250" transform="translate(528 2070)" fill="#EFBDA0"/>
<path d="M589.9 2204.05C589.9 2204.6 589.697 2205.07 589.292 2205.46C588.887 2205.82 588.417 2206 587.884 2206C587.287 2206 586.807 2205.82 586.444 2205.46C586.081 2205.07 585.9 2204.6 585.9 2204.05V2185.55C585.9 2185 586.092 2184.54 586.476 2184.18C586.86 2183.79 587.351 2183.6 587.948 2183.6C588.46 2183.6 588.908 2183.79 589.292 2184.18C589.697 2184.54 589.9 2185 589.9 2185.55V2204.05ZM593.401 2203.34C593.187 2203.05 593.091 2202.66 593.113 2202.19C593.134 2201.72 593.411 2201.32 593.945 2200.98C594.286 2200.76 594.649 2200.68 595.033 2200.72C595.417 2200.74 595.79 2200.93 596.153 2201.3C596.771 2201.91 597.422 2202.39 598.105 2202.74C598.787 2203.08 599.641 2203.25 600.665 2203.25C600.985 2203.23 601.337 2203.18 601.72 2203.12C602.105 2203.03 602.435 2202.86 602.713 2202.61C603.011 2202.33 603.161 2201.91 603.161 2201.36C603.161 2200.89 603.001 2200.52 602.681 2200.24C602.361 2199.96 601.934 2199.73 601.401 2199.54C600.889 2199.34 600.313 2199.16 599.673 2198.99C599.011 2198.8 598.329 2198.59 597.625 2198.35C596.942 2198.12 596.313 2197.82 595.737 2197.46C595.161 2197.07 594.691 2196.57 594.329 2195.95C593.966 2195.33 593.785 2194.55 593.785 2193.62C593.785 2192.55 594.083 2191.64 594.681 2190.9C595.278 2190.15 596.046 2189.57 596.985 2189.17C597.945 2188.76 598.947 2188.56 599.993 2188.56C600.654 2188.56 601.347 2188.65 602.073 2188.82C602.798 2188.97 603.491 2189.22 604.153 2189.58C604.814 2189.93 605.369 2190.38 605.817 2190.96C606.051 2191.28 606.19 2191.66 606.233 2192.11C606.275 2192.56 606.073 2192.97 605.625 2193.33C605.305 2193.58 604.931 2193.7 604.505 2193.68C604.078 2193.64 603.726 2193.49 603.449 2193.23C603.086 2192.76 602.595 2192.39 601.977 2192.11C601.379 2191.83 600.686 2191.7 599.897 2191.7C599.577 2191.7 599.225 2191.74 598.841 2191.82C598.478 2191.89 598.158 2192.05 597.881 2192.3C597.603 2192.54 597.465 2192.92 597.465 2193.46C597.465 2193.95 597.625 2194.34 597.945 2194.64C598.265 2194.92 598.691 2195.15 599.225 2195.34C599.779 2195.51 600.366 2195.69 600.985 2195.86C601.625 2196.03 602.275 2196.23 602.937 2196.46C603.598 2196.7 604.206 2197.01 604.761 2197.39C605.315 2197.78 605.763 2198.28 606.105 2198.9C606.446 2199.49 606.617 2200.26 606.617 2201.2C606.617 2202.29 606.297 2203.22 605.657 2203.98C605.017 2204.75 604.217 2205.34 603.257 2205.74C602.297 2206.13 601.315 2206.32 600.312 2206.32C599.054 2206.32 597.795 2206.11 596.536 2205.68C595.278 2205.23 594.233 2204.45 593.401 2203.34ZM613.99 2204.05C613.99 2204.6 613.798 2205.07 613.414 2205.46C613.051 2205.82 612.593 2206 612.038 2206C611.505 2206 611.057 2205.82 610.694 2205.46C610.331 2205.07 610.15 2204.6 610.15 2204.05V2184.27C610.15 2183.72 610.331 2183.26 610.694 2182.9C611.078 2182.51 611.547 2182.32 612.102 2182.32C612.657 2182.32 613.105 2182.51 613.446 2182.9C613.809 2183.26 613.99 2183.72 613.99 2184.27V2204.05ZM632.471 2188.56C633.026 2188.56 633.484 2188.74 633.847 2189.1C634.21 2189.47 634.391 2189.94 634.391 2190.51V2204.05C634.391 2204.6 634.21 2205.07 633.847 2205.46C633.484 2205.82 633.026 2206 632.471 2206C631.916 2206 631.458 2205.82 631.095 2205.46C630.732 2205.07 630.551 2204.6 630.551 2204.05V2202.48L631.255 2202.77C631.255 2203.05 631.106 2203.39 630.807 2203.79C630.508 2204.18 630.103 2204.56 629.591 2204.94C629.079 2205.33 628.471 2205.66 627.767 2205.94C627.084 2206.19 626.338 2206.32 625.527 2206.32C624.055 2206.32 622.722 2205.95 621.527 2205.2C620.332 2204.43 619.383 2203.39 618.679 2202.06C617.996 2200.72 617.655 2199.18 617.655 2197.46C617.655 2195.71 617.996 2194.17 618.679 2192.85C619.383 2191.5 620.322 2190.46 621.495 2189.71C622.668 2188.94 623.97 2188.56 625.399 2188.56C626.316 2188.56 627.159 2188.7 627.927 2188.98C628.695 2189.25 629.356 2189.61 629.911 2190.03C630.487 2190.46 630.924 2190.9 631.223 2191.34C631.543 2191.77 631.703 2192.13 631.703 2192.43L630.551 2192.85V2190.51C630.551 2189.96 630.732 2189.5 631.095 2189.14C631.458 2188.75 631.916 2188.56 632.471 2188.56ZM626.007 2202.8C626.946 2202.8 627.767 2202.57 628.471 2202.1C629.175 2201.63 629.719 2200.99 630.103 2200.18C630.508 2199.37 630.711 2198.46 630.711 2197.46C630.711 2196.43 630.508 2195.51 630.103 2194.7C629.719 2193.89 629.175 2193.25 628.471 2192.78C627.767 2192.31 626.946 2192.08 626.007 2192.08C625.09 2192.08 624.279 2192.31 623.575 2192.78C622.871 2193.25 622.316 2193.89 621.911 2194.7C621.527 2195.51 621.335 2196.43 621.335 2197.46C621.335 2198.46 621.527 2199.37 621.911 2200.18C622.316 2200.99 622.871 2201.63 623.575 2202.1C624.279 2202.57 625.09 2202.8 626.007 2202.8ZM647.701 2188.56C649.279 2188.56 650.474 2188.89 651.285 2189.55C652.117 2190.21 652.682 2191.1 652.981 2192.21C653.301 2193.3 653.461 2194.51 653.461 2195.86V2204.05C653.461 2204.6 653.279 2205.07 652.917 2205.46C652.554 2205.82 652.095 2206 651.541 2206C650.986 2206 650.527 2205.82 650.165 2205.46C649.802 2205.07 649.621 2204.6 649.621 2204.05V2195.86C649.621 2195.15 649.525 2194.52 649.333 2193.97C649.162 2193.39 648.842 2192.93 648.373 2192.59C647.903 2192.25 647.231 2192.08 646.357 2192.08C645.503 2192.08 644.778 2192.25 644.181 2192.59C643.605 2192.93 643.157 2193.39 642.837 2193.97C642.538 2194.52 642.389 2195.15 642.389 2195.86V2204.05C642.389 2204.6 642.207 2205.07 641.845 2205.46C641.482 2205.82 641.023 2206 640.469 2206C639.914 2206 639.455 2205.82 639.093 2205.46C638.73 2205.07 638.549 2204.6 638.549 2204.05V2190.83C638.549 2190.28 638.73 2189.82 639.093 2189.46C639.455 2189.07 639.914 2188.88 640.469 2188.88C641.023 2188.88 641.482 2189.07 641.845 2189.46C642.207 2189.82 642.389 2190.28 642.389 2190.83V2192.21L641.909 2192.11C642.101 2191.75 642.378 2191.37 642.741 2190.96C643.103 2190.53 643.53 2190.14 644.021 2189.78C644.511 2189.41 645.066 2189.13 645.685 2188.91C646.303 2188.68 646.975 2188.56 647.701 2188.56ZM671.627 2182.32C672.182 2182.32 672.641 2182.5 673.003 2182.86C673.366 2183.23 673.547 2183.7 673.547 2184.27V2204.05C673.547 2204.6 673.366 2205.07 673.003 2205.46C672.641 2205.82 672.182 2206 671.627 2206C671.073 2206 670.614 2205.82 670.251 2205.46C669.889 2205.07 669.707 2204.6 669.707 2204.05V2202.48L670.411 2202.77C670.411 2203.05 670.262 2203.39 669.963 2203.79C669.665 2204.18 669.259 2204.56 668.747 2204.94C668.235 2205.33 667.627 2205.66 666.923 2205.94C666.241 2206.19 665.494 2206.32 664.683 2206.32C663.211 2206.32 661.878 2205.95 660.683 2205.2C659.489 2204.43 658.539 2203.39 657.835 2202.06C657.153 2200.72 656.811 2199.18 656.811 2197.46C656.811 2195.71 657.153 2194.17 657.835 2192.85C658.539 2191.5 659.478 2190.46 660.651 2189.71C661.825 2188.94 663.126 2188.56 664.555 2188.56C665.473 2188.56 666.315 2188.7 667.083 2188.98C667.851 2189.25 668.513 2189.61 669.067 2190.03C669.643 2190.46 670.081 2190.9 670.379 2191.34C670.699 2191.77 670.859 2192.13 670.859 2192.43L669.707 2192.85V2184.27C669.707 2183.72 669.889 2183.26 670.251 2182.9C670.614 2182.51 671.073 2182.32 671.627 2182.32ZM665.163 2202.8C666.102 2202.8 666.923 2202.57 667.627 2202.1C668.331 2201.63 668.875 2200.99 669.259 2200.18C669.665 2199.37 669.867 2198.46 669.867 2197.46C669.867 2196.43 669.665 2195.51 669.259 2194.7C668.875 2193.89 668.331 2193.25 667.627 2192.78C666.923 2192.31 666.102 2192.08 665.163 2192.08C664.246 2192.08 663.435 2192.31 662.731 2192.78C662.027 2193.25 661.473 2193.89 661.067 2194.7C660.683 2195.51 660.491 2196.43 660.491 2197.46C660.491 2198.46 660.683 2199.37 661.067 2200.18C661.473 2200.99 662.027 2201.63 662.731 2202.1C663.435 2202.57 664.246 2202.8 665.163 2202.8ZM694.418 2206.32C692.583 2206.32 691.026 2205.84 689.746 2204.88C688.487 2203.9 687.527 2202.54 686.866 2200.82C686.204 2199.07 685.874 2197.06 685.874 2194.8C685.874 2192.52 686.204 2190.51 686.866 2188.78C687.527 2187.06 688.487 2185.71 689.746 2184.75C691.026 2183.77 692.583 2183.28 694.418 2183.28C696.252 2183.28 697.799 2183.77 699.058 2184.75C700.338 2185.71 701.308 2187.06 701.97 2188.78C702.631 2190.51 702.962 2192.52 702.962 2194.8C702.962 2197.06 702.631 2199.07 701.97 2200.82C701.308 2202.54 700.338 2203.9 699.058 2204.88C697.799 2205.84 696.252 2206.32 694.418 2206.32ZM694.418 2202.48C695.314 2202.48 696.082 2202.2 696.722 2201.65C697.383 2201.07 697.895 2200.22 698.258 2199.09C698.62 2197.94 698.802 2196.51 698.802 2194.8C698.802 2193.07 698.62 2191.64 698.258 2190.51C697.895 2189.38 697.383 2188.54 696.722 2187.98C696.082 2187.41 695.314 2187.12 694.418 2187.12C693.543 2187.12 692.775 2187.41 692.114 2187.98C691.452 2188.54 690.94 2189.38 690.578 2190.51C690.215 2191.64 690.034 2193.07 690.034 2194.8C690.034 2196.51 690.215 2197.94 690.578 2199.09C690.94 2200.22 691.452 2201.07 692.114 2201.65C692.775 2202.2 693.543 2202.48 694.418 2202.48ZM713.37 2206.32C712.218 2206.32 711.173 2206.09 710.234 2205.62C709.317 2205.13 708.527 2204.46 707.866 2203.63C707.226 2202.8 706.725 2201.86 706.362 2200.82C706.021 2199.77 705.85 2198.69 705.85 2197.58C705.85 2196.86 705.925 2195.98 706.074 2194.96C706.245 2193.94 706.533 2192.86 706.938 2191.73C707.343 2190.6 707.909 2189.5 708.634 2188.43C709.359 2187.37 710.277 2186.41 711.386 2185.55C712.517 2184.7 713.893 2184.05 715.514 2183.6C715.77 2183.54 716.015 2183.5 716.25 2183.5C716.741 2183.5 717.178 2183.63 717.562 2183.89C717.967 2184.14 718.17 2184.61 718.17 2185.3C718.17 2185.77 718.01 2186.18 717.69 2186.54C717.391 2186.89 716.986 2187.13 716.474 2187.28C715.749 2187.49 715.023 2187.81 714.298 2188.24C713.594 2188.65 712.933 2189.15 712.314 2189.74C711.717 2190.34 711.194 2191.02 710.746 2191.79C710.319 2192.54 710.01 2193.35 709.818 2194.22L708.954 2194.19C709.253 2193.83 709.615 2193.45 710.042 2193.04C710.49 2192.61 711.023 2192.25 711.642 2191.95C712.282 2191.63 713.029 2191.47 713.882 2191.47C714.714 2191.47 715.535 2191.66 716.346 2192.05C717.178 2192.43 717.925 2192.97 718.586 2193.65C719.269 2194.31 719.813 2195.1 720.218 2196.02C720.623 2196.91 720.826 2197.87 720.826 2198.9C720.826 2200.26 720.485 2201.51 719.802 2202.64C719.141 2203.77 718.245 2204.67 717.114 2205.33C716.005 2205.99 714.757 2206.32 713.37 2206.32ZM713.37 2202.8C714.053 2202.8 714.661 2202.63 715.194 2202.29C715.749 2201.95 716.186 2201.48 716.506 2200.88C716.826 2200.28 716.986 2199.62 716.986 2198.9C716.986 2198.15 716.826 2197.49 716.506 2196.91C716.186 2196.31 715.749 2195.85 715.194 2195.5C714.661 2195.16 714.053 2194.99 713.37 2194.99C712.687 2194.99 712.069 2195.16 711.514 2195.5C710.981 2195.85 710.554 2196.31 710.234 2196.91C709.914 2197.49 709.754 2198.15 709.754 2198.9C709.754 2199.62 709.914 2200.28 710.234 2200.88C710.554 2201.48 710.981 2201.95 711.514 2202.29C712.069 2202.63 712.687 2202.8 713.37 2202.8Z" fill="white"/>
</svg>
