<svg viewBox="0 0 24 24">
<path fill-rule="evenodd" clip-rule="evenodd" d="M20.5,4.5c0.3-0.3,0.3-0.8,0-1.1s-0.8-0.3-1.1,0l-16,16c-0.3,0.3-0.3,0.8,0,1.1
	c0.3,0.3,0.8,0.3,1.1,0l3-3c1.3,0.6,2.8,1,4.4,1c2.6,0,5-1.1,6.7-2.4c0.8-0.7,1.5-1.4,2-2.1c0.5-0.7,0.8-1.4,0.8-2.1
	c0-0.6-0.3-1.4-0.8-2.1c-0.5-0.7-1.2-1.4-2-2.1c-0.3-0.2-0.6-0.4-0.9-0.6L20.5,4.5z M15.1,9.9L14,11c0.1,0.3,0.2,0.6,0.2,1
	c0,1.2-1,2.2-2.2,2.2c-0.3,0-0.7-0.1-1-0.2l-1.1,1.1c0.6,0.4,1.3,0.6,2.1,0.6c2.1,0,3.8-1.7,3.8-3.8C15.7,11.2,15.5,10.5,15.1,9.9z
	 M12.7,8.3c0.1,0,0.2,0,0.2-0.1l1.9-1.9c0.1-0.1,0.1-0.4-0.1-0.4C13.9,5.6,13,5.5,12,5.5c-2.6,0-5,1.1-6.7,2.4
	c-0.8,0.7-1.5,1.4-2,2.1c-0.5,0.7-0.8,1.4-0.8,2.1c0,0.6,0.3,1.4,0.8,2.1c0.4,0.6,1,1.2,1.7,1.8c0.1,0.1,0.2,0.1,0.3,0l2.9-2.9
	c0.1-0.1,0.1-0.1,0.1-0.2c0-0.2-0.1-0.4-0.1-0.7c0-2.1,1.7-3.8,3.7-3.8C12.2,8.2,12.5,8.3,12.7,8.3z"/>
</svg>
