<svg viewBox="0 0 24 24">
<path fill-rule="evenodd" clip-rule="evenodd" d="M14.2,12c0,1.2-1,2.2-2.2,2.2s-2.2-1-2.2-2.2c0-1.2,1-2.2,2.2-2.2
	S14.2,10.8,14.2,12z M21.5,12c0,0.6-0.3,1.4-0.8,2.1c-0.5,0.7-1.2,1.4-2,2.1c-1.7,1.3-4.1,2.4-6.7,2.4s-5-1.1-6.7-2.4
	c-0.8-0.7-1.5-1.4-2-2.1c-0.5-0.7-0.8-1.4-0.8-2.1c0-0.6,0.3-1.4,0.8-2.1c0.5-0.7,1.2-1.4,2-2.1C7,6.6,9.4,5.5,12,5.5s5,1.1,6.7,2.4
	c0.8,0.7,1.5,1.4,2,2.1C21.2,10.6,21.5,11.4,21.5,12z M15.8,12c0-2.1-1.7-3.8-3.8-3.8c-2.1,0-3.8,1.7-3.8,3.8s1.7,3.8,3.8,3.8
	C14.1,15.8,15.8,14.1,15.8,12z"/>
</svg>
