<svg viewBox="0 0 24 24" >
<path d="M21.2,7.7c0-0.2,0-0.4,0-0.6c0-0.1,0-0.2,0-0.3c0-0.1,0-0.3,0-0.4c0-0.1,0-0.2,0-0.3c0-0.1,0-0.2,0-0.3
	c0-0.1,0-0.2,0-0.2c0-0.1,0-0.2,0-0.3c0,0,0-0.1,0-0.1c0,0,0,0,0-0.1c0-0.1,0-0.2-0.1-0.3c0,0,0-0.1,0-0.1c0-0.1-0.1-0.2-0.1-0.3
	c0,0,0-0.1-0.1-0.1c0-0.1-0.1-0.1-0.1-0.2v0c-0.1-0.1-0.2-0.2-0.3-0.3C20.1,3.3,19.7,3.1,19,3c-0.7-0.1-1.5-0.1-2.7-0.1H7.5
	c-1.2,0-2.1,0-2.7,0.1C4.4,3,4.1,3.1,3.9,3.2v0c0,0,0,0,0,0c-0.1,0-0.2,0.1-0.3,0.1c0,0-0.1,0-0.1,0.1C3.4,3.5,3.3,3.5,3.2,3.6
	c0,0,0,0,0,0c0,0,0,0,0,0C3.1,3.7,3,3.8,3,3.9c0,0,0,0,0,0.1C2.9,4.1,2.8,4.2,2.8,4.3c0,0,0,0.1,0,0.1c0,0.1-0.1,0.2-0.1,0.3
	c0,0.1,0,0.2-0.1,0.4c0,0,0,0.1,0,0.1C2.5,5.7,2.5,6.3,2.5,7.1c0,0.3,0,0.5,0,0.8v8.7c0,0.3,0,0.6,0,0.8c0,0.8,0,1.4,0.1,1.9
	c0,0,0,0.1,0,0.1c0,0.1,0,0.2,0.1,0.3c0,0.1,0.1,0.2,0.1,0.3c0,0,0,0.1,0,0.1c0,0.1,0.1,0.2,0.1,0.3c0,0,0,0.1,0,0.1
	c0.1,0.1,0.1,0.2,0.2,0.3c0,0,0,0,0,0c0,0,0,0,0,0c0.1,0.1,0.2,0.2,0.3,0.2c0,0,0,0,0.1,0c0.1,0.1,0.2,0.1,0.3,0.1c0,0,0.1,0,0.1,0
	c0.1,0,0.2,0.1,0.3,0.1c0.2,0,0.4,0.1,0.6,0.1c0.5,0.1,1.1,0.1,1.8,0.1c0.3,0,0.5,0,0.8,0h8.7c0.3,0,0.6,0,0.8,0
	c0.7,0,1.3,0,1.7-0.1c0.2,0,0.4-0.1,0.6-0.1c0.1,0,0.2-0.1,0.3-0.1c0,0,0.1,0,0.1,0c0.1,0,0.2-0.1,0.3-0.1c0,0,0.1,0,0.1,0
	c0.1-0.1,0.2-0.1,0.3-0.2c0,0,0,0,0,0c0,0,0,0,0,0c0.1-0.1,0.2-0.2,0.2-0.3c0,0,0-0.1,0-0.1c0-0.1,0.1-0.2,0.1-0.3
	c0-0.1,0-0.1,0.1-0.2C21,20,21,20,21,19.9c0-0.1,0.1-0.3,0.1-0.4c0,0,0,0,0-0.1c0.1-0.7,0.1-1.5,0.1-2.7V7.9
	C21.2,7.8,21.2,7.8,21.2,7.7z M4.1,4.5c0.1-0.1,0.3-0.2,0.8-0.3c0.6-0.1,1.4-0.1,2.6-0.1h8.7c1.1,0,2,0,2.6,0.1
	c0.5,0.1,0.7,0.2,0.8,0.3c0.1,0.1,0.2,0.3,0.3,0.8C20,5.9,20,6.8,20,7.9v8.7c0,0.1,0,0.2,0,0.3c-0.4-0.1-0.8-0.2-1.1-0.5
	c-0.1-0.1-0.3-0.2-0.5-0.5h0l-1-1c-0.8-0.8-1.2-1.2-1.8-1.2c-0.5,0-0.9,0.4-1.8,1.2l-0.7,0.7h0c-0.6,0.6-0.9,0.9-1.2,0.8
	c-0.3-0.1-0.5-0.4-0.8-1.2l-0.6-1.5c-0.7-1.5-1-2.3-1.6-2.4S7.6,11.8,6.4,13l-2.5,2.5V4.9C4,4.7,4,4.6,4.1,4.5z M12.8,9.5
	c0-1,0.8-1.9,1.9-1.9s1.9,0.8,1.9,1.9s-0.8,1.9-1.9,1.9S12.8,10.5,12.8,9.5z"/>
</svg>
