<svg viewBox="0 0 24 24">
<path fill-rule="evenodd" clip-rule="evenodd" d="M7.3,7.9L7.6,11L7,11.1c-1,0.1-1.8,0.8-1.9,1.8c-0.4,2.2-0.4,4.5,0,6.7
	c0.2,1,0.9,1.7,1.9,1.8l1.5,0.1c2.4,0.2,4.7,0.2,7.1,0l1.5-0.1c1-0.1,1.8-0.8,1.9-1.8c0.4-2.2,0.4-4.5,0-6.7c-0.2-1-0.9-1.7-1.9-1.8
	L16.4,11l0.3-3.1c0-0.4,0-1.3,0-1.3c-0.2-2.2-2-3.9-4.1-4.1c-0.4,0-0.7,0-1.1,0c-2.2,0.3-3.9,2-4.1,4.1C7.3,6.6,7.3,7.6,7.3,7.9z
	 M12.4,4c-0.2,0-0.5,0-0.7,0C10.1,4.2,9,5.3,8.8,6.8c0,0-0.1,0.7,0,1l0.3,3.1c1.9-0.1,3.8-0.1,5.7,0l0.3-3.1c0-0.3,0-1,0-1
	C15,5.3,13.9,4.2,12.4,4z M12,14.7c-0.8,0-1.5,0.7-1.5,1.5c0,0.8,0.7,1.5,1.5,1.5c0.8,0,1.5-0.7,1.5-1.5
	C13.5,15.4,12.8,14.7,12,14.7z"/>
</svg>
