<svg  viewBox="0 0 24 24" >
<path d="M12,5.7c0-0.9,0.3-2.2,1.1-3.1c0.8-0.8,1.8-1.2,2.4-1.4C15.8,1.2,16,1.3,16,1.6c0,0.9-0.3,2.2-0.9,2.8
	c-0.6,0.7-1.4,1.5-2.7,1.7C12.2,6.1,12,6,12,5.7z M14.2,22.3c0.6,0.2,1.3,0.5,1.8,0.5c1.2,0,4.8-2.8,4.9-5.8c0-0.2-0.1-0.3-0.2-0.4
	c-0.9-0.5-2.4-1.8-2.4-3.6c-0.1-2.1,1-3.9,1.8-4.6c0.2-0.2,0.2-0.4,0.1-0.6C19.5,7.1,18,5.9,16.7,6c-1,0-1.9,0.4-2.6,0.7
	c-0.6,0.2-1.1,0.5-1.5,0.5c-0.4,0-0.9-0.2-1.4-0.5C10.3,6.3,9.4,6,8.4,6C6.6,6,3,7.5,3,13.3c0,3.1,3.2,9.5,5.9,9.5
	c0.6,0,1.2-0.2,1.8-0.5c0.6-0.2,1.2-0.5,1.8-0.5C13,21.8,13.6,22.1,14.2,22.3z"/>
</svg>
